<svg xmlns="http://www.w3.org/2000/svg" class="m5logo" version="1.1" viewBox="0 0 4706 5093" width="54" height="58.44px"><path class="m5logo-background" fill="#CE1D3F" d="M632 0l3442 0c348,0 632,285 632,632l0 4460 -4074 0c-348,0 -632,-285 -632,-632l0 -3828c0,-348 285,-632 632,-632z"></path><path class="m5logo-letters" fill="#fff" d="M530 2051l486 -479 0 -423 150 -180 398 714 -533 0 -501 497c0,302 0,590 0,892 0,158 76,236 233,236 151,0 302,0 452,0 308,0 500,-29 709,196 25,27 70,90 89,134 138,291 4,613 -282,750 -222,106 -588,49 -763,-145 -65,-73 -86,-128 -199,-140 -136,-14 -247,86 -219,223 16,80 134,199 198,254 76,65 174,123 285,167 283,114 704,115 977,-45 430,-250 688,-950 276,-1408 -174,-208 -449,-365 -777,-375l-539 -1 0 -605 244 -239 569 0c200,358 306,598 557,597 251,-1 339,-165 484,-428l735 -1316 129 225 0 3675 488 -474 0 -3344 -322 -461 -534 -1 -971 1638 -1164 -2057 -655 867 0 1058z"></path><polygon fill="#F18A8E" points="4458,3483 4462,3483 4462,3468 4458,3468"></polygon></svg>
