<svg xmlns="http://www.w3.org/2000/svg" xmlns:xlink="http://www.w3.org/1999/xlink" width="1383" zoomAndPan="magnify" viewBox="0 0 1038 503.03998" height="660" preserveAspectRatio="xMidYMid meet" version="1.0"><defs><g/><clipPath id="feb79bdee1"><path d="M 0.988281 0 L 1036.261719 0 L 1036.261719 494.058594 L 0.988281 494.058594 Z M 0.988281 0 " clip-rule="nonzero"/></clipPath><clipPath id="a4ef5275af"><path d="M 0.988281 0 L 385 0 L 385 494.058594 L 0.988281 494.058594 Z M 0.988281 0 " clip-rule="nonzero"/></clipPath><clipPath id="ab4467168e"><path d="M 0.988281 0 L 380 0 L 380 494.058594 L 0.988281 494.058594 Z M 0.988281 0 " clip-rule="nonzero"/></clipPath><clipPath id="b4d4a94db8"><rect x="0" width="385" y="0" height="495"/></clipPath><clipPath id="1949caef67"><path d="M 363 0 L 1013 0 L 1013 494.058594 L 363 494.058594 Z M 363 0 " clip-rule="nonzero"/></clipPath><clipPath id="fc0aa5fea0"><rect x="0" width="650" y="0" height="495"/></clipPath><clipPath id="19fd0bc2c9"><path d="M 964 127 L 1036.261719 127 L 1036.261719 494.058594 L 964 494.058594 Z M 964 127 " clip-rule="nonzero"/></clipPath><clipPath id="9bbb84bcc4"><path d="M 12 299 L 72.261719 299 L 72.261719 361 L 12 361 Z M 12 299 " clip-rule="nonzero"/></clipPath><clipPath id="064d162714"><rect x="0" width="73" y="0" height="368"/></clipPath><clipPath id="9e656de4f2"><rect x="0" width="1037" y="0" height="495"/></clipPath></defs><g clip-path="url(#feb79bdee1)"><g><g clip-path="url(#9e656de4f2)"><g clip-path="url(#a4ef5275af)"><g><g clip-path="url(#b4d4a94db8)"><g clip-path="url(#ab4467168e)"><g fill="#222222" fill-opacity="1"><g transform="translate(-31.932681, 486.066105)"><g><path d="M 221.578125 8.1875 C 184.753906 8.1875 152.023438 1.597656 123.390625 -11.578125 C 94.765625 -24.765625 72.492188 -42.71875 56.578125 -65.4375 C 40.671875 -88.164062 32.71875 -113.625 32.71875 -141.8125 C 32.71875 -156.351562 35.332031 -170.328125 40.5625 -183.734375 C 45.789062 -197.140625 53.175781 -209.296875 62.71875 -220.203125 C 72.269531 -231.117188 83.179688 -240.664062 95.453125 -248.84375 C 79.085938 -260.207031 66.242188 -274.066406 56.921875 -290.421875 C 47.609375 -306.785156 42.953125 -324.96875 42.953125 -344.96875 C 42.953125 -370.875 50.5625 -394.507812 65.78125 -415.875 C 81.007812 -437.238281 102.03125 -454.171875 128.84375 -466.671875 C 155.664062 -479.171875 186.578125 -485.421875 221.578125 -485.421875 C 257.023438 -485.421875 288.15625 -479.171875 314.96875 -466.671875 C 341.789062 -454.171875 362.703125 -437.238281 377.703125 -415.875 C 392.703125 -394.507812 400.203125 -370.875 400.203125 -344.96875 C 400.203125 -324.96875 395.539062 -306.785156 386.21875 -290.421875 C 376.90625 -274.066406 364.289062 -260.207031 348.375 -248.84375 C 360.65625 -240.664062 371.566406 -231.117188 381.109375 -220.203125 C 390.648438 -209.296875 398.035156 -197.140625 403.265625 -183.734375 C 408.492188 -170.328125 411.109375 -156.351562 411.109375 -141.8125 C 411.109375 -113.625 403.039062 -88.164062 386.90625 -65.4375 C 370.769531 -42.71875 348.5 -24.765625 320.09375 -11.578125 C 291.6875 1.597656 258.847656 8.1875 221.578125 8.1875 Z M 221.578125 -88.625 C 237.023438 -88.625 250.546875 -91.238281 262.140625 -96.46875 C 273.734375 -101.695312 282.820312 -108.628906 289.40625 -117.265625 C 296 -125.898438 299.296875 -135.671875 299.296875 -146.578125 C 299.296875 -162.941406 292.132812 -176.691406 277.8125 -187.828125 C 263.5 -198.960938 244.753906 -204.53125 221.578125 -204.53125 C 198.847656 -204.53125 180.320312 -198.960938 166 -187.828125 C 151.6875 -176.691406 144.53125 -162.941406 144.53125 -146.578125 C 144.53125 -135.671875 147.710938 -125.898438 154.078125 -117.265625 C 160.441406 -108.628906 169.53125 -101.695312 181.34375 -96.46875 C 193.164062 -91.238281 206.578125 -88.625 221.578125 -88.625 Z M 221.578125 -291.796875 C 242.023438 -291.796875 258.382812 -296.679688 270.65625 -306.453125 C 282.925781 -316.222656 289.0625 -327.925781 289.0625 -341.5625 C 289.0625 -350.65625 286.222656 -358.835938 280.546875 -366.109375 C 274.867188 -373.378906 267.03125 -379.285156 257.03125 -383.828125 C 247.03125 -388.378906 235.210938 -390.65625 221.578125 -390.65625 C 208.390625 -390.65625 196.679688 -388.378906 186.453125 -383.828125 C 176.234375 -379.285156 168.394531 -373.378906 162.9375 -366.109375 C 157.488281 -358.835938 154.765625 -350.65625 154.765625 -341.5625 C 154.765625 -327.925781 160.898438 -316.222656 173.171875 -306.453125 C 185.441406 -296.679688 201.578125 -291.796875 221.578125 -291.796875 Z M 221.578125 -291.796875 "/></g></g></g></g></g></g></g><g clip-path="url(#1949caef67)"><g transform="matrix(1, 0, 0, 1, 363, 0)"><g clip-path="url(#fc0aa5fea0)"><g fill="#222222" fill-opacity="1"><g transform="translate(0.25915, 484.178723)"><g><path d="M 148.09375 5.703125 C 123.09375 5.703125 100.625 0.164062 80.6875 -10.90625 C 60.75 -21.988281 45.003906 -37.179688 33.453125 -56.484375 C 21.910156 -75.785156 16.140625 -97.460938 16.140625 -121.515625 C 16.140625 -145.878906 21.910156 -167.628906 33.453125 -186.765625 C 45.003906 -205.910156 60.75 -221.097656 80.6875 -232.328125 C 100.625 -243.566406 123.09375 -249.1875 148.09375 -249.1875 C 173.082031 -249.1875 195.46875 -243.566406 215.25 -232.328125 C 235.03125 -221.097656 250.691406 -205.910156 262.234375 -186.765625 C 273.785156 -167.628906 279.5625 -145.878906 279.5625 -121.515625 C 279.5625 -97.460938 273.785156 -75.785156 262.234375 -56.484375 C 250.691406 -37.179688 234.953125 -21.988281 215.015625 -10.90625 C 195.078125 0.164062 172.769531 5.703125 148.09375 5.703125 Z M 148.09375 -58.375 C 159.800781 -58.375 169.925781 -61.222656 178.46875 -66.921875 C 187.007812 -72.617188 193.648438 -80.210938 198.390625 -89.703125 C 203.140625 -99.203125 205.515625 -109.960938 205.515625 -121.984375 C 205.515625 -133.691406 203.140625 -144.289062 198.390625 -153.78125 C 193.648438 -163.269531 187.007812 -170.863281 178.46875 -176.5625 C 169.925781 -182.257812 159.800781 -185.109375 148.09375 -185.109375 C 136.382812 -185.109375 126.175781 -182.257812 117.46875 -176.5625 C 108.769531 -170.863281 102.046875 -163.269531 97.296875 -153.78125 C 92.554688 -144.289062 90.1875 -133.691406 90.1875 -121.984375 C 90.1875 -109.960938 92.554688 -99.203125 97.296875 -89.703125 C 102.046875 -80.210938 108.769531 -72.617188 117.46875 -66.921875 C 126.175781 -61.222656 136.382812 -58.375 148.09375 -58.375 Z M 148.09375 -58.375 "/></g></g></g><g fill="#222222" fill-opacity="1"><g transform="translate(257.004066, 484.178723)"><g><path d="M 25.625 0 L 25.625 -171.8125 C 25.625 -193.96875 31.953125 -211.375 44.609375 -224.03125 C 57.273438 -236.6875 74.835938 -243.015625 97.296875 -243.015625 L 168.015625 -243.015625 L 168.015625 -183.21875 L 115.34375 -183.21875 C 110.90625 -183.21875 107.101562 -181.710938 103.9375 -178.703125 C 100.78125 -175.691406 99.203125 -171.816406 99.203125 -167.078125 L 99.203125 0 Z M 25.625 0 "/></g></g></g><g fill="#222222" fill-opacity="1"><g transform="translate(391.305273, 484.178723)"><g><path d="M 154.734375 0 C 127.203125 0 102.992188 -5.140625 82.109375 -15.421875 C 61.222656 -25.710938 45.003906 -39.953125 33.453125 -58.140625 C 21.910156 -76.335938 16.140625 -97.460938 16.140625 -121.515625 C 16.140625 -148.085938 21.675781 -170.863281 32.75 -189.84375 C 43.820312 -208.832031 58.613281 -223.46875 77.125 -233.75 C 95.632812 -244.039062 116.125 -249.1875 138.59375 -249.1875 C 164.226562 -249.1875 185.664062 -243.804688 202.90625 -233.046875 C 220.15625 -222.285156 233.207031 -207.648438 242.0625 -189.140625 C 250.925781 -170.628906 255.359375 -149.507812 255.359375 -125.78125 C 255.359375 -121.664062 255.117188 -116.835938 254.640625 -111.296875 C 254.171875 -105.765625 253.617188 -101.414062 252.984375 -98.25 L 93.5 -98.25 C 95.40625 -90.019531 99.046875 -83.054688 104.421875 -77.359375 C 109.796875 -71.671875 116.597656 -67.476562 124.828125 -64.78125 C 133.054688 -62.09375 142.234375 -60.75 152.359375 -60.75 L 226.875 -60.75 L 226.875 0 Z M 91.609375 -144.296875 L 184.15625 -144.296875 C 183.53125 -149.359375 182.582031 -154.257812 181.3125 -159 C 180.050781 -163.75 178.070312 -167.941406 175.375 -171.578125 C 172.6875 -175.222656 169.601562 -178.390625 166.125 -181.078125 C 162.644531 -183.765625 158.609375 -185.898438 154.015625 -187.484375 C 149.429688 -189.066406 144.289062 -189.859375 138.59375 -189.859375 C 131.3125 -189.859375 124.820312 -188.59375 119.125 -186.0625 C 113.4375 -183.53125 108.691406 -180.128906 104.890625 -175.859375 C 101.097656 -171.585938 98.171875 -166.679688 96.109375 -161.140625 C 94.054688 -155.597656 92.554688 -149.984375 91.609375 -144.296875 Z M 91.609375 -144.296875 "/></g></g></g></g></g></g><g clip-path="url(#19fd0bc2c9)"><g transform="matrix(1, 0, 0, 1, 964, 127)"><g clip-path="url(#064d162714)"><g clip-path="url(#9bbb84bcc4)"><g fill="#ff6f00" fill-opacity="1"><g transform="translate(0.693113, 356.444943)"><g><path d="M 42.09375 3.765625 C 33.71875 3.765625 26.546875 0.78125 20.578125 -5.1875 C 14.609375 -11.15625 11.625 -18.222656 11.625 -26.390625 C 11.625 -34.765625 14.609375 -41.9375 20.578125 -47.90625 C 26.546875 -53.875 33.71875 -56.859375 42.09375 -56.859375 C 50.257812 -56.859375 57.328125 -53.875 63.296875 -47.90625 C 69.265625 -41.9375 72.25 -34.765625 72.25 -26.390625 C 72.25 -20.941406 70.882812 -15.910156 68.15625 -11.296875 C 65.4375 -6.691406 61.828125 -3.03125 57.328125 -0.3125 C 52.828125 2.40625 47.75 3.765625 42.09375 3.765625 Z M 42.09375 3.765625 "/></g></g></g></g></g></g></g></g></g></g></svg>