<svg xmlns="http://www.w3.org/2000/svg" xmlns:xlink="http://www.w3.org/1999/xlink" width="595" zoomAndPan="magnify" viewBox="0 0 446.25 185.249993" height="247" preserveAspectRatio="xMidYMid meet" version="1.0"><defs><clipPath id="59da86211f"><path d="M 0.550781 48 L 45 48 L 45 92 L 0.550781 92 Z M 0.550781 48 " clip-rule="nonzero"/></clipPath><clipPath id="bb866422aa"><path d="M 97 47.496094 L 147 47.496094 L 147 93 L 97 93 Z M 97 47.496094 " clip-rule="nonzero"/></clipPath><clipPath id="25658bf998"><path d="M 350 47.496094 L 397 47.496094 L 397 93 L 350 93 Z M 350 47.496094 " clip-rule="nonzero"/></clipPath><clipPath id="2204f27ce4"><path d="M 397 48 L 444.835938 48 L 444.835938 92 L 397 92 Z M 397 48 " clip-rule="nonzero"/></clipPath><clipPath id="9b30ae6ac9"><path d="M 0.550781 107 L 30 107 L 30 136.988281 L 0.550781 136.988281 Z M 0.550781 107 " clip-rule="nonzero"/></clipPath><clipPath id="7c06b58b19"><path d="M 30 107 L 66 107 L 66 136.988281 L 30 136.988281 Z M 30 107 " clip-rule="nonzero"/></clipPath><clipPath id="1babff1e15"><path d="M 64 106 L 97 106 L 97 136.988281 L 64 136.988281 Z M 64 106 " clip-rule="nonzero"/></clipPath><clipPath id="941800efc8"><path d="M 100 107 L 131 107 L 131 136.988281 L 100 136.988281 Z M 100 107 " clip-rule="nonzero"/></clipPath><clipPath id="eb1c626882"><path d="M 136 107 L 163 107 L 163 136.988281 L 136 136.988281 Z M 136 107 " clip-rule="nonzero"/></clipPath><clipPath id="87525d1acd"><path d="M 167 107 L 194 107 L 194 136.988281 L 167 136.988281 Z M 167 107 " clip-rule="nonzero"/></clipPath><clipPath id="5635094921"><path d="M 192 106 L 227 106 L 227 136.988281 L 192 136.988281 Z M 192 106 " clip-rule="nonzero"/></clipPath><clipPath id="0d9be047f9"><path d="M 230 107 L 260 107 L 260 136.988281 L 230 136.988281 Z M 230 107 " clip-rule="nonzero"/></clipPath><clipPath id="85c797da48"><path d="M 286 107 L 315 107 L 315 136.988281 L 286 136.988281 Z M 286 107 " clip-rule="nonzero"/></clipPath><clipPath id="247977807a"><path d="M 310 107 L 346 107 L 346 136.988281 L 310 136.988281 Z M 310 107 " clip-rule="nonzero"/></clipPath><clipPath id="7a142d7f05"><path d="M 348 107 L 378 107 L 378 136.988281 L 348 136.988281 Z M 348 107 " clip-rule="nonzero"/></clipPath><clipPath id="de5d93eb99"><path d="M 378 107 L 410 107 L 410 136.988281 L 378 136.988281 Z M 378 107 " clip-rule="nonzero"/></clipPath><clipPath id="561bf5b52e"><path d="M 410 107 L 444.835938 107 L 444.835938 136.988281 L 410 136.988281 Z M 410 107 " clip-rule="nonzero"/></clipPath></defs><g clip-path="url(#59da86211f)"><path fill="#ffffff" d="M 0.550781 91.929688 L 29.746094 91.929688 C 38.765625 91.929688 44.738281 87.417969 44.738281 79.738281 C 44.738281 74.375 41.386719 70.597656 36.816406 69.132812 C 39.863281 67.914062 43.335938 65.113281 43.335938 59.6875 C 43.335938 52.25 38.035156 48.167969 28.648438 48.167969 L 0.550781 48.167969 Z M 8.046875 66.269531 L 8.046875 54.75 L 27.917969 54.75 C 32.914062 54.75 35.964844 56.640625 35.964844 60.480469 C 35.964844 64.320312 32.914062 66.269531 27.917969 66.269531 Z M 8.046875 72.851562 L 29.320312 72.851562 C 34.257812 72.851562 37.242188 75.414062 37.242188 79.070312 C 37.242188 82.785156 34.257812 85.347656 29.320312 85.347656 L 8.046875 85.347656 Z M 8.046875 72.851562 " fill-opacity="1" fill-rule="nonzero"/></g><path fill="#ffffff" d="M 70.949219 92.539062 C 86.429688 92.539062 93.132812 83.640625 93.132812 70.78125 L 93.132812 48.167969 L 85.332031 48.167969 L 85.332031 70.535156 C 85.332031 79.3125 81.855469 85.652344 70.949219 85.652344 C 60.039062 85.652344 56.5625 79.3125 56.5625 70.535156 L 56.5625 48.167969 L 48.761719 48.167969 L 48.761719 70.78125 C 48.761719 83.640625 55.464844 92.539062 70.949219 92.539062 Z M 70.949219 92.539062 " fill-opacity="1" fill-rule="nonzero"/><g clip-path="url(#bb866422aa)"><path fill="#ffffff" d="M 97.460938 70.046875 C 97.460938 83.03125 108.554688 92.601562 123.242188 92.601562 C 134.394531 92.601562 142.746094 87.480469 146.097656 79.070312 L 139.636719 75.535156 C 136.832031 82.117188 131.226562 85.710938 123.300781 85.710938 C 113.003906 85.710938 105.445312 79.375 105.445312 70.046875 C 105.445312 60.722656 113.003906 54.386719 123.300781 54.386719 C 131.226562 54.386719 136.832031 57.980469 139.636719 64.5625 L 146.097656 61.027344 C 142.746094 52.617188 134.394531 47.496094 123.242188 47.496094 C 108.554688 47.496094 97.460938 57.066406 97.460938 70.046875 Z M 97.460938 70.046875 " fill-opacity="1" fill-rule="nonzero"/></g><path fill="#ffffff" d="M 188.335938 48.167969 L 188.335938 65.964844 L 158.59375 65.964844 L 158.59375 48.167969 L 150.789062 48.167969 L 150.789062 91.929688 L 158.59375 91.929688 L 158.59375 72.792969 L 188.335938 72.792969 L 188.335938 91.929688 L 196.136719 91.929688 L 196.136719 48.167969 Z M 188.335938 48.167969 " fill-opacity="1" fill-rule="nonzero"/><path fill="#ffffff" d="M 222.222656 48.167969 L 199.914062 91.929688 L 208.265625 91.929688 L 213.808594 80.957031 L 239.226562 80.957031 L 244.773438 91.929688 L 253.0625 91.929688 L 230.816406 48.167969 Z M 226.546875 55.847656 L 235.8125 74.132812 L 217.285156 74.132812 Z M 226.546875 55.847656 " fill-opacity="1" fill-rule="nonzero"/><path fill="#ffffff" d="M 264.703125 74.984375 L 281.828125 74.984375 L 292.496094 91.929688 L 301.394531 91.929688 L 290.058594 74.316406 C 296.335938 72.667969 300.296875 68.34375 300.296875 61.578125 C 300.296875 52.738281 293.714844 48.167969 284.144531 48.167969 L 256.902344 48.167969 L 256.902344 91.929688 L 264.703125 91.929688 Z M 264.703125 68.28125 L 264.703125 54.871094 L 283.71875 54.871094 C 289.324219 54.871094 292.617188 57.25 292.617188 61.578125 C 292.617188 65.84375 289.324219 68.28125 283.71875 68.28125 Z M 264.703125 68.28125 " fill-opacity="1" fill-rule="nonzero"/><path fill="#ffffff" d="M 305.78125 48.167969 L 305.78125 91.929688 L 348.082031 91.929688 L 348.082031 85.101562 L 313.460938 85.101562 L 313.460938 72.792969 L 344.605469 72.792969 L 344.605469 65.964844 L 313.460938 65.964844 L 313.460938 54.996094 L 348.082031 54.996094 L 348.082031 48.167969 Z M 305.78125 48.167969 " fill-opacity="1" fill-rule="nonzero"/><g clip-path="url(#25658bf998)"><path fill="#ffffff" d="M 350.214844 81.507812 C 354.296875 88.148438 364.292969 92.601562 375.078125 92.601562 C 386.964844 92.601562 396.410156 87.722656 396.410156 78.398438 C 396.410156 69.074219 388.183594 67.609375 374.898438 66.085938 C 363.4375 64.746094 360.636719 63.894531 360.636719 60.417969 C 360.636719 57.25 364.292969 54.261719 372.945312 54.261719 C 380.566406 54.261719 386.660156 56.882812 389.828125 61.578125 L 395.4375 56.882812 C 391.71875 51.15625 382.941406 47.496094 373.25 47.496094 C 361.0625 47.496094 353.261719 53.289062 353.261719 61.210938 C 353.261719 69.742188 361.183594 71.574219 372.335938 72.851562 C 385.136719 74.316406 388.792969 74.679688 388.792969 79.3125 C 388.792969 83.214844 383.125 85.835938 375.261719 85.835938 C 368.679688 85.835938 360.757812 83.640625 355.820312 76.328125 Z M 350.214844 81.507812 " fill-opacity="1" fill-rule="nonzero"/></g><g clip-path="url(#2204f27ce4)"><path fill="#ffffff" d="M 444.746094 54.996094 L 444.746094 48.167969 L 397.449219 48.167969 L 397.449219 54.996094 L 417.195312 54.996094 L 417.195312 91.929688 L 424.996094 91.929688 L 424.996094 54.996094 Z M 444.746094 54.996094 " fill-opacity="1" fill-rule="nonzero"/></g><g clip-path="url(#9b30ae6ac9)"><path fill="#ffffff" d="M 0.71875 136.5 L 20.082031 136.5 C 25.949219 136.5 29.847656 133.546875 29.847656 128.460938 C 29.847656 124.601562 27.261719 121.976562 23.691406 121.117188 C 26.152344 120.378906 28.78125 118.488281 28.78125 114.632812 C 28.78125 109.75 25.25 107.042969 19.136719 107.042969 L 0.71875 107.042969 Z M 3.507812 120.050781 L 3.507812 109.503906 L 18.933594 109.503906 C 23.324219 109.503906 26.03125 111.226562 26.03125 114.796875 C 26.03125 118.324219 23.324219 120.050781 18.933594 120.050781 Z M 3.507812 122.550781 L 20 122.550781 C 24.429688 122.550781 27.058594 124.847656 27.058594 128.296875 C 27.058594 131.742188 24.429688 134.039062 20 134.039062 L 3.507812 134.039062 Z M 3.507812 122.550781 " fill-opacity="1" fill-rule="nonzero"/></g><g clip-path="url(#7c06b58b19)"><path fill="#ffffff" d="M 46.421875 107.042969 L 30.460938 136.5 L 33.539062 136.5 L 38.296875 127.679688 L 57.578125 127.679688 L 62.339844 136.5 L 65.414062 136.5 L 49.496094 107.042969 Z M 47.9375 109.832031 L 56.226562 125.175781 L 39.652344 125.175781 Z M 47.9375 109.832031 " fill-opacity="1" fill-rule="nonzero"/></g><g clip-path="url(#1babff1e15)"><path fill="#ffffff" d="M 64.226562 121.773438 C 64.226562 130.675781 71.527344 136.910156 81.292969 136.910156 C 89.128906 136.910156 94.585938 132.890625 96.554688 127.023438 L 94.09375 125.792969 C 92.410156 130.960938 87.980469 134.324219 81.332031 134.324219 C 73.085938 134.324219 67.140625 129.238281 67.140625 121.773438 C 67.140625 114.304688 73.085938 109.21875 81.332031 109.21875 C 87.980469 109.21875 92.410156 112.582031 94.09375 117.75 L 96.554688 116.519531 C 94.585938 110.652344 89.128906 106.632812 81.292969 106.632812 C 71.527344 106.632812 64.226562 112.871094 64.226562 121.773438 Z M 64.226562 121.773438 " fill-opacity="1" fill-rule="nonzero"/></g><g clip-path="url(#941800efc8)"><path fill="#ffffff" d="M 127.242188 107.042969 L 127.242188 120.007812 L 103.242188 120.007812 L 103.242188 107.042969 L 100.371094 107.042969 L 100.371094 136.5 L 103.242188 136.5 L 103.242188 122.511719 L 127.242188 122.511719 L 127.242188 136.5 L 130.113281 136.5 L 130.113281 107.042969 Z M 127.242188 107.042969 " fill-opacity="1" fill-rule="nonzero"/></g><g clip-path="url(#eb1c626882)"><path fill="#ffffff" d="M 136.433594 107.042969 L 136.433594 136.5 L 162.851562 136.5 L 162.851562 133.996094 L 139.261719 133.996094 L 139.261719 122.511719 L 160.472656 122.511719 L 160.472656 120.007812 L 139.261719 120.007812 L 139.261719 109.546875 L 162.851562 109.546875 L 162.851562 107.042969 Z M 136.433594 107.042969 " fill-opacity="1" fill-rule="nonzero"/></g><g clip-path="url(#87525d1acd)"><path fill="#ffffff" d="M 167.695312 136.5 L 193.664062 136.5 L 193.664062 133.996094 L 170.566406 133.996094 L 170.566406 107.042969 L 167.695312 107.042969 Z M 167.695312 136.5 " fill-opacity="1" fill-rule="nonzero"/></g><g clip-path="url(#5635094921)"><path fill="#ffffff" d="M 209.375 106.632812 C 199.613281 106.632812 192.390625 112.871094 192.390625 121.773438 C 192.390625 130.675781 199.613281 136.910156 209.375 136.910156 C 219.140625 136.910156 226.363281 130.675781 226.363281 121.773438 C 226.363281 112.871094 219.140625 106.632812 209.375 106.632812 Z M 209.375 109.21875 C 217.621094 109.21875 223.449219 114.304688 223.449219 121.773438 C 223.449219 129.238281 217.621094 134.324219 209.375 134.324219 C 201.171875 134.324219 195.304688 129.238281 195.304688 121.773438 C 195.304688 114.304688 201.171875 109.21875 209.375 109.21875 Z M 209.375 109.21875 " fill-opacity="1" fill-rule="nonzero"/></g><g clip-path="url(#0d9be047f9)"><path fill="#ffffff" d="M 233.539062 123.371094 L 247.203125 123.371094 L 256.433594 136.5 L 259.757812 136.5 L 250.445312 123.332031 C 255.652344 122.921875 259.222656 120.089844 259.222656 115.207031 C 259.222656 109.792969 255.121094 107.042969 249.171875 107.042969 L 230.667969 107.042969 L 230.667969 136.5 L 233.539062 136.5 Z M 233.539062 120.871094 L 233.539062 109.546875 L 248.964844 109.546875 C 253.5625 109.546875 256.390625 111.515625 256.390625 115.207031 C 256.390625 118.816406 253.5625 120.871094 248.964844 120.871094 Z M 233.539062 120.871094 " fill-opacity="1" fill-rule="nonzero"/></g><g clip-path="url(#85c797da48)"><path fill="#ffffff" d="M 289.652344 123.675781 L 304.503906 123.675781 C 310.453125 123.675781 314.515625 120.761719 314.515625 115.511719 C 314.515625 110.09375 310.492188 107.34375 304.503906 107.34375 L 286.78125 107.34375 L 286.78125 136.800781 L 289.652344 136.800781 Z M 289.652344 121.171875 L 289.652344 109.847656 L 304.300781 109.847656 C 308.894531 109.847656 311.683594 111.816406 311.683594 115.511719 C 311.683594 119.121094 308.894531 121.171875 304.300781 121.171875 Z M 289.652344 121.171875 " fill-opacity="1" fill-rule="nonzero"/></g><g clip-path="url(#247977807a)"><path fill="#ffffff" d="M 326.738281 107.34375 L 310.777344 136.800781 L 313.855469 136.800781 L 318.617188 127.980469 L 337.898438 127.980469 L 342.65625 136.800781 L 345.734375 136.800781 L 329.816406 107.34375 Z M 328.257812 110.136719 L 336.542969 125.480469 L 319.96875 125.480469 Z M 328.257812 110.136719 " fill-opacity="1" fill-rule="nonzero"/></g><g clip-path="url(#7a142d7f05)"><path fill="#ffffff" d="M 351.558594 123.675781 L 365.222656 123.675781 L 374.453125 136.800781 L 377.777344 136.800781 L 368.460938 123.632812 C 373.671875 123.222656 377.242188 120.390625 377.242188 115.511719 C 377.242188 110.09375 373.140625 107.34375 367.191406 107.34375 L 348.6875 107.34375 L 348.6875 136.800781 L 351.558594 136.800781 Z M 351.558594 121.171875 L 351.558594 109.847656 L 366.984375 109.847656 C 371.582031 109.847656 374.410156 111.816406 374.410156 115.511719 C 374.410156 119.121094 371.582031 121.171875 366.984375 121.171875 Z M 351.558594 121.171875 " fill-opacity="1" fill-rule="nonzero"/></g><g clip-path="url(#de5d93eb99)"><path fill="#ffffff" d="M 409.941406 109.847656 L 409.941406 107.34375 L 378.308594 107.34375 L 378.308594 109.847656 L 392.707031 109.847656 L 392.707031 136.800781 L 395.582031 136.800781 L 395.582031 109.847656 Z M 409.941406 109.847656 " fill-opacity="1" fill-rule="nonzero"/></g><g clip-path="url(#561bf5b52e)"><path fill="#ffffff" d="M 427.621094 121.664062 L 414.125 107.34375 L 410.472656 107.34375 L 426.144531 123.960938 L 426.144531 136.800781 L 429.015625 136.800781 L 429.015625 123.960938 L 444.6875 107.34375 L 441.121094 107.34375 Z M 427.621094 121.664062 " fill-opacity="1" fill-rule="nonzero"/></g></svg>