<svg xmlns="http://www.w3.org/2000/svg" xmlns:xlink="http://www.w3.org/1999/xlink" width="595" zoomAndPan="magnify" viewBox="0 0 446.25 185.249993" height="247" preserveAspectRatio="xMidYMid meet" version="1.0"><defs><clipPath id="fba37c6ed0"><path d="M 121 14.003906 L 443 14.003906 L 443 138 L 121 138 Z M 121 14.003906 " clip-rule="nonzero"/></clipPath><clipPath id="546e734c3c"><path d="M 0.527344 36 L 45 36 L 45 87 L 0.527344 87 Z M 0.527344 36 " clip-rule="nonzero"/></clipPath></defs><path fill="#ffffff" d="M 73.699219 107.636719 L 73.699219 95.828125 L 77.691406 95.828125 C 78.617188 95.828125 79.375 95.996094 79.964844 96.328125 C 80.554688 96.660156 80.996094 97.109375 81.277344 97.671875 C 81.5625 98.238281 81.707031 98.867188 81.707031 99.566406 C 81.707031 100.261719 81.5625 100.894531 81.277344 101.460938 C 81 102.03125 80.5625 102.484375 79.976562 102.824219 C 79.386719 103.15625 78.632812 103.324219 77.714844 103.324219 L 74.855469 103.324219 L 74.855469 102.054688 L 77.667969 102.054688 C 78.304688 102.054688 78.8125 101.945312 79.195312 101.726562 C 79.582031 101.507812 79.859375 101.210938 80.03125 100.839844 C 80.210938 100.460938 80.296875 100.039062 80.296875 99.566406 C 80.296875 99.09375 80.210938 98.667969 80.03125 98.296875 C 79.859375 97.921875 79.578125 97.628906 79.191406 97.417969 C 78.800781 97.203125 78.289062 97.097656 77.644531 97.097656 L 75.132812 97.097656 L 75.132812 107.636719 Z M 73.699219 107.636719 " fill-opacity="1" fill-rule="nonzero"/><path fill="#ffffff" d="M 82.40625 107.636719 L 82.40625 98.78125 L 83.71875 98.78125 L 83.71875 100.117188 L 83.8125 100.117188 C 83.972656 99.679688 84.265625 99.324219 84.6875 99.050781 C 85.113281 98.777344 85.589844 98.640625 86.121094 98.640625 C 86.21875 98.640625 86.34375 98.644531 86.496094 98.648438 C 86.644531 98.652344 86.757812 98.65625 86.835938 98.664062 L 86.835938 100.050781 C 86.789062 100.039062 86.683594 100.019531 86.515625 99.996094 C 86.355469 99.96875 86.183594 99.957031 86.003906 99.957031 C 85.574219 99.957031 85.1875 100.046875 84.851562 100.226562 C 84.515625 100.40625 84.25 100.652344 84.054688 100.964844 C 83.863281 101.277344 83.765625 101.632812 83.765625 102.03125 L 83.765625 107.636719 Z M 82.40625 107.636719 " fill-opacity="1" fill-rule="nonzero"/><path fill="#ffffff" d="M 90.996094 107.824219 C 90.195312 107.824219 89.492188 107.632812 88.890625 107.253906 C 88.289062 106.871094 87.820312 106.339844 87.480469 105.65625 C 87.148438 104.96875 86.980469 104.171875 86.980469 103.253906 C 86.980469 102.332031 87.148438 101.527344 87.480469 100.839844 C 87.820312 100.152344 88.289062 99.617188 88.890625 99.234375 C 89.492188 98.855469 90.195312 98.664062 90.996094 98.664062 C 91.792969 98.664062 92.492188 98.855469 93.09375 99.234375 C 93.695312 99.617188 94.167969 100.152344 94.5 100.839844 C 94.839844 101.527344 95.007812 102.332031 95.007812 103.253906 C 95.007812 104.171875 94.839844 104.96875 94.5 105.65625 C 94.167969 106.339844 93.695312 106.871094 93.09375 107.253906 C 92.492188 107.632812 91.792969 107.824219 90.996094 107.824219 Z M 90.996094 106.601562 C 91.601562 106.601562 92.101562 106.445312 92.492188 106.132812 C 92.886719 105.820312 93.175781 105.414062 93.363281 104.90625 C 93.554688 104.398438 93.648438 103.847656 93.648438 103.253906 C 93.648438 102.664062 93.554688 102.113281 93.363281 101.601562 C 93.175781 101.089844 92.886719 100.675781 92.492188 100.359375 C 92.101562 100.046875 91.601562 99.886719 90.996094 99.886719 C 90.386719 99.886719 89.886719 100.046875 89.496094 100.359375 C 89.101562 100.675781 88.8125 101.089844 88.625 101.601562 C 88.4375 102.113281 88.339844 102.664062 88.339844 103.253906 C 88.339844 103.847656 88.4375 104.398438 88.625 104.90625 C 88.8125 105.414062 89.101562 105.820312 89.496094 106.132812 C 89.886719 106.445312 90.386719 106.601562 90.996094 106.601562 Z M 90.996094 106.601562 " fill-opacity="1" fill-rule="nonzero"/><path fill="#ffffff" d="M 100.933594 107.824219 C 100.195312 107.824219 99.542969 107.636719 98.976562 107.261719 C 98.410156 106.886719 97.96875 106.355469 97.652344 105.671875 C 97.332031 104.984375 97.171875 104.171875 97.171875 103.234375 C 97.171875 102.300781 97.332031 101.496094 97.652344 100.808594 C 97.96875 100.125 98.414062 99.597656 98.984375 99.222656 C 99.550781 98.851562 100.210938 98.664062 100.957031 98.664062 C 101.53125 98.664062 101.988281 98.761719 102.320312 98.953125 C 102.660156 99.140625 102.917969 99.355469 103.09375 99.597656 C 103.277344 99.835938 103.414062 100.035156 103.515625 100.1875 L 103.632812 100.1875 L 103.632812 95.828125 L 104.992188 95.828125 L 104.992188 107.636719 L 103.675781 107.636719 L 103.675781 106.277344 L 103.515625 106.277344 C 103.414062 106.4375 103.273438 106.644531 103.089844 106.890625 C 102.90625 107.132812 102.640625 107.347656 102.300781 107.539062 C 101.957031 107.730469 101.5 107.824219 100.933594 107.824219 Z M 101.117188 106.601562 C 101.664062 106.601562 102.125 106.457031 102.5 106.171875 C 102.878906 105.886719 103.164062 105.488281 103.359375 104.980469 C 103.554688 104.46875 103.652344 103.878906 103.652344 103.210938 C 103.652344 102.546875 103.558594 101.96875 103.367188 101.472656 C 103.171875 100.972656 102.890625 100.585938 102.511719 100.308594 C 102.136719 100.027344 101.671875 99.886719 101.117188 99.886719 C 100.539062 99.886719 100.058594 100.035156 99.675781 100.332031 C 99.292969 100.625 99.007812 101.023438 98.816406 101.527344 C 98.628906 102.023438 98.53125 102.585938 98.53125 103.210938 C 98.53125 103.839844 98.628906 104.414062 98.820312 104.929688 C 99.015625 105.4375 99.304688 105.847656 99.6875 106.152344 C 100.070312 106.449219 100.546875 106.601562 101.117188 106.601562 Z M 101.117188 106.601562 " fill-opacity="1" fill-rule="nonzero"/><path fill="#ffffff" d="M 113.683594 104.015625 L 113.683594 98.78125 L 115.042969 98.78125 L 115.042969 107.636719 L 113.683594 107.636719 L 113.683594 106.140625 L 113.589844 106.140625 C 113.382812 106.589844 113.058594 106.972656 112.621094 107.285156 C 112.183594 107.597656 111.628906 107.753906 110.960938 107.753906 C 110.40625 107.753906 109.914062 107.632812 109.484375 107.390625 C 109.054688 107.144531 108.714844 106.777344 108.46875 106.285156 C 108.222656 105.789062 108.097656 105.164062 108.097656 104.410156 L 108.097656 98.78125 L 109.460938 98.78125 L 109.460938 104.316406 C 109.460938 104.960938 109.640625 105.476562 110.003906 105.863281 C 110.367188 106.246094 110.832031 106.4375 111.398438 106.4375 C 111.738281 106.4375 112.082031 106.351562 112.429688 106.179688 C 112.785156 106.007812 113.082031 105.742188 113.320312 105.382812 C 113.5625 105.027344 113.683594 104.570312 113.683594 104.015625 Z M 113.683594 104.015625 " fill-opacity="1" fill-rule="nonzero"/><path fill="#ffffff" d="M 121.238281 107.824219 C 120.40625 107.824219 119.691406 107.628906 119.089844 107.234375 C 118.492188 106.84375 118.03125 106.300781 117.707031 105.613281 C 117.382812 104.925781 117.222656 104.140625 117.222656 103.253906 C 117.222656 102.355469 117.386719 101.5625 117.71875 100.875 C 118.054688 100.183594 118.519531 99.640625 119.113281 99.253906 C 119.714844 98.859375 120.414062 98.664062 121.214844 98.664062 C 121.835938 98.664062 122.398438 98.78125 122.898438 99.011719 C 123.398438 99.242188 123.804688 99.566406 124.125 99.980469 C 124.445312 100.394531 124.644531 100.878906 124.71875 101.433594 L 123.359375 101.433594 C 123.253906 101.03125 123.023438 100.671875 122.667969 100.359375 C 122.3125 100.046875 121.835938 99.886719 121.238281 99.886719 C 120.707031 99.886719 120.242188 100.027344 119.839844 100.304688 C 119.445312 100.574219 119.136719 100.960938 118.914062 101.460938 C 118.691406 101.957031 118.582031 102.539062 118.582031 103.210938 C 118.582031 103.894531 118.691406 104.488281 118.90625 104.996094 C 119.125 105.503906 119.433594 105.898438 119.828125 106.179688 C 120.230469 106.460938 120.699219 106.601562 121.238281 106.601562 C 121.589844 106.601562 121.910156 106.539062 122.199219 106.417969 C 122.488281 106.292969 122.730469 106.117188 122.933594 105.886719 C 123.132812 105.65625 123.273438 105.378906 123.359375 105.054688 L 124.71875 105.054688 C 124.644531 105.578125 124.453125 106.050781 124.148438 106.46875 C 123.847656 106.882812 123.449219 107.214844 122.953125 107.460938 C 122.460938 107.703125 121.890625 107.824219 121.238281 107.824219 Z M 121.238281 107.824219 " fill-opacity="1" fill-rule="nonzero"/><path fill="#ffffff" d="M 130.4375 107.847656 C 129.875 107.847656 129.363281 107.742188 128.90625 107.527344 C 128.449219 107.3125 128.085938 107.003906 127.816406 106.601562 C 127.546875 106.191406 127.414062 105.699219 127.414062 105.125 C 127.414062 104.617188 127.515625 104.207031 127.714844 103.890625 C 127.914062 103.570312 128.183594 103.320312 128.515625 103.140625 C 128.851562 102.960938 129.21875 102.824219 129.621094 102.738281 C 130.03125 102.644531 130.441406 102.570312 130.851562 102.515625 C 131.390625 102.449219 131.828125 102.394531 132.160156 102.363281 C 132.5 102.324219 132.746094 102.261719 132.898438 102.171875 C 133.058594 102.082031 133.136719 101.929688 133.136719 101.710938 L 133.136719 101.664062 C 133.136719 101.09375 132.980469 100.652344 132.667969 100.335938 C 132.359375 100.023438 131.894531 99.863281 131.265625 99.863281 C 130.617188 99.863281 130.105469 100.007812 129.738281 100.292969 C 129.371094 100.574219 129.109375 100.878906 128.960938 101.203125 L 127.667969 100.742188 C 127.898438 100.203125 128.207031 99.785156 128.589844 99.484375 C 128.980469 99.179688 129.402344 98.96875 129.859375 98.847656 C 130.320312 98.726562 130.773438 98.664062 131.21875 98.664062 C 131.503906 98.664062 131.832031 98.699219 132.199219 98.769531 C 132.574219 98.835938 132.933594 98.96875 133.28125 99.179688 C 133.628906 99.386719 133.917969 99.699219 134.148438 100.117188 C 134.382812 100.539062 134.496094 101.097656 134.496094 101.800781 L 134.496094 107.636719 L 133.136719 107.636719 L 133.136719 106.4375 L 133.066406 106.4375 C 132.972656 106.632812 132.820312 106.835938 132.605469 107.054688 C 132.390625 107.273438 132.101562 107.460938 131.746094 107.617188 C 131.386719 107.769531 130.949219 107.847656 130.4375 107.847656 Z M 130.644531 106.625 C 131.183594 106.625 131.636719 106.519531 132.003906 106.304688 C 132.378906 106.09375 132.660156 105.820312 132.847656 105.488281 C 133.039062 105.152344 133.136719 104.800781 133.136719 104.433594 L 133.136719 103.1875 C 133.078125 103.253906 132.949219 103.320312 132.753906 103.375 C 132.5625 103.429688 132.339844 103.480469 132.085938 103.519531 C 131.835938 103.558594 131.59375 103.59375 131.351562 103.625 C 131.117188 103.652344 130.929688 103.675781 130.78125 103.695312 C 130.429688 103.738281 130.097656 103.816406 129.789062 103.917969 C 129.488281 104.019531 129.242188 104.171875 129.050781 104.375 C 128.867188 104.574219 128.773438 104.847656 128.773438 105.191406 C 128.773438 105.667969 128.949219 106.023438 129.300781 106.265625 C 129.652344 106.503906 130.101562 106.625 130.644531 106.625 Z M 132.445312 95.828125 L 133.710938 95.828125 C 133.710938 96.449219 133.496094 96.960938 133.066406 97.355469 C 132.636719 97.75 132.050781 97.949219 131.3125 97.949219 C 130.585938 97.949219 130.007812 97.75 129.578125 97.355469 C 129.152344 96.960938 128.9375 96.449219 128.9375 95.828125 L 130.203125 95.828125 C 130.203125 96.128906 130.289062 96.390625 130.453125 96.617188 C 130.625 96.84375 130.910156 96.957031 131.3125 96.957031 C 131.714844 96.957031 132.003906 96.84375 132.179688 96.617188 C 132.355469 96.390625 132.445312 96.128906 132.445312 95.828125 Z M 132.445312 95.828125 " fill-opacity="1" fill-rule="nonzero"/><path fill="#ffffff" d="M 142.195312 98.78125 L 142.195312 99.933594 L 137.601562 99.933594 L 137.601562 98.78125 Z M 138.941406 96.65625 L 140.300781 96.65625 L 140.300781 105.101562 C 140.300781 105.484375 140.359375 105.773438 140.46875 105.964844 C 140.585938 106.15625 140.730469 106.28125 140.90625 106.347656 C 141.089844 106.410156 141.277344 106.4375 141.480469 106.4375 C 141.628906 106.4375 141.75 106.429688 141.847656 106.417969 C 141.945312 106.398438 142.019531 106.382812 142.078125 106.371094 L 142.355469 107.59375 C 142.261719 107.628906 142.132812 107.660156 141.96875 107.695312 C 141.804688 107.734375 141.59375 107.753906 141.339844 107.753906 C 140.957031 107.753906 140.578125 107.671875 140.210938 107.507812 C 139.84375 107.339844 139.539062 107.089844 139.300781 106.75 C 139.058594 106.414062 138.941406 105.984375 138.941406 105.46875 Z M 138.941406 96.65625 " fill-opacity="1" fill-rule="nonzero"/><path fill="#ffffff" d="M 146.609375 107.824219 C 145.808594 107.824219 145.105469 107.632812 144.503906 107.253906 C 143.902344 106.871094 143.433594 106.339844 143.097656 105.65625 C 142.761719 104.96875 142.59375 104.171875 142.59375 103.253906 C 142.59375 102.332031 142.761719 101.527344 143.097656 100.839844 C 143.433594 100.152344 143.902344 99.617188 144.503906 99.234375 C 145.105469 98.855469 145.808594 98.664062 146.609375 98.664062 C 147.40625 98.664062 148.109375 98.855469 148.707031 99.234375 C 149.3125 99.617188 149.78125 100.152344 150.113281 100.839844 C 150.453125 101.527344 150.621094 102.332031 150.621094 103.253906 C 150.621094 104.171875 150.453125 104.96875 150.113281 105.65625 C 149.78125 106.339844 149.3125 106.871094 148.707031 107.253906 C 148.109375 107.632812 147.40625 107.824219 146.609375 107.824219 Z M 146.609375 106.601562 C 147.214844 106.601562 147.714844 106.445312 148.109375 106.132812 C 148.5 105.820312 148.789062 105.414062 148.976562 104.90625 C 149.167969 104.398438 149.261719 103.847656 149.261719 103.253906 C 149.261719 102.664062 149.167969 102.113281 148.976562 101.601562 C 148.789062 101.089844 148.5 100.675781 148.109375 100.359375 C 147.714844 100.046875 147.214844 99.886719 146.609375 99.886719 C 146 99.886719 145.5 100.046875 145.109375 100.359375 C 144.714844 100.675781 144.425781 101.089844 144.238281 101.601562 C 144.050781 102.113281 143.953125 102.664062 143.953125 103.253906 C 143.953125 103.847656 144.050781 104.398438 144.238281 104.90625 C 144.425781 105.414062 144.714844 105.820312 145.109375 106.132812 C 145.5 106.445312 146 106.601562 146.609375 106.601562 Z M 146.609375 106.601562 " fill-opacity="1" fill-rule="nonzero"/><path fill="#ffffff" d="M 153.199219 107.636719 L 153.199219 98.78125 L 154.515625 98.78125 L 154.515625 100.117188 L 154.605469 100.117188 C 154.765625 99.679688 155.058594 99.324219 155.480469 99.050781 C 155.90625 98.777344 156.382812 98.640625 156.914062 98.640625 C 157.011719 98.640625 157.136719 98.644531 157.285156 98.648438 C 157.4375 98.652344 157.550781 98.65625 157.628906 98.664062 L 157.628906 100.050781 C 157.582031 100.039062 157.476562 100.019531 157.3125 99.996094 C 157.148438 99.96875 156.976562 99.957031 156.796875 99.957031 C 156.367188 99.957031 155.980469 100.046875 155.644531 100.226562 C 155.308594 100.40625 155.042969 100.652344 154.847656 100.964844 C 154.65625 101.277344 154.558594 101.632812 154.558594 102.03125 L 154.558594 107.636719 Z M 153.199219 107.636719 " fill-opacity="1" fill-rule="nonzero"/><path fill="#ffffff" d="M 163.765625 104.015625 L 163.765625 98.78125 L 165.128906 98.78125 L 165.128906 107.636719 L 163.765625 107.636719 L 163.765625 106.140625 L 163.675781 106.140625 C 163.464844 106.589844 163.144531 106.972656 162.707031 107.285156 C 162.265625 107.597656 161.714844 107.753906 161.046875 107.753906 C 160.492188 107.753906 160 107.632812 159.566406 107.390625 C 159.136719 107.144531 158.800781 106.777344 158.554688 106.285156 C 158.308594 105.789062 158.183594 105.164062 158.183594 104.410156 L 158.183594 98.78125 L 159.546875 98.78125 L 159.546875 104.316406 C 159.546875 104.960938 159.726562 105.476562 160.085938 105.863281 C 160.453125 106.246094 160.917969 106.4375 161.484375 106.4375 C 161.820312 106.4375 162.164062 106.351562 162.515625 106.179688 C 162.867188 106.007812 163.164062 105.742188 163.402344 105.382812 C 163.644531 105.027344 163.765625 104.570312 163.765625 104.015625 Z M 163.765625 104.015625 " fill-opacity="1" fill-rule="nonzero"/><path fill="#ffffff" d="M 167.726562 95.828125 L 169.085938 95.828125 L 169.085938 107.636719 L 167.726562 107.636719 Z M 167.726562 95.828125 " fill-opacity="1" fill-rule="nonzero"/><path fill="#ffffff" d="M 179.804688 98.78125 L 179.804688 99.933594 L 175.214844 99.933594 L 175.214844 98.78125 Z M 176.554688 96.65625 L 177.914062 96.65625 L 177.914062 105.101562 C 177.914062 105.484375 177.96875 105.773438 178.082031 105.964844 C 178.195312 106.15625 178.34375 106.28125 178.519531 106.347656 C 178.699219 106.410156 178.890625 106.4375 179.089844 106.4375 C 179.242188 106.4375 179.363281 106.429688 179.460938 106.417969 C 179.554688 106.398438 179.632812 106.382812 179.691406 106.371094 L 179.964844 107.59375 C 179.875 107.628906 179.746094 107.660156 179.582031 107.695312 C 179.414062 107.734375 179.207031 107.753906 178.953125 107.753906 C 178.566406 107.753906 178.191406 107.671875 177.820312 107.507812 C 177.457031 107.339844 177.152344 107.089844 176.910156 106.75 C 176.671875 106.414062 176.554688 105.984375 176.554688 105.46875 Z M 176.554688 96.65625 " fill-opacity="1" fill-rule="nonzero"/><path fill="#ffffff" d="M 183.226562 107.847656 C 182.664062 107.847656 182.15625 107.742188 181.699219 107.527344 C 181.242188 107.3125 180.878906 107.003906 180.609375 106.601562 C 180.339844 106.191406 180.207031 105.699219 180.207031 105.125 C 180.207031 104.617188 180.304688 104.207031 180.503906 103.890625 C 180.707031 103.570312 180.972656 103.320312 181.308594 103.140625 C 181.640625 102.960938 182.011719 102.824219 182.414062 102.738281 C 182.824219 102.644531 183.230469 102.570312 183.640625 102.515625 C 184.179688 102.449219 184.617188 102.394531 184.953125 102.363281 C 185.289062 102.324219 185.535156 102.261719 185.691406 102.171875 C 185.847656 102.082031 185.925781 101.929688 185.925781 101.710938 L 185.925781 101.664062 C 185.925781 101.09375 185.769531 100.652344 185.460938 100.335938 C 185.152344 100.023438 184.683594 99.863281 184.058594 99.863281 C 183.410156 99.863281 182.898438 100.007812 182.53125 100.292969 C 182.160156 100.574219 181.902344 100.878906 181.75 101.203125 L 180.460938 100.742188 C 180.691406 100.203125 181 99.785156 181.382812 99.484375 C 181.769531 99.179688 182.195312 98.96875 182.652344 98.847656 C 183.113281 98.726562 183.566406 98.664062 184.011719 98.664062 C 184.296875 98.664062 184.625 98.699219 184.992188 98.769531 C 185.363281 98.835938 185.722656 98.96875 186.070312 99.179688 C 186.421875 99.386719 186.710938 99.699219 186.941406 100.117188 C 187.171875 100.539062 187.289062 101.097656 187.289062 101.800781 L 187.289062 107.636719 L 185.925781 107.636719 L 185.925781 106.4375 L 185.855469 106.4375 C 185.765625 106.632812 185.613281 106.835938 185.394531 107.054688 C 185.179688 107.273438 184.894531 107.460938 184.535156 107.617188 C 184.179688 107.769531 183.742188 107.847656 183.226562 107.847656 Z M 183.4375 106.625 C 183.972656 106.625 184.425781 106.519531 184.796875 106.304688 C 185.167969 106.09375 185.449219 105.820312 185.636719 105.488281 C 185.832031 105.152344 185.925781 104.800781 185.925781 104.433594 L 185.925781 103.1875 C 185.871094 103.253906 185.742188 103.320312 185.546875 103.375 C 185.355469 103.429688 185.132812 103.480469 184.875 103.519531 C 184.628906 103.558594 184.382812 103.59375 184.144531 103.625 C 183.910156 103.652344 183.71875 103.675781 183.574219 103.695312 C 183.21875 103.738281 182.890625 103.816406 182.582031 103.917969 C 182.277344 104.019531 182.03125 104.171875 181.84375 104.375 C 181.660156 104.574219 181.566406 104.847656 181.566406 105.191406 C 181.566406 105.667969 181.742188 106.023438 182.089844 106.265625 C 182.445312 106.503906 182.894531 106.625 183.4375 106.625 Z M 185.234375 95.828125 L 186.503906 95.828125 C 186.503906 96.449219 186.289062 96.960938 185.855469 97.355469 C 185.425781 97.75 184.84375 97.949219 184.105469 97.949219 C 183.378906 97.949219 182.796875 97.75 182.367188 97.355469 C 181.941406 96.960938 181.726562 96.449219 181.726562 95.828125 L 182.996094 95.828125 C 182.996094 96.128906 183.078125 96.390625 183.246094 96.617188 C 183.414062 96.84375 183.699219 96.957031 184.105469 96.957031 C 184.507812 96.957031 184.796875 96.84375 184.96875 96.617188 C 185.144531 96.390625 185.234375 96.128906 185.234375 95.828125 Z M 185.234375 95.828125 " fill-opacity="1" fill-rule="nonzero"/><path fill="#ffffff" d="M 196.714844 104.015625 L 196.714844 98.78125 L 198.074219 98.78125 L 198.074219 107.636719 L 196.714844 107.636719 L 196.714844 106.140625 L 196.621094 106.140625 C 196.414062 106.589844 196.09375 106.972656 195.65625 107.285156 C 195.214844 107.597656 194.660156 107.753906 193.992188 107.753906 C 193.441406 107.753906 192.949219 107.632812 192.515625 107.390625 C 192.085938 107.144531 191.746094 106.777344 191.503906 106.285156 C 191.253906 105.789062 191.132812 105.164062 191.132812 104.410156 L 191.132812 98.78125 L 192.492188 98.78125 L 192.492188 104.316406 C 192.492188 104.960938 192.675781 105.476562 193.035156 105.863281 C 193.402344 106.246094 193.867188 106.4375 194.429688 106.4375 C 194.769531 106.4375 195.113281 106.351562 195.464844 106.179688 C 195.816406 106.007812 196.113281 105.742188 196.351562 105.382812 C 196.59375 105.027344 196.714844 104.570312 196.714844 104.015625 Z M 196.714844 104.015625 " fill-opacity="1" fill-rule="nonzero"/><path fill="#ffffff" d="M 208.5625 107.824219 C 207.824219 107.824219 207.171875 107.636719 206.605469 107.261719 C 206.042969 106.886719 205.601562 106.355469 205.28125 105.671875 C 204.960938 104.984375 204.800781 104.171875 204.800781 103.234375 C 204.800781 102.300781 204.960938 101.496094 205.28125 100.808594 C 205.601562 100.125 206.042969 99.597656 206.613281 99.222656 C 207.179688 98.851562 207.839844 98.664062 208.585938 98.664062 C 209.160156 98.664062 209.617188 98.761719 209.953125 98.953125 C 210.289062 99.140625 210.546875 99.355469 210.722656 99.597656 C 210.90625 99.835938 211.046875 100.035156 211.144531 100.1875 L 211.261719 100.1875 L 211.261719 95.828125 L 212.621094 95.828125 L 212.621094 107.636719 L 211.308594 107.636719 L 211.308594 106.277344 L 211.144531 106.277344 C 211.046875 106.4375 210.902344 106.644531 210.71875 106.890625 C 210.535156 107.132812 210.269531 107.347656 209.929688 107.539062 C 209.585938 107.730469 209.128906 107.824219 208.5625 107.824219 Z M 208.746094 106.601562 C 209.292969 106.601562 209.753906 106.457031 210.128906 106.171875 C 210.507812 105.886719 210.792969 105.488281 210.988281 104.980469 C 211.1875 104.46875 211.285156 103.878906 211.285156 103.210938 C 211.285156 102.546875 211.1875 101.96875 210.996094 101.472656 C 210.804688 100.972656 210.519531 100.585938 210.140625 100.308594 C 209.765625 100.027344 209.300781 99.886719 208.746094 99.886719 C 208.171875 99.886719 207.691406 100.035156 207.304688 100.332031 C 206.925781 100.625 206.636719 101.023438 206.445312 101.527344 C 206.257812 102.023438 206.164062 102.585938 206.164062 103.210938 C 206.164062 103.839844 206.257812 104.414062 206.453125 104.929688 C 206.648438 105.4375 206.9375 105.847656 207.316406 106.152344 C 207.699219 106.449219 208.179688 106.601562 208.746094 106.601562 Z M 208.746094 106.601562 " fill-opacity="1" fill-rule="nonzero"/><path fill="#ffffff" d="M 219.449219 107.824219 C 218.59375 107.824219 217.855469 107.636719 217.238281 107.257812 C 216.621094 106.878906 216.148438 106.347656 215.8125 105.667969 C 215.484375 104.980469 215.316406 104.1875 215.316406 103.277344 C 215.316406 102.371094 215.484375 101.570312 215.8125 100.878906 C 216.148438 100.183594 216.613281 99.640625 217.210938 99.253906 C 217.808594 98.859375 218.511719 98.664062 219.308594 98.664062 C 219.769531 98.664062 220.226562 98.742188 220.675781 98.894531 C 221.125 99.050781 221.535156 99.300781 221.902344 99.644531 C 222.273438 99.988281 222.566406 100.441406 222.785156 101.007812 C 223.003906 101.570312 223.113281 102.269531 223.113281 103.09375 L 223.113281 103.671875 L 216.289062 103.671875 L 216.289062 102.496094 L 221.730469 102.496094 C 221.730469 101.996094 221.632812 101.546875 221.433594 101.15625 C 221.234375 100.765625 220.953125 100.453125 220.589844 100.226562 C 220.226562 100 219.800781 99.886719 219.308594 99.886719 C 218.765625 99.886719 218.296875 100.023438 217.902344 100.292969 C 217.507812 100.558594 217.207031 100.902344 216.996094 101.328125 C 216.785156 101.757812 216.679688 102.214844 216.679688 102.703125 L 216.679688 103.488281 C 216.679688 104.15625 216.792969 104.722656 217.023438 105.1875 C 217.261719 105.648438 217.582031 106 218 106.242188 C 218.414062 106.480469 218.898438 106.601562 219.449219 106.601562 C 219.804688 106.601562 220.128906 106.550781 220.417969 106.449219 C 220.707031 106.347656 220.960938 106.191406 221.171875 105.988281 C 221.382812 105.78125 221.546875 105.523438 221.664062 105.214844 L 222.976562 105.585938 C 222.839844 106.03125 222.605469 106.421875 222.277344 106.761719 C 221.953125 107.097656 221.546875 107.359375 221.066406 107.546875 C 220.589844 107.730469 220.046875 107.824219 219.449219 107.824219 Z M 219.449219 107.824219 " fill-opacity="1" fill-rule="nonzero"/><path fill="#ffffff" d="M 233.074219 107.847656 C 232.511719 107.847656 232.003906 107.742188 231.542969 107.527344 C 231.085938 107.3125 230.722656 107.003906 230.453125 106.601562 C 230.183594 106.191406 230.050781 105.699219 230.050781 105.125 C 230.050781 104.617188 230.152344 104.207031 230.351562 103.890625 C 230.550781 103.570312 230.816406 103.320312 231.152344 103.140625 C 231.484375 102.960938 231.855469 102.824219 232.261719 102.738281 C 232.667969 102.644531 233.078125 102.570312 233.488281 102.515625 C 234.027344 102.449219 234.460938 102.394531 234.796875 102.363281 C 235.136719 102.324219 235.382812 102.261719 235.535156 102.171875 C 235.691406 102.082031 235.773438 101.929688 235.773438 101.710938 L 235.773438 101.664062 C 235.773438 101.09375 235.617188 100.652344 235.304688 100.335938 C 234.996094 100.023438 234.53125 99.863281 233.902344 99.863281 C 233.253906 99.863281 232.746094 100.007812 232.375 100.292969 C 232.003906 100.574219 231.746094 100.878906 231.597656 101.203125 L 230.304688 100.742188 C 230.535156 100.203125 230.84375 99.785156 231.226562 99.484375 C 231.613281 99.179688 232.039062 98.96875 232.496094 98.851562 C 232.957031 98.726562 233.410156 98.664062 233.855469 98.664062 C 234.140625 98.664062 234.46875 98.699219 234.835938 98.769531 C 235.210938 98.835938 235.570312 98.972656 235.914062 99.179688 C 236.265625 99.386719 236.554688 99.699219 236.785156 100.117188 C 237.015625 100.539062 237.132812 101.097656 237.132812 101.800781 L 237.132812 107.636719 L 235.773438 107.636719 L 235.773438 106.4375 L 235.703125 106.4375 C 235.609375 106.632812 235.457031 106.835938 235.242188 107.054688 C 235.027344 107.273438 234.738281 107.460938 234.382812 107.617188 C 234.023438 107.769531 233.589844 107.847656 233.074219 107.847656 Z M 233.28125 106.625 C 233.820312 106.625 234.273438 106.519531 234.640625 106.304688 C 235.015625 106.09375 235.292969 105.820312 235.484375 105.488281 C 235.675781 105.152344 235.773438 104.800781 235.773438 104.433594 L 235.773438 103.1875 C 235.714844 103.253906 235.585938 103.320312 235.390625 103.375 C 235.199219 103.429688 234.976562 103.480469 234.722656 103.519531 C 234.472656 103.558594 234.226562 103.59375 233.988281 103.625 C 233.753906 103.652344 233.5625 103.675781 233.417969 103.695312 C 233.066406 103.738281 232.734375 103.816406 232.425781 103.917969 C 232.125 104.019531 231.875 104.171875 231.6875 104.375 C 231.503906 104.574219 231.410156 104.847656 231.410156 105.195312 C 231.410156 105.667969 231.585938 106.023438 231.9375 106.265625 C 232.289062 106.503906 232.738281 106.625 233.28125 106.625 Z M 233.28125 106.625 " fill-opacity="1" fill-rule="nonzero"/><path fill="#ffffff" d="M 240.980469 107.636719 L 240.980469 98.78125 L 242.296875 98.78125 L 242.296875 100.164062 L 242.410156 100.164062 C 242.597656 99.691406 242.894531 99.324219 243.304688 99.0625 C 243.714844 98.796875 244.210938 98.664062 244.789062 98.664062 C 245.371094 98.664062 245.859375 98.796875 246.246094 99.0625 C 246.636719 99.324219 246.945312 99.691406 247.164062 100.164062 L 247.253906 100.164062 C 247.484375 99.707031 247.824219 99.34375 248.277344 99.074219 C 248.730469 98.800781 249.273438 98.664062 249.910156 98.664062 C 250.699219 98.664062 251.347656 98.914062 251.851562 99.410156 C 252.355469 99.902344 252.609375 100.667969 252.609375 101.710938 L 252.609375 107.636719 L 251.246094 107.636719 L 251.246094 101.710938 C 251.246094 101.054688 251.066406 100.589844 250.710938 100.308594 C 250.351562 100.027344 249.933594 99.886719 249.449219 99.886719 C 248.824219 99.886719 248.34375 100.074219 248 100.453125 C 247.65625 100.824219 247.488281 101.296875 247.488281 101.871094 L 247.488281 107.636719 L 246.101562 107.636719 L 246.101562 101.570312 C 246.101562 101.066406 245.941406 100.664062 245.613281 100.355469 C 245.285156 100.042969 244.863281 99.886719 244.351562 99.886719 C 243.996094 99.886719 243.664062 99.980469 243.355469 100.171875 C 243.054688 100.359375 242.808594 100.621094 242.621094 100.953125 C 242.433594 101.285156 242.34375 101.667969 242.34375 102.101562 L 242.34375 107.636719 Z M 240.980469 107.636719 " fill-opacity="1" fill-rule="nonzero"/><path fill="#ffffff" d="M 256.226562 107.636719 L 256.226562 95.828125 L 257.589844 95.828125 L 257.589844 100.1875 L 257.703125 100.1875 C 257.804688 100.035156 257.941406 99.835938 258.121094 99.597656 C 258.300781 99.355469 258.558594 99.140625 258.890625 98.953125 C 259.230469 98.761719 259.6875 98.664062 260.265625 98.664062 C 261.011719 98.664062 261.667969 98.851562 262.238281 99.222656 C 262.808594 99.597656 263.25 100.125 263.570312 100.808594 C 263.890625 101.496094 264.050781 102.300781 264.050781 103.234375 C 264.050781 104.171875 263.890625 104.984375 263.570312 105.671875 C 263.25 106.355469 262.808594 106.886719 262.242188 107.261719 C 261.679688 107.636719 261.027344 107.824219 260.289062 107.824219 C 259.71875 107.824219 259.265625 107.730469 258.921875 107.539062 C 258.578125 107.347656 258.316406 107.132812 258.132812 106.890625 C 257.945312 106.644531 257.804688 106.4375 257.703125 106.277344 L 257.542969 106.277344 L 257.542969 107.636719 Z M 257.566406 103.210938 C 257.566406 103.878906 257.664062 104.46875 257.859375 104.980469 C 258.054688 105.488281 258.34375 105.886719 258.71875 106.171875 C 259.097656 106.457031 259.558594 106.601562 260.105469 106.601562 C 260.671875 106.601562 261.148438 106.449219 261.527344 106.152344 C 261.914062 105.847656 262.199219 105.4375 262.394531 104.929688 C 262.589844 104.414062 262.6875 103.839844 262.6875 103.210938 C 262.6875 102.585938 262.589844 102.023438 262.398438 101.527344 C 262.210938 101.023438 261.925781 100.625 261.539062 100.332031 C 261.160156 100.035156 260.679688 99.886719 260.105469 99.886719 C 259.550781 99.886719 259.085938 100.027344 258.707031 100.308594 C 258.332031 100.585938 258.046875 100.972656 257.855469 101.472656 C 257.664062 101.96875 257.566406 102.546875 257.566406 103.210938 Z M 257.566406 103.210938 " fill-opacity="1" fill-rule="nonzero"/><path fill="#ffffff" d="M 269.164062 107.847656 C 268.601562 107.847656 268.09375 107.742188 267.636719 107.527344 C 267.175781 107.3125 266.816406 107.003906 266.546875 106.601562 C 266.277344 106.191406 266.140625 105.699219 266.140625 105.125 C 266.140625 104.617188 266.242188 104.207031 266.441406 103.890625 C 266.640625 103.570312 266.910156 103.320312 267.242188 103.140625 C 267.578125 102.960938 267.945312 102.824219 268.351562 102.738281 C 268.757812 102.644531 269.167969 102.570312 269.578125 102.515625 C 270.117188 102.449219 270.554688 102.394531 270.886719 102.363281 C 271.226562 102.324219 271.472656 102.261719 271.625 102.171875 C 271.785156 102.082031 271.863281 101.929688 271.863281 101.710938 L 271.863281 101.664062 C 271.863281 101.09375 271.707031 100.652344 271.394531 100.335938 C 271.085938 100.023438 270.621094 99.863281 269.996094 99.863281 C 269.34375 99.863281 268.835938 100.007812 268.464844 100.292969 C 268.097656 100.574219 267.835938 100.878906 267.6875 101.203125 L 266.394531 100.742188 C 266.625 100.203125 266.933594 99.785156 267.316406 99.484375 C 267.707031 99.179688 268.128906 98.96875 268.585938 98.851562 C 269.046875 98.726562 269.503906 98.664062 269.949219 98.664062 C 270.230469 98.664062 270.558594 98.699219 270.929688 98.769531 C 271.300781 98.835938 271.660156 98.972656 272.007812 99.179688 C 272.355469 99.386719 272.648438 99.699219 272.878906 100.117188 C 273.109375 100.539062 273.222656 101.097656 273.222656 101.800781 L 273.222656 107.636719 L 271.863281 107.636719 L 271.863281 106.4375 L 271.792969 106.4375 C 271.699219 106.632812 271.546875 106.835938 271.332031 107.054688 C 271.117188 107.273438 270.832031 107.460938 270.472656 107.617188 C 270.113281 107.769531 269.679688 107.847656 269.164062 107.847656 Z M 269.371094 106.625 C 269.910156 106.625 270.363281 106.519531 270.730469 106.304688 C 271.105469 106.09375 271.386719 105.820312 271.574219 105.488281 C 271.765625 105.152344 271.863281 104.800781 271.863281 104.433594 L 271.863281 103.1875 C 271.804688 103.253906 271.679688 103.320312 271.480469 103.375 C 271.289062 103.429688 271.066406 103.480469 270.8125 103.519531 C 270.5625 103.558594 270.320312 103.59375 270.082031 103.625 C 269.84375 103.652344 269.65625 103.675781 269.511719 103.695312 C 269.15625 103.738281 268.824219 103.816406 268.515625 103.917969 C 268.214844 104.019531 267.96875 104.171875 267.78125 104.375 C 267.59375 104.574219 267.503906 104.847656 267.503906 105.195312 C 267.503906 105.667969 267.675781 106.023438 268.027344 106.265625 C 268.378906 106.503906 268.828125 106.625 269.371094 106.625 Z M 269.371094 106.625 " fill-opacity="1" fill-rule="nonzero"/><path fill="#ffffff" d="M 277.074219 95.828125 L 278.433594 95.828125 L 278.433594 107.636719 L 277.074219 107.636719 Z M 277.074219 95.828125 " fill-opacity="1" fill-rule="nonzero"/><path fill="#ffffff" d="M 283.367188 107.847656 C 282.808594 107.847656 282.296875 107.742188 281.839844 107.527344 C 281.382812 107.3125 281.019531 107.003906 280.75 106.601562 C 280.480469 106.191406 280.34375 105.699219 280.34375 105.125 C 280.34375 104.617188 280.445312 104.207031 280.644531 103.890625 C 280.84375 103.570312 281.113281 103.320312 281.445312 103.140625 C 281.78125 102.960938 282.152344 102.824219 282.554688 102.738281 C 282.960938 102.644531 283.371094 102.570312 283.78125 102.515625 C 284.320312 102.449219 284.757812 102.394531 285.089844 102.363281 C 285.429688 102.324219 285.675781 102.261719 285.828125 102.171875 C 285.988281 102.082031 286.066406 101.929688 286.066406 101.710938 L 286.066406 101.664062 C 286.066406 101.09375 285.910156 100.652344 285.601562 100.335938 C 285.292969 100.023438 284.824219 99.863281 284.199219 99.863281 C 283.546875 99.863281 283.039062 100.007812 282.671875 100.292969 C 282.300781 100.574219 282.042969 100.878906 281.890625 101.203125 L 280.597656 100.742188 C 280.828125 100.203125 281.136719 99.785156 281.523438 99.484375 C 281.910156 99.179688 282.332031 98.96875 282.789062 98.851562 C 283.253906 98.726562 283.707031 98.664062 284.152344 98.664062 C 284.4375 98.664062 284.761719 98.699219 285.132812 98.769531 C 285.503906 98.835938 285.863281 98.972656 286.210938 99.179688 C 286.558594 99.386719 286.851562 99.699219 287.082031 100.117188 C 287.3125 100.539062 287.425781 101.097656 287.425781 101.800781 L 287.425781 107.636719 L 286.066406 107.636719 L 286.066406 106.4375 L 285.996094 106.4375 C 285.90625 106.632812 285.75 106.835938 285.535156 107.054688 C 285.320312 107.273438 285.035156 107.460938 284.675781 107.617188 C 284.320312 107.769531 283.882812 107.847656 283.367188 107.847656 Z M 283.574219 106.625 C 284.113281 106.625 284.566406 106.519531 284.9375 106.304688 C 285.308594 106.09375 285.589844 105.820312 285.777344 105.488281 C 285.96875 105.152344 286.066406 104.800781 286.066406 104.433594 L 286.066406 103.1875 C 286.007812 103.253906 285.882812 103.320312 285.6875 103.375 C 285.492188 103.429688 285.269531 103.480469 285.015625 103.519531 C 284.765625 103.558594 284.523438 103.59375 284.285156 103.625 C 284.050781 103.652344 283.859375 103.675781 283.714844 103.695312 C 283.359375 103.738281 283.03125 103.816406 282.722656 103.917969 C 282.417969 104.019531 282.171875 104.171875 281.984375 104.375 C 281.800781 104.574219 281.707031 104.847656 281.707031 105.195312 C 281.707031 105.667969 281.882812 106.023438 282.230469 106.265625 C 282.585938 106.503906 283.035156 106.625 283.574219 106.625 Z M 283.574219 106.625 " fill-opacity="1" fill-rule="nonzero"/><path fill="#ffffff" d="M 291.273438 98.78125 L 292.632812 98.78125 L 292.632812 108.285156 C 292.632812 108.832031 292.539062 109.304688 292.351562 109.703125 C 292.167969 110.101562 291.886719 110.414062 291.511719 110.632812 C 291.136719 110.851562 290.667969 110.960938 290.097656 110.960938 C 290.050781 110.960938 290.003906 110.960938 289.957031 110.960938 C 289.914062 110.960938 289.867188 110.960938 289.820312 110.960938 L 289.820312 109.691406 C 289.867188 109.691406 289.910156 109.691406 289.949219 109.691406 C 289.984375 109.691406 290.027344 109.691406 290.074219 109.691406 C 290.488281 109.691406 290.792969 109.570312 290.984375 109.324219 C 291.179688 109.082031 291.273438 108.734375 291.273438 108.285156 Z M 291.941406 97.304688 C 291.679688 97.304688 291.449219 97.214844 291.257812 97.03125 C 291.066406 96.851562 290.972656 96.636719 290.972656 96.382812 C 290.972656 96.128906 291.066406 95.910156 291.257812 95.730469 C 291.449219 95.550781 291.679688 95.457031 291.941406 95.457031 C 292.207031 95.457031 292.433594 95.550781 292.625 95.730469 C 292.816406 95.910156 292.914062 96.128906 292.914062 96.382812 C 292.914062 96.636719 292.816406 96.851562 292.625 97.03125 C 292.433594 97.214844 292.207031 97.304688 291.941406 97.304688 Z M 291.941406 97.304688 " fill-opacity="1" fill-rule="nonzero"/><path fill="#ffffff" d="M 299.003906 107.824219 C 298.148438 107.824219 297.414062 107.636719 296.792969 107.257812 C 296.179688 106.878906 295.703125 106.347656 295.371094 105.667969 C 295.039062 104.980469 294.875 104.1875 294.875 103.277344 C 294.875 102.371094 295.039062 101.570312 295.371094 100.878906 C 295.703125 100.183594 296.167969 99.640625 296.765625 99.253906 C 297.367188 98.859375 298.066406 98.664062 298.863281 98.664062 C 299.324219 98.664062 299.78125 98.742188 300.230469 98.894531 C 300.679688 99.050781 301.089844 99.300781 301.460938 99.644531 C 301.828125 99.988281 302.121094 100.441406 302.34375 101.007812 C 302.5625 101.570312 302.671875 102.269531 302.671875 103.09375 L 302.671875 103.671875 L 295.84375 103.671875 L 295.84375 102.496094 L 301.285156 102.496094 C 301.285156 101.996094 301.1875 101.546875 300.988281 101.15625 C 300.789062 100.765625 300.511719 100.453125 300.144531 100.226562 C 299.78125 100 299.355469 99.886719 298.863281 99.886719 C 298.320312 99.886719 297.855469 100.023438 297.457031 100.292969 C 297.066406 100.558594 296.761719 100.902344 296.550781 101.328125 C 296.339844 101.757812 296.234375 102.214844 296.234375 102.703125 L 296.234375 103.488281 C 296.234375 104.15625 296.351562 104.722656 296.582031 105.1875 C 296.816406 105.648438 297.140625 106 297.554688 106.242188 C 297.96875 106.480469 298.453125 106.601562 299.003906 106.601562 C 299.359375 106.601562 299.683594 106.550781 299.972656 106.449219 C 300.261719 106.347656 300.515625 106.191406 300.726562 105.988281 C 300.9375 105.78125 301.101562 105.523438 301.21875 105.214844 L 302.53125 105.585938 C 302.394531 106.03125 302.160156 106.421875 301.835938 106.761719 C 301.507812 107.097656 301.105469 107.359375 300.621094 107.546875 C 300.140625 107.730469 299.601562 107.824219 299.003906 107.824219 Z M 299.003906 107.824219 " fill-opacity="1" fill-rule="nonzero"/><g clip-path="url(#fba37c6ed0)"><path fill="#ffffff" d="M 442.441406 68.773438 L 442.441406 76.21875 C 442.367188 80.992188 442.027344 85.597656 440.585938 89.855469 C 437.019531 100.445312 424.726562 97.492188 416.539062 97.492188 L 367.75 97.492188 C 362.957031 97.492188 356.105469 103.976562 352.664062 108.40625 C 352 109.257812 351.699219 109.496094 351.050781 110.25 L 347.917969 114.066406 C 347.34375 114.742188 347.019531 115.003906 346.417969 115.746094 C 345.902344 116.382812 345.339844 116.910156 344.753906 117.523438 L 339.757812 122.230469 C 337.179688 124.28125 334.6875 125.570312 331.832031 127.335938 C 330.417969 128.214844 329.214844 128.789062 327.824219 129.679688 C 322.992188 132.757812 310.5 137.828125 305.089844 137.828125 L 146.710938 137.828125 C 141.050781 138.492188 121.144531 128.175781 121.972656 120.714844 C 132.511719 125.648438 136.207031 125.546875 147.324219 126.210938 L 306.242188 126.210938 C 308.820312 126.210938 315.933594 123.882812 318.472656 122.816406 C 323.921875 120.527344 333.808594 113.839844 338.292969 109.898438 C 342.523438 106.179688 343.261719 104.628906 346.316406 101.246094 C 349.347656 97.902344 351.023438 95.664062 354.34375 92.296875 C 356.796875 89.804688 360.6875 87.148438 364.972656 87.085938 C 369.964844 87.011719 379.253906 87.414062 383.511719 87.136719 C 384.738281 87.0625 384.703125 87.476562 384.363281 84.109375 C 383.613281 76.535156 383.710938 76.871094 383.710938 69.386719 C 383.710938 66.316406 384.402344 64.742188 384.402344 61.75 L 367.75 61.75 C 362.53125 61.75 360.601562 60.683594 357.335938 58.105469 C 354.816406 56.113281 350.109375 51.417969 348.042969 48.691406 L 335.714844 35.042969 C 333.210938 32.441406 330.742188 30.023438 328.027344 27.785156 C 320.125 21.261719 313.628906 17.816406 304.464844 16.140625 C 301.523438 15.601562 298.84375 16.703125 298.84375 15.015625 C 298.84375 13.75 300.121094 13.976562 301.136719 14.113281 C 311.851562 15.476562 322.179688 16.464844 332.132812 22.964844 C 345.089844 31.414062 346.292969 33.90625 356.632812 44.359375 C 364.371094 52.183594 364.167969 49.390625 369.640625 50.378906 C 371.304688 50.679688 373.609375 50.378906 375.363281 50.457031 C 376.550781 50.507812 376.789062 50.78125 378.117188 50.78125 L 409.800781 50.769531 C 415.910156 50.769531 427.554688 50.03125 432.449219 51.394531 C 439.148438 53.234375 442.441406 59.144531 442.441406 68.773438 Z M 431.5625 78.550781 L 431.5625 66.632812 C 431.5625 64.089844 433.3125 61.007812 435.027344 60.820312 C 435.417969 62.773438 437.105469 63.851562 437.105469 68.457031 C 437.105469 72.316406 437.46875 81.855469 436.34375 84.871094 C 435.855469 86.171875 434.527344 87.664062 433.402344 88.015625 C 431.9375 86.710938 431.5625 81.015625 431.5625 78.550781 Z M 431.5625 78.550781 " fill-opacity="1" fill-rule="evenodd"/></g><path fill="#ffffff" d="M 76.652344 61.625 C 76.652344 67.019531 77.378906 72.441406 79.917969 77.023438 C 82.097656 80.953125 85.578125 83.894531 90.199219 85.410156 C 97.132812 87.6875 107.011719 87.25 114.324219 84.695312 C 119.003906 83.054688 118.542969 82.140625 118.542969 76.710938 C 118.542969 75.007812 117.777344 73.703125 116.339844 74.003906 C 115.550781 74.167969 115.097656 74.417969 114.324219 74.644531 C 107.398438 76.695312 108.324219 76.945312 100.351562 76.945312 C 98.484375 76.945312 95.90625 76.144531 94.703125 75.417969 C 92.625 74.15625 92.328125 73.84375 91.25 71.6875 C 90.671875 70.523438 89.695312 66.855469 89.824219 65.941406 C 90.058594 64.238281 93.238281 65.214844 96.042969 65.214844 C 99.738281 65.214844 115.285156 65.515625 117.777344 64.929688 C 122.960938 63.703125 119.945312 51.546875 119.179688 49.265625 C 118.253906 46.5 116.902344 44.097656 114.898438 42.054688 C 113.109375 40.226562 110.453125 38.6875 107.6875 37.785156 C 99.335938 35.070312 87.679688 36.847656 82.199219 44.195312 C 78.515625 49.105469 76.652344 54.976562 76.652344 61.625 Z M 97.949219 45.824219 C 100.414062 45.824219 101.726562 45.609375 104.019531 46.9375 C 107.097656 48.726562 108.25 52.683594 108.25 56.589844 C 105.835938 57.152344 94.128906 56.828125 90.773438 56.828125 C 89.160156 56.828125 90.058594 54.3125 90.386719 53.324219 C 90.8125 52.035156 91.160156 50.78125 91.839844 49.753906 C 92.914062 48.113281 95.417969 45.824219 97.949219 45.824219 Z M 97.949219 45.824219 " fill-opacity="1" fill-rule="evenodd"/><g clip-path="url(#546e734c3c)"><path fill="#ffffff" d="M 0.535156 59.21875 C 0.535156 67.808594 0.457031 74.792969 6.929688 81.304688 C 10.949219 85.347656 18.511719 86.988281 24.234375 86.988281 C 28.515625 86.988281 36.265625 85.785156 39.882812 83.957031 C 41.660156 83.070312 42.046875 82.457031 42.199219 80.050781 C 42.898438 68.484375 38.628906 76.933594 27.113281 76.933594 L 23.757812 76.933594 C 19.511719 76.933594 15.40625 74.28125 14.230469 69.949219 C 12.503906 63.5625 14.21875 65.203125 16.09375 65.203125 L 39.304688 65.203125 C 41.222656 65.203125 42.261719 64.929688 43.210938 63.839844 C 45.804688 60.871094 43.964844 47.515625 38.65625 42.167969 C 32.757812 36.234375 21.242188 35.105469 13.078125 38.5 C 11.953125 38.964844 10.636719 39.925781 9.699219 40.628906 C 4.078125 44.785156 0.535156 52.046875 0.535156 59.21875 Z M 22.078125 45.824219 C 25.171875 45.824219 27.6875 46.125 29.714844 48.726562 C 31.757812 51.355469 31.894531 53.222656 31.894531 56.839844 L 14.417969 56.839844 C 12.992188 56.839844 13.730469 54.425781 14.03125 53.347656 C 15.09375 49.605469 17.636719 45.824219 22.078125 45.824219 Z M 22.078125 45.824219 " fill-opacity="1" fill-rule="evenodd"/></g><path fill="#ffffff" d="M 175.253906 28.347656 L 175.253906 37.6875 C 169.019531 37.6875 168.066406 36.496094 168.066406 43.910156 C 168.066406 49.152344 170.484375 47.976562 175.253906 47.976562 L 175.253906 67.609375 C 175.253906 75.21875 176.078125 82.742188 182.800781 85.421875 C 186.859375 87.039062 192.742188 87.25 196.863281 85.636719 C 199.855469 84.457031 199.902344 83.28125 199.902344 79.8125 C 199.902344 71.574219 197.148438 75.984375 193.917969 75.984375 C 187.335938 75.984375 188.171875 71.339844 188.171875 64.976562 C 188.171875 59.394531 188.171875 53.8125 188.171875 48.226562 C 192.027344 47.328125 197.4375 48.941406 198.816406 47.625 C 199.953125 46.539062 200.980469 37.699219 197.5 37.699219 L 188.160156 37.699219 L 188.160156 28.121094 C 188.160156 25.054688 182.089844 25.730469 179.308594 25.730469 C 177.320312 25.71875 175.253906 26.332031 175.253906 28.347656 Z M 175.253906 28.347656 " fill-opacity="1" fill-rule="evenodd"/><path fill="#ffffff" d="M 267.171875 61.859375 C 267.171875 71.289062 269.386719 81.277344 279.238281 85.222656 C 283.40625 86.886719 289.214844 87.425781 294.125 86.1875 C 303.4375 83.820312 303.789062 82.292969 303.789062 75.746094 C 303.789062 67.15625 299.644531 73.164062 295.8125 74.957031 C 291.019531 77.195312 284.871094 76.757812 282.003906 70.960938 C 279.3125 65.527344 278.425781 47.027344 290.15625 47.027344 C 296.390625 47.027344 299.46875 51.332031 301.410156 51.332031 C 304.703125 51.332031 303.527344 42.34375 302.835938 41.277344 C 302.074219 40.101562 299.132812 38.5625 297.480469 38.011719 C 290.492188 35.695312 282.09375 36.171875 276.535156 40.339844 C 269.8125 45.386719 267.171875 52.910156 267.171875 61.859375 Z M 267.171875 61.859375 " fill-opacity="1" fill-rule="evenodd"/><path fill="#ffffff" d="M 128.105469 59.945312 C 128.105469 63.851562 127.957031 68.058594 128.96875 71.765625 C 129.710938 74.417969 130.261719 75.457031 131.449219 77.660156 C 134.730469 83.757812 140.828125 86.234375 147.472656 86.773438 C 152.382812 87.175781 156.75 86.199219 161.058594 84.046875 C 165.140625 82.015625 164.488281 80.101562 164.488281 75.019531 C 164.488281 69.523438 162.296875 71.039062 159.628906 73.039062 C 158.492188 73.890625 157.628906 74.394531 156.351562 75.03125 C 154.023438 76.183594 150.589844 76.519531 147.636719 75.59375 C 144.921875 74.742188 143.417969 72.691406 142.492188 70.199219 C 139.625 62.472656 140.363281 47.011719 150.84375 47.011719 C 157.601562 47.011719 159.769531 51.320312 162.574219 51.320312 C 164.839844 51.320312 164.25 45.160156 164.25 43.183594 C 164.25 38.964844 155.097656 36.722656 151.566406 36.722656 C 146.183594 36.722656 140.476562 37.3125 136.542969 40.855469 C 135.96875 41.367188 135.59375 41.554688 135.105469 42.042969 C 130.722656 46.414062 128.105469 53.609375 128.105469 59.945312 Z M 128.105469 59.945312 " fill-opacity="1" fill-rule="evenodd"/><path fill="#ffffff" d="M 54.152344 19.019531 L 54.152344 83.167969 C 54.152344 86.460938 57.105469 85.710938 60.046875 86.148438 C 61.726562 86.398438 67.082031 85.984375 67.082031 84.359375 L 67.082031 18.054688 C 67.082031 17.09375 64.992188 16.378906 62.5 16.140625 L 58.921875 16.140625 C 56.328125 16.402344 54.152344 17.28125 54.152344 19.019531 Z M 54.152344 19.019531 " fill-opacity="1" fill-rule="evenodd"/><path fill="#ffffff" d="M 219.535156 44.144531 C 219.535156 42.554688 220.386719 38.914062 218.722656 38.023438 C 216.992188 37.097656 208.53125 36.871094 208.53125 39.125 L 208.53125 84.121094 C 208.53125 86.949219 219.023438 86.398438 220.660156 85.234375 C 221.902344 84.347656 221.464844 80.890625 221.464844 78.375 L 221.464844 63.050781 C 221.464844 60.898438 220.949219 57.339844 221.851562 55.777344 C 222.203125 55.175781 222.316406 55.1875 222.652344 54.664062 C 224.117188 52.382812 227.171875 48.691406 230.089844 48.691406 C 237.113281 48.691406 237.273438 54.136719 237.273438 39.589844 C 237.273438 36.160156 229.976562 36.058594 227.222656 37.421875 L 224.054688 39.527344 C 222.613281 40.816406 222.804688 40.453125 221.339844 42.320312 C 221.0625 42.679688 220.914062 42.917969 220.636719 43.296875 C 220.097656 44.007812 220.410156 43.910156 219.535156 44.144531 Z M 219.535156 44.144531 " fill-opacity="1" fill-rule="evenodd"/><path fill="#ffffff" d="M 244.675781 40.078125 L 244.675781 83.644531 C 244.675781 86.699219 251.886719 86.375 254.679688 85.984375 C 255.566406 85.859375 257.609375 85.421875 257.609375 84.371094 L 257.609375 39.601562 C 257.609375 38.1875 256.367188 37.835938 255.078125 37.574219 C 254.476562 37.449219 251.4375 37.199219 250.972656 37.261719 C 248.457031 37.574219 244.675781 37.160156 244.675781 40.078125 Z M 244.675781 40.078125 " fill-opacity="1" fill-rule="evenodd"/><path fill="#ffffff" d="M 243.707031 25.003906 C 243.707031 26.582031 244.421875 28.808594 245.269531 29.660156 C 247.4375 31.828125 254.484375 31.703125 256.925781 29.835938 C 258.96875 28.273438 259.230469 21.472656 257.0625 19.296875 C 254.972656 17.191406 246.773438 17.230469 245.019531 19.609375 C 244.269531 20.660156 243.707031 23.289062 243.707031 25.003906 Z M 243.707031 25.003906 " fill-opacity="1" fill-rule="evenodd"/><path fill="#ffffff" d="M 121.792969 163.832031 L 121.792969 146.699219 L 132.066406 146.699219 L 132.066406 148.539062 L 123.867188 148.539062 L 123.867188 154.328125 L 131.296875 154.328125 L 131.296875 156.171875 L 123.867188 156.171875 L 123.867188 163.832031 Z M 121.792969 163.832031 " fill-opacity="1" fill-rule="nonzero"/><path fill="#ffffff" d="M 136.3125 164.136719 C 135.5 164.136719 134.757812 163.980469 134.09375 163.675781 C 133.429688 163.363281 132.902344 162.914062 132.511719 162.328125 C 132.121094 161.734375 131.925781 161.023438 131.925781 160.1875 C 131.925781 159.449219 132.074219 158.851562 132.363281 158.394531 C 132.652344 157.933594 133.039062 157.570312 133.527344 157.308594 C 134.011719 157.046875 134.546875 156.851562 135.132812 156.722656 C 135.722656 156.589844 136.316406 156.480469 136.914062 156.402344 C 137.695312 156.304688 138.328125 156.230469 138.8125 156.179688 C 139.304688 156.121094 139.660156 156.03125 139.886719 155.902344 C 140.113281 155.773438 140.226562 155.550781 140.226562 155.234375 L 140.226562 155.164062 C 140.226562 154.339844 140 153.699219 139.550781 153.242188 C 139.105469 152.785156 138.425781 152.554688 137.515625 152.554688 C 136.574219 152.554688 135.835938 152.761719 135.300781 153.175781 C 134.765625 153.585938 134.386719 154.027344 134.167969 154.496094 L 132.296875 153.828125 C 132.632812 153.046875 133.078125 152.4375 133.636719 152.003906 C 134.199219 151.5625 134.8125 151.257812 135.476562 151.082031 C 136.144531 150.90625 136.800781 150.816406 137.449219 150.816406 C 137.863281 150.816406 138.335938 150.867188 138.871094 150.964844 C 139.414062 151.0625 139.933594 151.257812 140.4375 151.558594 C 140.945312 151.863281 141.363281 152.316406 141.699219 152.921875 C 142.035156 153.53125 142.203125 154.347656 142.203125 155.367188 L 142.203125 163.832031 L 140.226562 163.832031 L 140.226562 162.09375 L 140.125 162.09375 C 139.992188 162.371094 139.769531 162.671875 139.457031 162.988281 C 139.144531 163.304688 138.730469 163.578125 138.210938 163.800781 C 137.691406 164.023438 137.058594 164.136719 136.3125 164.136719 Z M 136.613281 162.359375 C 137.394531 162.359375 138.050781 162.207031 138.589844 161.902344 C 139.128906 161.59375 139.535156 161.199219 139.808594 160.714844 C 140.085938 160.226562 140.226562 159.714844 140.226562 159.183594 L 140.226562 157.375 C 140.144531 157.472656 139.960938 157.566406 139.675781 157.652344 C 139.398438 157.730469 139.074219 157.796875 138.703125 157.859375 C 138.34375 157.914062 137.988281 157.964844 137.644531 158.011719 C 137.300781 158.050781 137.027344 158.082031 136.8125 158.109375 C 136.300781 158.179688 135.820312 158.285156 135.375 158.4375 C 134.933594 158.582031 134.578125 158.804688 134.304688 159.097656 C 134.035156 159.390625 133.902344 159.785156 133.902344 160.285156 C 133.902344 160.972656 134.15625 161.492188 134.664062 161.84375 C 135.175781 162.1875 135.828125 162.359375 136.613281 162.359375 Z M 136.613281 162.359375 " fill-opacity="1" fill-rule="nonzero"/><path fill="#ffffff" d="M 148.050781 163.832031 L 148.050781 146.699219 L 150.027344 146.699219 L 150.027344 153.023438 L 150.191406 153.023438 C 150.339844 152.800781 150.539062 152.515625 150.796875 152.171875 C 151.058594 151.820312 151.429688 151.507812 151.914062 151.234375 C 152.40625 150.957031 153.070312 150.816406 153.90625 150.816406 C 154.988281 150.816406 155.945312 151.085938 156.769531 151.625 C 157.59375 152.167969 158.238281 152.933594 158.703125 153.929688 C 159.164062 154.921875 159.394531 156.09375 159.394531 157.441406 C 159.394531 158.804688 159.164062 159.980469 158.703125 160.980469 C 158.238281 161.972656 157.597656 162.742188 156.777344 163.289062 C 155.957031 163.832031 155.011719 164.101562 153.941406 164.101562 C 153.117188 164.101562 152.453125 163.964844 151.957031 163.691406 C 151.460938 163.414062 151.078125 163.097656 150.8125 162.746094 C 150.542969 162.386719 150.339844 162.09375 150.191406 161.859375 L 149.960938 161.859375 L 149.960938 163.832031 Z M 149.992188 157.40625 C 149.992188 158.378906 150.132812 159.234375 150.417969 159.976562 C 150.703125 160.714844 151.117188 161.289062 151.664062 161.707031 C 152.210938 162.121094 152.882812 162.328125 153.671875 162.328125 C 154.5 162.328125 155.1875 162.109375 155.738281 161.675781 C 156.296875 161.234375 156.714844 160.644531 156.996094 159.902344 C 157.277344 159.152344 157.421875 158.324219 157.421875 157.40625 C 157.421875 156.503906 157.28125 155.691406 157.003906 154.964844 C 156.730469 154.234375 156.3125 153.65625 155.757812 153.234375 C 155.203125 152.804688 154.511719 152.589844 153.671875 152.589844 C 152.871094 152.589844 152.195312 152.792969 151.648438 153.199219 C 151.101562 153.601562 150.6875 154.164062 150.410156 154.890625 C 150.132812 155.609375 149.992188 156.449219 149.992188 157.40625 Z M 149.992188 157.40625 " fill-opacity="1" fill-rule="nonzero"/><path fill="#ffffff" d="M 163.039062 163.832031 L 163.039062 150.984375 L 164.945312 150.984375 L 164.945312 152.921875 L 165.078125 152.921875 C 165.3125 152.289062 165.738281 151.773438 166.351562 151.375 C 166.964844 150.980469 167.65625 150.78125 168.425781 150.78125 C 168.570312 150.78125 168.753906 150.785156 168.96875 150.789062 C 169.1875 150.796875 169.351562 150.804688 169.464844 150.816406 L 169.464844 152.824219 C 169.398438 152.808594 169.242188 152.78125 169.003906 152.75 C 168.769531 152.710938 168.519531 152.691406 168.257812 152.691406 C 167.632812 152.691406 167.074219 152.820312 166.585938 153.082031 C 166.101562 153.339844 165.714844 153.695312 165.429688 154.15625 C 165.152344 154.605469 165.011719 155.121094 165.011719 155.703125 L 165.011719 163.832031 Z M 163.039062 163.832031 " fill-opacity="1" fill-rule="nonzero"/><path fill="#ffffff" d="M 170.277344 163.832031 L 170.277344 150.984375 L 172.25 150.984375 L 172.25 163.832031 Z M 171.28125 148.839844 C 170.898438 148.839844 170.5625 148.710938 170.285156 148.449219 C 170.011719 148.1875 169.875 147.871094 169.875 147.503906 C 169.875 147.136719 170.011719 146.820312 170.285156 146.558594 C 170.5625 146.292969 170.898438 146.164062 171.28125 146.164062 C 171.664062 146.164062 171.996094 146.292969 172.265625 146.558594 C 172.546875 146.820312 172.6875 147.136719 172.6875 147.503906 C 172.6875 147.871094 172.546875 148.1875 172.265625 148.449219 C 171.996094 148.710938 171.664062 148.839844 171.28125 148.839844 Z M 171.28125 148.839844 " fill-opacity="1" fill-rule="nonzero"/><path fill="#ffffff" d="M 180.839844 164.101562 C 179.636719 164.101562 178.597656 163.816406 177.726562 163.246094 C 176.859375 162.679688 176.1875 161.894531 175.71875 160.898438 C 175.253906 159.898438 175.015625 158.757812 175.015625 157.472656 C 175.015625 156.171875 175.257812 155.019531 175.738281 154.019531 C 176.222656 153.015625 176.898438 152.234375 177.761719 151.667969 C 178.632812 151.101562 179.644531 150.816406 180.808594 150.816406 C 181.710938 150.816406 182.523438 150.984375 183.25 151.316406 C 183.972656 151.652344 184.570312 152.121094 185.03125 152.722656 C 185.492188 153.324219 185.78125 154.027344 185.894531 154.832031 L 183.917969 154.832031 C 183.769531 154.246094 183.433594 153.726562 182.914062 153.277344 C 182.402344 152.820312 181.710938 152.589844 180.839844 152.589844 C 180.070312 152.589844 179.394531 152.789062 178.816406 153.191406 C 178.242188 153.585938 177.792969 154.148438 177.46875 154.871094 C 177.148438 155.59375 176.992188 156.4375 176.992188 157.40625 C 176.992188 158.402344 177.148438 159.265625 177.460938 160.003906 C 177.777344 160.738281 178.222656 161.308594 178.796875 161.71875 C 179.378906 162.125 180.058594 162.328125 180.839844 162.328125 C 181.351562 162.328125 181.820312 162.238281 182.238281 162.058594 C 182.65625 161.882812 183.007812 161.625 183.300781 161.289062 C 183.589844 160.953125 183.796875 160.554688 183.917969 160.085938 L 185.894531 160.085938 C 185.78125 160.84375 185.503906 161.527344 185.066406 162.136719 C 184.628906 162.738281 184.054688 163.21875 183.332031 163.574219 C 182.621094 163.925781 181.789062 164.101562 180.839844 164.101562 Z M 180.839844 164.101562 " fill-opacity="1" fill-rule="nonzero"/><path fill="#ffffff" d="M 194.1875 164.136719 C 193.371094 164.136719 192.632812 163.980469 191.96875 163.675781 C 191.308594 163.363281 190.78125 162.914062 190.390625 162.328125 C 190 161.734375 189.804688 161.023438 189.804688 160.1875 C 189.804688 159.449219 189.949219 158.851562 190.238281 158.394531 C 190.527344 157.933594 190.917969 157.570312 191.402344 157.308594 C 191.886719 157.046875 192.421875 156.851562 193.007812 156.722656 C 193.597656 156.589844 194.191406 156.480469 194.789062 156.402344 C 195.570312 156.304688 196.203125 156.230469 196.6875 156.179688 C 197.179688 156.121094 197.535156 156.03125 197.757812 155.902344 C 197.988281 155.773438 198.101562 155.550781 198.101562 155.234375 L 198.101562 155.164062 C 198.101562 154.339844 197.875 153.699219 197.425781 153.242188 C 196.976562 152.785156 196.300781 152.554688 195.390625 152.554688 C 194.449219 152.554688 193.710938 152.761719 193.175781 153.175781 C 192.640625 153.585938 192.261719 154.027344 192.046875 154.496094 L 190.171875 153.828125 C 190.503906 153.046875 190.953125 152.4375 191.507812 152.003906 C 192.074219 151.5625 192.6875 151.257812 193.351562 151.082031 C 194.019531 150.90625 194.679688 150.816406 195.324219 150.816406 C 195.738281 150.816406 196.210938 150.867188 196.746094 150.964844 C 197.289062 151.0625 197.808594 151.257812 198.3125 151.558594 C 198.820312 151.863281 199.242188 152.316406 199.574219 152.921875 C 199.910156 153.53125 200.078125 154.347656 200.078125 155.367188 L 200.078125 163.832031 L 198.101562 163.832031 L 198.101562 162.09375 L 198.003906 162.09375 C 197.867188 162.371094 197.644531 162.671875 197.332031 162.988281 C 197.019531 163.304688 196.605469 163.578125 196.085938 163.800781 C 195.566406 164.023438 194.933594 164.136719 194.1875 164.136719 Z M 194.488281 162.359375 C 195.269531 162.359375 195.925781 162.207031 196.460938 161.902344 C 197.003906 161.59375 197.410156 161.199219 197.683594 160.714844 C 197.964844 160.226562 198.101562 159.714844 198.101562 159.183594 L 198.101562 157.375 C 198.019531 157.472656 197.835938 157.566406 197.550781 157.652344 C 197.269531 157.730469 196.949219 157.796875 196.578125 157.859375 C 196.21875 157.914062 195.863281 157.964844 195.515625 158.011719 C 195.175781 158.050781 194.902344 158.082031 194.691406 158.109375 C 194.175781 158.179688 193.695312 158.285156 193.25 158.4375 C 192.808594 158.582031 192.453125 158.804688 192.179688 159.097656 C 191.910156 159.390625 191.777344 159.785156 191.777344 160.285156 C 191.777344 160.972656 192.03125 161.492188 192.539062 161.84375 C 193.050781 162.1875 193.703125 162.359375 194.488281 162.359375 Z M 194.488281 162.359375 " fill-opacity="1" fill-rule="nonzero"/><path fill="#ffffff" d="M 211.246094 150.984375 L 211.246094 152.65625 L 204.585938 152.65625 L 204.585938 150.984375 Z M 206.527344 147.90625 L 208.503906 147.90625 L 208.503906 160.152344 C 208.503906 160.710938 208.582031 161.128906 208.746094 161.40625 C 208.910156 161.679688 209.125 161.863281 209.378906 161.957031 C 209.640625 162.050781 209.917969 162.09375 210.207031 162.09375 C 210.425781 162.09375 210.605469 162.082031 210.746094 162.058594 C 210.882812 162.03125 210.996094 162.007812 211.078125 161.992188 L 211.480469 163.765625 C 211.347656 163.816406 211.160156 163.867188 210.917969 163.917969 C 210.679688 163.972656 210.375 164 210.007812 164 C 209.449219 164 208.902344 163.878906 208.367188 163.640625 C 207.839844 163.402344 207.398438 163.035156 207.046875 162.542969 C 206.699219 162.054688 206.527344 161.4375 206.527344 160.6875 Z M 206.527344 147.90625 " fill-opacity="1" fill-rule="nonzero"/><path fill="#ffffff" d="M 219.019531 163.832031 L 219.019531 150.984375 L 220.992188 150.984375 L 220.992188 163.832031 Z M 221.765625 149.445312 L 220.023438 147.101562 L 218.285156 149.445312 L 216.410156 149.445312 L 216.410156 149.308594 L 219.121094 145.828125 L 220.925781 145.828125 L 223.636719 149.308594 L 223.636719 149.445312 Z M 221.765625 149.445312 " fill-opacity="1" fill-rule="nonzero"/><path fill="#ffffff" d="M 226.335938 156.105469 L 226.335938 163.832031 L 224.363281 163.832031 L 224.363281 150.984375 L 226.269531 150.984375 L 226.269531 152.992188 L 226.4375 152.992188 C 226.738281 152.335938 227.195312 151.816406 227.808594 151.417969 C 228.421875 151.015625 229.214844 150.816406 230.183594 150.816406 C 231.054688 150.816406 231.816406 150.996094 232.46875 151.351562 C 233.121094 151.703125 233.628906 152.238281 233.992188 152.957031 C 234.355469 153.671875 234.535156 154.574219 234.535156 155.667969 L 234.535156 163.832031 L 232.5625 163.832031 L 232.5625 155.800781 C 232.5625 154.792969 232.300781 154.003906 231.777344 153.441406 C 231.25 152.875 230.53125 152.589844 229.617188 152.589844 C 228.984375 152.589844 228.421875 152.726562 227.925781 153 C 227.4375 153.273438 227.046875 153.671875 226.765625 154.195312 C 226.480469 154.71875 226.335938 155.355469 226.335938 156.105469 Z M 226.335938 156.105469 " fill-opacity="1" fill-rule="nonzero"/><path fill="#ffffff" d="M 245.0625 163.832031 L 245.0625 146.699219 L 250.851562 146.699219 C 252.1875 146.699219 253.289062 146.929688 254.148438 147.386719 C 255.007812 147.835938 255.640625 148.460938 256.054688 149.25 C 256.46875 150.042969 256.675781 150.945312 256.675781 151.953125 C 256.675781 152.960938 256.46875 153.859375 256.054688 154.640625 C 255.640625 155.421875 255.007812 156.035156 254.15625 156.480469 C 253.300781 156.917969 252.210938 157.140625 250.882812 157.140625 L 246.199219 157.140625 L 246.199219 155.265625 L 250.816406 155.265625 C 251.734375 155.265625 252.46875 155.132812 253.027344 154.867188 C 253.589844 154.597656 253.996094 154.21875 254.246094 153.726562 C 254.503906 153.230469 254.632812 152.640625 254.632812 151.953125 C 254.632812 151.265625 254.503906 150.667969 254.246094 150.15625 C 253.992188 149.640625 253.582031 149.246094 253.015625 148.964844 C 252.453125 148.683594 251.710938 148.539062 250.785156 148.539062 L 247.136719 148.539062 L 247.136719 163.832031 Z M 253.125 156.136719 L 257.34375 163.832031 L 254.933594 163.832031 L 250.785156 156.136719 Z M 253.125 156.136719 " fill-opacity="1" fill-rule="nonzero"/><path fill="#ffffff" d="M 263.382812 164.101562 C 262.222656 164.101562 261.203125 163.824219 260.328125 163.273438 C 259.457031 162.71875 258.777344 161.949219 258.289062 160.953125 C 257.800781 159.960938 257.558594 158.804688 257.558594 157.472656 C 257.558594 156.136719 257.800781 154.96875 258.289062 153.96875 C 258.777344 152.972656 259.457031 152.195312 260.328125 151.644531 C 261.203125 151.09375 262.222656 150.816406 263.382812 150.816406 C 264.542969 150.816406 265.558594 151.09375 266.425781 151.644531 C 267.304688 152.195312 267.984375 152.972656 268.46875 153.96875 C 268.960938 154.96875 269.203125 156.136719 269.203125 157.472656 C 269.203125 158.804688 268.960938 159.960938 268.46875 160.953125 C 267.984375 161.949219 267.304688 162.71875 266.425781 163.273438 C 265.558594 163.824219 264.542969 164.101562 263.382812 164.101562 Z M 263.382812 162.328125 C 264.261719 162.328125 264.988281 162.101562 265.558594 161.648438 C 266.125 161.199219 266.546875 160.605469 266.820312 159.867188 C 267.09375 159.132812 267.230469 158.335938 267.230469 157.472656 C 267.230469 156.617188 267.09375 155.816406 266.820312 155.074219 C 266.546875 154.332031 266.125 153.734375 265.558594 153.277344 C 264.988281 152.820312 264.261719 152.589844 263.382812 152.589844 C 262.5 152.589844 261.777344 152.820312 261.207031 153.277344 C 260.636719 153.734375 260.21875 154.332031 259.945312 155.074219 C 259.667969 155.816406 259.535156 156.617188 259.535156 157.472656 C 259.535156 158.335938 259.667969 159.132812 259.945312 159.867188 C 260.21875 160.605469 260.636719 161.199219 261.207031 161.648438 C 261.777344 162.101562 262.5 162.328125 263.382812 162.328125 Z M 263.382812 162.328125 " fill-opacity="1" fill-rule="nonzero"/><path fill="#ffffff" d="M 272.945312 163.832031 L 272.945312 150.984375 L 274.851562 150.984375 L 274.851562 152.992188 L 275.019531 152.992188 C 275.285156 152.304688 275.71875 151.773438 276.316406 151.394531 C 276.914062 151.007812 277.628906 150.816406 278.464844 150.816406 C 279.3125 150.816406 280.019531 151.007812 280.582031 151.394531 C 281.148438 151.773438 281.59375 152.304688 281.914062 152.992188 L 282.046875 152.992188 C 282.375 152.328125 282.871094 151.800781 283.527344 151.410156 C 284.183594 151.011719 284.972656 150.816406 285.894531 150.816406 C 287.042969 150.816406 287.984375 151.175781 288.714844 151.894531 C 289.445312 152.609375 289.808594 153.722656 289.808594 155.234375 L 289.808594 163.832031 L 287.835938 163.832031 L 287.835938 155.234375 C 287.835938 154.285156 287.578125 153.605469 287.058594 153.199219 C 286.539062 152.792969 285.925781 152.589844 285.226562 152.589844 C 284.320312 152.589844 283.621094 152.863281 283.125 153.410156 C 282.628906 153.949219 282.382812 154.636719 282.382812 155.46875 L 282.382812 163.832031 L 280.371094 163.832031 L 280.371094 155.03125 C 280.371094 154.300781 280.136719 153.714844 279.660156 153.265625 C 279.1875 152.816406 278.578125 152.589844 277.828125 152.589844 C 277.316406 152.589844 276.835938 152.726562 276.390625 153 C 275.949219 153.273438 275.59375 153.652344 275.320312 154.136719 C 275.050781 154.617188 274.917969 155.171875 274.917969 155.800781 L 274.917969 163.832031 Z M 272.945312 163.832031 " fill-opacity="1" fill-rule="nonzero"/><path fill="#ffffff" d="M 298.570312 164.136719 C 297.757812 164.136719 297.019531 163.980469 296.355469 163.675781 C 295.691406 163.363281 295.164062 162.914062 294.773438 162.328125 C 294.382812 161.734375 294.1875 161.023438 294.1875 160.1875 C 294.1875 159.449219 294.332031 158.851562 294.621094 158.394531 C 294.914062 157.933594 295.300781 157.570312 295.785156 157.308594 C 296.269531 157.046875 296.808594 156.851562 297.390625 156.722656 C 297.984375 156.589844 298.578125 156.480469 299.175781 156.402344 C 299.953125 156.304688 300.585938 156.230469 301.074219 156.179688 C 301.5625 156.121094 301.921875 156.03125 302.144531 155.902344 C 302.375 155.773438 302.488281 155.550781 302.488281 155.234375 L 302.488281 155.164062 C 302.488281 154.339844 302.261719 153.699219 301.808594 153.242188 C 301.363281 152.785156 300.683594 152.554688 299.777344 152.554688 C 298.832031 152.554688 298.09375 152.761719 297.558594 153.175781 C 297.023438 153.585938 296.648438 154.027344 296.429688 154.496094 L 294.554688 153.828125 C 294.890625 153.046875 295.335938 152.4375 295.894531 152.003906 C 296.457031 151.5625 297.070312 151.257812 297.734375 151.082031 C 298.40625 150.90625 299.0625 150.816406 299.707031 150.816406 C 300.121094 150.816406 300.597656 150.867188 301.132812 150.964844 C 301.671875 151.0625 302.195312 151.257812 302.695312 151.558594 C 303.203125 151.863281 303.625 152.316406 303.960938 152.921875 C 304.292969 153.53125 304.460938 154.347656 304.460938 155.367188 L 304.460938 163.832031 L 302.488281 163.832031 L 302.488281 162.09375 L 302.386719 162.09375 C 302.253906 162.371094 302.03125 162.671875 301.71875 162.988281 C 301.40625 163.304688 300.988281 163.578125 300.472656 163.800781 C 299.953125 164.023438 299.320312 164.136719 298.570312 164.136719 Z M 298.871094 162.359375 C 299.652344 162.359375 300.3125 162.207031 300.847656 161.902344 C 301.386719 161.59375 301.796875 161.199219 302.070312 160.714844 C 302.347656 160.226562 302.488281 159.714844 302.488281 159.183594 L 302.488281 157.375 C 302.402344 157.472656 302.21875 157.566406 301.933594 157.652344 C 301.65625 157.730469 301.332031 157.796875 300.964844 157.859375 C 300.601562 157.914062 300.246094 157.964844 299.902344 158.011719 C 299.5625 158.050781 299.285156 158.082031 299.074219 158.109375 C 298.5625 158.179688 298.082031 158.285156 297.632812 158.4375 C 297.195312 158.582031 296.835938 158.804688 296.5625 159.097656 C 296.296875 159.390625 296.164062 159.785156 296.164062 160.285156 C 296.164062 160.972656 296.417969 161.492188 296.921875 161.84375 C 297.4375 162.1875 298.085938 162.359375 298.871094 162.359375 Z M 301.582031 149.445312 L 299.84375 147.101562 L 298.101562 149.445312 L 296.230469 149.445312 L 296.230469 149.308594 L 298.941406 145.828125 L 300.746094 145.828125 L 303.457031 149.308594 L 303.457031 149.445312 Z M 301.582031 149.445312 " fill-opacity="1" fill-rule="nonzero"/><path fill="#ffffff" d="M 312.023438 156.105469 L 312.023438 163.832031 L 310.046875 163.832031 L 310.046875 150.984375 L 311.953125 150.984375 L 311.953125 152.992188 L 312.121094 152.992188 C 312.421875 152.335938 312.878906 151.816406 313.492188 151.417969 C 314.109375 151.015625 314.898438 150.816406 315.871094 150.816406 C 316.742188 150.816406 317.5 150.996094 318.152344 151.351562 C 318.804688 151.703125 319.3125 152.238281 319.675781 152.957031 C 320.039062 153.671875 320.21875 154.574219 320.21875 155.667969 L 320.21875 163.832031 L 318.246094 163.832031 L 318.246094 155.800781 C 318.246094 154.792969 317.984375 154.003906 317.457031 153.441406 C 316.9375 152.875 316.214844 152.589844 315.300781 152.589844 C 314.671875 152.589844 314.109375 152.726562 313.609375 153 C 313.121094 153.273438 312.734375 153.671875 312.449219 154.195312 C 312.164062 154.71875 312.023438 155.355469 312.023438 156.105469 Z M 312.023438 156.105469 " fill-opacity="1" fill-rule="nonzero"/><path fill="#ffffff" d="M 323.886719 163.832031 L 323.886719 150.984375 L 325.859375 150.984375 L 325.859375 163.832031 Z M 324.890625 148.839844 C 324.507812 148.839844 324.175781 148.710938 323.894531 148.449219 C 323.621094 148.1875 323.484375 147.871094 323.484375 147.503906 C 323.484375 147.136719 323.621094 146.820312 323.894531 146.558594 C 324.175781 146.292969 324.507812 146.164062 324.890625 146.164062 C 325.277344 146.164062 325.605469 146.292969 325.878906 146.558594 C 326.15625 146.820312 326.296875 147.136719 326.296875 147.503906 C 326.296875 147.871094 326.15625 148.1875 325.878906 148.449219 C 325.605469 148.710938 325.277344 148.839844 324.890625 148.839844 Z M 324.890625 148.839844 " fill-opacity="1" fill-rule="nonzero"/><path fill="#ffffff" d="M 333.011719 164.136719 C 332.199219 164.136719 331.460938 163.980469 330.796875 163.675781 C 330.132812 163.363281 329.605469 162.914062 329.214844 162.328125 C 328.824219 161.734375 328.628906 161.023438 328.628906 160.1875 C 328.628906 159.449219 328.773438 158.851562 329.0625 158.394531 C 329.355469 157.933594 329.742188 157.570312 330.226562 157.308594 C 330.714844 157.046875 331.246094 156.851562 331.832031 156.722656 C 332.425781 156.589844 333.019531 156.480469 333.613281 156.402344 C 334.394531 156.304688 335.03125 156.230469 335.515625 156.179688 C 336.003906 156.121094 336.363281 156.03125 336.585938 155.902344 C 336.8125 155.773438 336.929688 155.550781 336.929688 155.234375 L 336.929688 155.164062 C 336.929688 154.339844 336.703125 153.699219 336.25 153.242188 C 335.804688 152.785156 335.128906 152.554688 334.21875 152.554688 C 333.277344 152.554688 332.535156 152.761719 332 153.175781 C 331.464844 153.585938 331.089844 154.027344 330.871094 154.496094 L 328.996094 153.828125 C 329.332031 153.046875 329.777344 152.4375 330.335938 152.003906 C 330.898438 151.5625 331.511719 151.257812 332.175781 151.082031 C 332.847656 150.90625 333.503906 150.816406 334.152344 150.816406 C 334.5625 150.816406 335.039062 150.867188 335.574219 150.964844 C 336.113281 151.0625 336.636719 151.257812 337.136719 151.558594 C 337.644531 151.863281 338.066406 152.316406 338.402344 152.921875 C 338.734375 153.53125 338.902344 154.347656 338.902344 155.367188 L 338.902344 163.832031 L 336.929688 163.832031 L 336.929688 162.09375 L 336.828125 162.09375 C 336.695312 162.371094 336.46875 162.671875 336.160156 162.988281 C 335.847656 163.304688 335.429688 163.578125 334.910156 163.800781 C 334.394531 164.023438 333.761719 164.136719 333.011719 164.136719 Z M 333.316406 162.359375 C 334.097656 162.359375 334.753906 162.207031 335.289062 161.902344 C 335.828125 161.59375 336.238281 161.199219 336.511719 160.714844 C 336.789062 160.226562 336.929688 159.714844 336.929688 159.183594 L 336.929688 157.375 C 336.84375 157.472656 336.660156 157.566406 336.375 157.652344 C 336.097656 157.730469 335.773438 157.796875 335.40625 157.859375 C 335.042969 157.914062 334.6875 157.964844 334.34375 158.011719 C 334.003906 158.050781 333.726562 158.082031 333.515625 158.109375 C 333 158.179688 332.523438 158.285156 332.078125 158.4375 C 331.636719 158.582031 331.277344 158.804688 331.003906 159.097656 C 330.738281 159.390625 330.605469 159.785156 330.605469 160.285156 C 330.605469 160.972656 330.855469 161.492188 331.367188 161.84375 C 331.878906 162.1875 332.527344 162.359375 333.316406 162.359375 Z M 333.316406 162.359375 " fill-opacity="1" fill-rule="nonzero"/><path fill="#ffffff" d="M 355.929688 164.101562 C 354.859375 164.101562 353.914062 163.832031 353.09375 163.289062 C 352.273438 162.742188 351.632812 161.972656 351.167969 160.980469 C 350.707031 159.980469 350.476562 158.804688 350.476562 157.441406 C 350.476562 156.09375 350.707031 154.921875 351.167969 153.929688 C 351.632812 152.933594 352.277344 152.167969 353.101562 151.625 C 353.925781 151.085938 354.878906 150.816406 355.964844 150.816406 C 356.800781 150.816406 357.460938 150.957031 357.945312 151.234375 C 358.4375 151.507812 358.808594 151.820312 359.066406 152.171875 C 359.328125 152.515625 359.53125 152.800781 359.679688 153.023438 L 359.84375 153.023438 L 359.84375 146.699219 L 361.820312 146.699219 L 361.820312 163.832031 L 359.910156 163.832031 L 359.910156 161.859375 L 359.679688 161.859375 C 359.53125 162.09375 359.328125 162.386719 359.058594 162.746094 C 358.792969 163.097656 358.410156 163.414062 357.914062 163.691406 C 357.414062 163.964844 356.753906 164.101562 355.929688 164.101562 Z M 356.199219 162.328125 C 356.988281 162.328125 357.660156 162.121094 358.207031 161.707031 C 358.753906 161.289062 359.167969 160.714844 359.449219 159.976562 C 359.734375 159.234375 359.878906 158.378906 359.878906 157.40625 C 359.878906 156.449219 359.738281 155.609375 359.460938 154.890625 C 359.179688 154.164062 358.769531 153.601562 358.222656 153.199219 C 357.675781 152.792969 357 152.589844 356.199219 152.589844 C 355.359375 152.589844 354.664062 152.804688 354.105469 153.234375 C 353.554688 153.65625 353.136719 154.234375 352.859375 154.964844 C 352.585938 155.691406 352.449219 156.503906 352.449219 157.40625 C 352.449219 158.324219 352.589844 159.152344 352.867188 159.902344 C 353.152344 160.644531 353.570312 161.234375 354.121094 161.675781 C 354.679688 162.109375 355.371094 162.328125 356.199219 162.328125 Z M 356.199219 162.328125 " fill-opacity="1" fill-rule="nonzero"/><path fill="#ffffff" d="M 366.335938 163.832031 L 366.335938 150.984375 L 368.308594 150.984375 L 368.308594 163.832031 Z M 367.339844 148.839844 C 366.953125 148.839844 366.621094 148.710938 366.34375 148.449219 C 366.070312 148.1875 365.933594 147.871094 365.933594 147.503906 C 365.933594 147.136719 366.070312 146.820312 366.34375 146.558594 C 366.621094 146.292969 366.953125 146.164062 367.339844 146.164062 C 367.722656 146.164062 368.054688 146.292969 368.324219 146.558594 C 368.605469 146.820312 368.746094 147.136719 368.746094 147.503906 C 368.746094 147.871094 368.605469 148.1875 368.324219 148.449219 C 368.054688 148.710938 367.722656 148.839844 367.339844 148.839844 Z M 367.339844 148.839844 " fill-opacity="1" fill-rule="nonzero"/><path fill="#ffffff" d="M 373.65625 156.105469 L 373.65625 163.832031 L 371.679688 163.832031 L 371.679688 150.984375 L 373.589844 150.984375 L 373.589844 152.992188 L 373.753906 152.992188 C 374.054688 152.335938 374.511719 151.816406 375.125 151.417969 C 375.738281 151.015625 376.53125 150.816406 377.503906 150.816406 C 378.371094 150.816406 379.132812 150.996094 379.785156 151.351562 C 380.441406 151.703125 380.945312 152.238281 381.308594 152.957031 C 381.671875 153.671875 381.851562 154.574219 381.851562 155.667969 L 381.851562 163.832031 L 379.878906 163.832031 L 379.878906 155.800781 C 379.878906 154.792969 379.617188 154.003906 379.09375 153.441406 C 378.566406 152.875 377.847656 152.589844 376.933594 152.589844 C 376.304688 152.589844 375.738281 152.726562 375.246094 153 C 374.753906 153.273438 374.367188 153.671875 374.082031 154.195312 C 373.796875 154.71875 373.65625 155.355469 373.65625 156.105469 Z M 373.65625 156.105469 " fill-opacity="1" fill-rule="nonzero"/><path fill="#ffffff" d="M 398.101562 146.699219 L 398.101562 163.832031 L 396.027344 163.832031 L 396.027344 148.875 L 395.925781 148.875 L 391.742188 151.652344 L 391.742188 149.542969 L 396.027344 146.699219 Z M 398.101562 146.699219 " fill-opacity="1" fill-rule="nonzero"/><path fill="#ffffff" d="M 410.429688 146.464844 C 411.132812 146.472656 411.835938 146.605469 412.535156 146.867188 C 413.242188 147.128906 413.882812 147.5625 414.460938 148.171875 C 415.042969 148.773438 415.507812 149.597656 415.859375 150.640625 C 416.210938 151.683594 416.386719 152.992188 416.386719 154.5625 C 416.386719 156.085938 416.242188 157.4375 415.949219 158.621094 C 415.667969 159.796875 415.253906 160.789062 414.710938 161.601562 C 414.175781 162.410156 413.523438 163.023438 412.753906 163.441406 C 411.992188 163.859375 411.125 164.066406 410.160156 164.066406 C 409.203125 164.066406 408.34375 163.878906 407.59375 163.5 C 406.84375 163.113281 406.230469 162.582031 405.753906 161.902344 C 405.277344 161.214844 404.972656 160.421875 404.839844 159.515625 L 406.882812 159.515625 C 407.066406 160.300781 407.429688 160.953125 407.976562 161.464844 C 408.53125 161.972656 409.257812 162.226562 410.160156 162.226562 C 411.484375 162.226562 412.527344 161.648438 413.289062 160.496094 C 414.058594 159.339844 414.445312 157.710938 414.445312 155.601562 L 414.3125 155.601562 C 414 156.070312 413.628906 156.472656 413.199219 156.816406 C 412.769531 157.152344 412.292969 157.417969 411.769531 157.601562 C 411.242188 157.785156 410.683594 157.875 410.09375 157.875 C 409.113281 157.875 408.210938 157.632812 407.394531 157.148438 C 406.578125 156.660156 405.925781 155.984375 405.433594 155.132812 C 404.949219 154.273438 404.707031 153.292969 404.707031 152.1875 C 404.707031 151.140625 404.941406 150.179688 405.410156 149.308594 C 405.882812 148.433594 406.546875 147.738281 407.398438 147.21875 C 408.257812 146.699219 409.269531 146.449219 410.429688 146.464844 Z M 410.429688 148.304688 C 409.726562 148.304688 409.09375 148.480469 408.53125 148.832031 C 407.972656 149.179688 407.527344 149.648438 407.199219 150.238281 C 406.875 150.824219 406.714844 151.472656 406.714844 152.1875 C 406.714844 152.902344 406.871094 153.550781 407.183594 154.136719 C 407.5 154.714844 407.933594 155.179688 408.480469 155.523438 C 409.03125 155.867188 409.660156 156.035156 410.363281 156.035156 C 410.890625 156.035156 411.386719 155.933594 411.84375 155.726562 C 412.300781 155.515625 412.699219 155.226562 413.039062 154.867188 C 413.386719 154.496094 413.65625 154.082031 413.851562 153.617188 C 414.046875 153.148438 414.144531 152.660156 414.144531 152.152344 C 414.144531 151.484375 413.980469 150.859375 413.660156 150.273438 C 413.339844 149.6875 412.898438 149.210938 412.335938 148.851562 C 411.78125 148.488281 411.144531 148.304688 410.429688 148.304688 Z M 410.429688 148.304688 " fill-opacity="1" fill-rule="nonzero"/><path fill="#ffffff" d="M 423.324219 146.464844 C 424.03125 146.472656 424.730469 146.605469 425.433594 146.867188 C 426.136719 147.128906 426.777344 147.5625 427.359375 148.171875 C 427.9375 148.773438 428.40625 149.597656 428.753906 150.640625 C 429.105469 151.683594 429.28125 152.992188 429.28125 154.5625 C 429.28125 156.085938 429.136719 157.4375 428.847656 158.621094 C 428.5625 159.796875 428.152344 160.789062 427.609375 161.601562 C 427.074219 162.410156 426.421875 163.023438 425.652344 163.441406 C 424.886719 163.859375 424.023438 164.066406 423.058594 164.066406 C 422.097656 164.066406 421.242188 163.878906 420.492188 163.5 C 419.742188 163.113281 419.128906 162.582031 418.648438 161.902344 C 418.175781 161.214844 417.871094 160.421875 417.738281 159.515625 L 419.777344 159.515625 C 419.964844 160.300781 420.328125 160.953125 420.875 161.464844 C 421.425781 161.972656 422.15625 162.226562 423.058594 162.226562 C 424.378906 162.226562 425.421875 161.648438 426.1875 160.496094 C 426.957031 159.339844 427.34375 157.710938 427.34375 155.601562 L 427.207031 155.601562 C 426.894531 156.070312 426.523438 156.472656 426.09375 156.816406 C 425.664062 157.152344 425.1875 157.417969 424.664062 157.601562 C 424.140625 157.785156 423.582031 157.875 422.992188 157.875 C 422.011719 157.875 421.109375 157.632812 420.289062 157.148438 C 419.476562 156.660156 418.824219 155.984375 418.332031 155.132812 C 417.847656 154.273438 417.601562 153.292969 417.601562 152.1875 C 417.601562 151.140625 417.835938 150.179688 418.308594 149.308594 C 418.78125 148.433594 419.445312 147.738281 420.296875 147.21875 C 421.15625 146.699219 422.167969 146.449219 423.324219 146.464844 Z M 423.324219 148.304688 C 422.625 148.304688 421.988281 148.480469 421.425781 148.832031 C 420.871094 149.179688 420.425781 149.648438 420.097656 150.238281 C 419.773438 150.824219 419.613281 151.472656 419.613281 152.1875 C 419.613281 152.902344 419.769531 153.550781 420.078125 154.136719 C 420.398438 154.714844 420.832031 155.179688 421.375 155.523438 C 421.929688 155.867188 422.554688 156.035156 423.257812 156.035156 C 423.789062 156.035156 424.28125 155.933594 424.742188 155.726562 C 425.199219 155.515625 425.59375 155.226562 425.9375 154.867188 C 426.28125 154.496094 426.550781 154.082031 426.746094 153.617188 C 426.941406 153.148438 427.039062 152.660156 427.039062 152.152344 C 427.039062 151.484375 426.878906 150.859375 426.554688 150.273438 C 426.238281 149.6875 425.796875 149.210938 425.234375 148.851562 C 424.675781 148.488281 424.039062 148.304688 423.324219 148.304688 Z M 423.324219 148.304688 " fill-opacity="1" fill-rule="nonzero"/><path fill="#ffffff" d="M 436.351562 164.066406 C 435.089844 164.066406 434.015625 163.722656 433.128906 163.039062 C 432.242188 162.347656 431.566406 161.34375 431.09375 160.035156 C 430.628906 158.71875 430.394531 157.128906 430.394531 155.265625 C 430.394531 153.414062 430.628906 151.832031 431.09375 150.523438 C 431.570312 149.207031 432.25 148.203125 433.136719 147.511719 C 434.03125 146.8125 435.101562 146.464844 436.351562 146.464844 C 437.597656 146.464844 438.667969 146.8125 439.554688 147.511719 C 440.445312 148.203125 441.128906 149.207031 441.59375 150.523438 C 442.070312 151.832031 442.304688 153.414062 442.304688 155.265625 C 442.304688 157.128906 442.074219 158.71875 441.605469 160.035156 C 441.132812 161.34375 440.457031 162.347656 439.570312 163.039062 C 438.683594 163.722656 437.609375 164.066406 436.351562 164.066406 Z M 436.351562 162.226562 C 437.597656 162.226562 438.570312 161.625 439.261719 160.421875 C 439.953125 159.214844 440.296875 157.496094 440.296875 155.265625 C 440.296875 153.78125 440.140625 152.519531 439.820312 151.476562 C 439.507812 150.433594 439.058594 149.640625 438.46875 149.09375 C 437.882812 148.546875 437.175781 148.273438 436.351562 148.273438 C 435.113281 148.273438 434.144531 148.882812 433.445312 150.105469 C 432.75 151.320312 432.402344 153.042969 432.402344 155.265625 C 432.402344 156.75 432.558594 158.011719 432.871094 159.046875 C 433.183594 160.085938 433.628906 160.875 434.214844 161.414062 C 434.808594 161.957031 435.519531 162.226562 436.351562 162.226562 Z M 436.351562 162.226562 " fill-opacity="1" fill-rule="nonzero"/></svg>