<svg xmlns="http://www.w3.org/2000/svg" xmlns:xlink="http://www.w3.org/1999/xlink" width="595" zoomAndPan="magnify" viewBox="0 0 446.25 185.249993" height="247" preserveAspectRatio="xMidYMid meet" version="1.0"><path fill="#ffffff" d="M 236.414062 145.625 C 236.347656 145.597656 236.285156 145.578125 236.21875 145.558594 C 232.980469 144.707031 230.535156 148.039062 227.953125 151.570312 C 225.550781 154.847656 222.828125 158.554688 219.867188 158.554688 C 218.667969 158.554688 217.804688 158.128906 217.144531 157.207031 C 214.363281 153.324219 216.003906 142.902344 217.996094 137.082031 C 218.304688 136.1875 217.824219 135.210938 216.925781 134.90625 C 216.476562 134.75 216 134.800781 215.601562 135 C 211.257812 134.507812 207.820312 134.445312 204.074219 134.601562 C 204.984375 131.347656 205.910156 127.78125 206.847656 123.867188 C 207.070312 122.945312 206.5 122.019531 205.578125 121.800781 C 204.65625 121.578125 203.730469 122.148438 203.511719 123.066406 C 202.46875 127.421875 201.449219 131.316406 200.449219 134.804688 C 199.207031 134.890625 197.890625 134.992188 196.476562 135.09375 C 193.695312 135.304688 190.546875 135.535156 186.703125 135.753906 C 185.917969 135.796875 185.3125 136.476562 185.359375 137.261719 C 185.402344 138.019531 186.03125 138.609375 186.785156 138.609375 C 186.8125 138.609375 186.835938 138.609375 186.867188 138.605469 C 190.730469 138.386719 193.898438 138.148438 196.683594 137.945312 C 197.710938 137.863281 198.675781 137.792969 199.601562 137.730469 C 192.71875 160.550781 187.054688 163.859375 182.726562 163.859375 C 180.308594 163.859375 179.203125 156.8125 178.605469 153.03125 C 177.878906 148.410156 177.441406 145.617188 175.050781 145.617188 C 173.109375 145.617188 171.632812 147.59375 169.179688 150.867188 C 165.664062 155.554688 160.859375 161.96875 154.617188 161.96875 C 153.761719 161.96875 153.601562 161.691406 153.535156 161.570312 C 152.640625 160.019531 154.160156 155.242188 156.4375 150.488281 C 157.832031 148.132812 158.636719 146.371094 158.742188 146.144531 C 159.117188 145.3125 158.769531 144.335938 157.964844 143.917969 C 157.152344 143.503906 156.15625 143.792969 155.695312 144.578125 C 155.289062 145.277344 154.40625 146.832031 153.449219 148.796875 C 150.539062 153.714844 144.988281 161.34375 138.539062 161.34375 C 133.195312 161.34375 131.859375 158.175781 130.855469 154.640625 C 130.453125 153.214844 130.101562 151.980469 128.789062 151.660156 C 128.34375 151.558594 127.457031 151.515625 126.582031 152.453125 C 122.671875 156.65625 118.871094 159.457031 113.050781 159.457031 C 111.960938 159.457031 110.097656 159.300781 109.777344 158.242188 C 109.152344 156.152344 112.429688 151.1875 117.753906 147.667969 C 122.464844 144.558594 126.355469 143.828125 127.242188 144.511719 C 127.507812 144.714844 127.5625 145.566406 127.070312 146.996094 C 126.769531 147.890625 127.246094 148.863281 128.140625 149.171875 C 129.042969 149.476562 130.011719 149 130.320312 148.101562 C 131.558594 144.472656 130.472656 142.667969 129.339844 141.800781 C 126.300781 139.453125 120.183594 141.957031 115.867188 144.808594 C 112.285156 147.175781 108.871094 150.632812 107.253906 153.988281 C 107.113281 154.105469 106.988281 154.238281 106.882812 154.402344 C 100.359375 164.914062 88.375 166.625 82.65625 163.21875 C 80.667969 162.03125 79.539062 160.335938 79.289062 158.269531 C 89.636719 155.476562 93.355469 150.070312 93.378906 146.234375 C 93.398438 143.800781 91.992188 141.847656 89.804688 141.257812 C 88.394531 140.878906 83.394531 140.351562 78.207031 149.425781 C 73.445312 157.75 76.480469 163.527344 80.90625 166.164062 C 83.253906 167.5625 86.148438 168.277344 89.238281 168.277344 C 95.179688 168.277344 101.855469 165.617188 106.859375 160.097656 C 107.566406 161.390625 109.214844 162.886719 113.050781 162.886719 C 119.679688 162.886719 124.089844 159.828125 127.738281 156.195312 C 128.621094 159.191406 130.746094 164.773438 138.539062 164.773438 C 142.917969 164.773438 146.804688 162.261719 149.972656 159.078125 C 149.792969 160.710938 149.929688 162.179688 150.554688 163.277344 C 151.117188 164.246094 152.269531 165.398438 154.617188 165.398438 C 162.578125 165.398438 168.199219 157.886719 171.921875 152.921875 C 172.78125 151.78125 173.78125 150.441406 174.515625 149.652344 C 174.773438 150.699219 175.019531 152.292969 175.21875 153.5625 C 176.175781 159.675781 177.375 167.289062 182.730469 167.289062 C 188.898438 167.289062 195.605469 163.335938 203.238281 137.496094 C 206.972656 137.304688 210.1875 137.3125 214.210938 137.722656 C 212.644531 143.179688 210.625 153.988281 214.359375 159.203125 C 215.660156 161.019531 217.5625 161.984375 219.867188 161.984375 C 224.574219 161.984375 227.839844 157.527344 230.71875 153.589844 C 231.921875 151.945312 233.636719 149.609375 234.746094 149.003906 C 234.871094 151.996094 232.050781 161.8125 226.433594 170.027344 C 223.324219 174.578125 218.355469 180 212.378906 180 C 209.339844 180 207.105469 179.074219 205.738281 177.234375 C 204.019531 174.921875 203.941406 171.53125 204.589844 169.363281 C 204.867188 168.457031 204.347656 167.5 203.441406 167.226562 C 202.535156 166.957031 201.582031 167.46875 201.304688 168.375 C 200.386719 171.441406 200.550781 176.007812 202.984375 179.277344 C 204.394531 181.171875 207.167969 183.425781 212.382812 183.425781 C 225.957031 183.425781 235.78125 162.777344 237.796875 152.246094 C 238.253906 149.824219 238.617188 146.5 236.414062 145.625 Z M 81.179688 151.125 C 83.84375 146.472656 86.65625 144.507812 88.398438 144.507812 C 88.582031 144.507812 88.753906 144.523438 88.910156 144.566406 C 89.855469 144.824219 89.953125 145.800781 89.949219 146.210938 C 89.9375 148.230469 87.703125 152.117188 79.660156 154.597656 C 79.984375 153.5 80.492188 152.335938 81.179688 151.125 Z M 81.179688 151.125 " fill-opacity="1" fill-rule="nonzero"/><path fill="#ffffff" d="M 39.363281 124.824219 C 20.226562 126.5625 7.933594 131.652344 6.476562 138.449219 C 5.898438 141.160156 7.195312 143.703125 9.949219 145.25 C 10.773438 145.71875 11.820312 145.421875 12.285156 144.597656 C 12.746094 143.773438 12.453125 142.726562 11.628906 142.265625 C 10.808594 141.800781 9.480469 140.785156 9.828125 139.160156 C 10.5 136.050781 17.535156 130.246094 39.671875 128.238281 C 59.828125 126.40625 65.925781 129.628906 67.761719 131.714844 C 68.800781 132.886719 68.75 134.007812 68.625 134.574219 C 68.589844 134.734375 68.085938 136.210938 61.375 138.722656 C 56.859375 140.414062 51.167969 141.996094 45.660156 143.523438 C 45.117188 143.675781 44.59375 143.824219 44.085938 143.964844 C 45.375 140.769531 46.40625 137.792969 47.257812 134.851562 C 47.523438 133.941406 47.003906 132.992188 46.089844 132.726562 C 45.183594 132.464844 44.234375 132.988281 43.96875 133.894531 C 42.933594 137.464844 41.617188 141.101562 39.871094 145.160156 C 32.175781 147.402344 29.164062 148.664062 28.46875 150.546875 C 28.089844 151.570312 28.214844 152.574219 28.816406 153.371094 C 29.785156 154.648438 31.835938 155.128906 35.144531 155.171875 C 33.558594 158.296875 31.757812 161.699219 29.671875 165.488281 C 29.214844 166.320312 29.519531 167.363281 30.351562 167.816406 C 30.613281 167.960938 30.890625 168.027344 31.171875 168.027344 C 31.78125 168.027344 32.363281 167.707031 32.675781 167.140625 C 35.144531 162.644531 37.242188 158.675781 39.035156 155.070312 C 41.03125 154.964844 43.316406 154.796875 45.929688 154.585938 C 53.28125 153.992188 64.394531 153.101562 66.421875 155.449219 C 66.53125 155.578125 66.734375 155.8125 66.578125 156.496094 C 64.480469 165.582031 38.886719 171.167969 21.460938 171.167969 C 20.511719 171.167969 19.742188 171.933594 19.742188 172.882812 C 19.742188 173.828125 20.511719 174.589844 21.460938 174.589844 C 35.386719 174.589844 66.925781 170.230469 69.917969 157.265625 C 70.375 155.304688 69.679688 153.972656 69.019531 153.210938 C 66.070312 149.800781 57.855469 150.191406 45.652344 151.167969 C 44.164062 151.285156 42.457031 151.425781 40.753906 151.535156 C 41.328125 150.324219 41.863281 149.144531 42.375 148.011719 C 43.816406 147.597656 45.253906 147.199219 46.578125 146.828125 C 61.734375 142.617188 71.003906 139.734375 71.976562 135.308594 C 72.1875 134.339844 72.453125 131.839844 70.339844 129.449219 C 66.304688 124.882812 55.882812 123.324219 39.363281 124.824219 Z M 36.859375 151.722656 C 34.835938 151.78125 33.101562 151.738281 32.136719 151.503906 C 33.195312 150.886719 35.414062 150.105469 38.019531 149.292969 C 37.648438 150.085938 37.257812 150.898438 36.859375 151.722656 Z M 36.859375 151.722656 " fill-opacity="1" fill-rule="nonzero"/><path fill="#ffffff" d="M 442 150.984375 C 441.792969 150.058594 440.878906 149.476562 439.953125 149.683594 C 421.941406 153.679688 408.175781 152.484375 401.695312 151.304688 C 401.476562 151.214844 401.257812 151.140625 401.027344 151.0625 C 397.152344 149.78125 396.28125 149.722656 395.515625 150.703125 C 395.070312 151.273438 395.03125 152.078125 395.421875 152.691406 C 395.925781 153.496094 398.171875 154.125 400.675781 154.597656 C 402.605469 155.460938 403.375 156.933594 403.03125 159.058594 C 402.335938 163.371094 397.105469 168.9375 392.511719 168.9375 C 390.960938 168.9375 389.898438 168.367188 389.15625 167.152344 C 388.371094 165.859375 387.957031 163.8125 387.957031 161.230469 C 387.957031 157.425781 388.832031 152.519531 390.382812 147.21875 C 390.433594 147.152344 390.476562 147.097656 390.515625 147.050781 C 391.429688 146.261719 397.011719 141.402344 402.277344 135.910156 C 413.226562 124.511719 413.421875 120.300781 412.617188 118.121094 C 411.867188 116.09375 409.828125 115.0625 406.542969 115.0625 C 400.335938 115.0625 391.675781 130.917969 387.296875 145.585938 C 383.582031 150.125 374.414062 159.613281 367.59375 159.613281 C 367.398438 159.613281 367.15625 159.589844 367.074219 159.488281 C 366.140625 158.179688 368.085938 152.425781 369.128906 149.339844 C 370.777344 144.46875 371.683594 141.785156 369.703125 140.585938 C 367.953125 139.527344 365.890625 140.460938 357.652344 149.035156 C 347.796875 159.3125 342.132812 161.332031 340.269531 159.949219 C 338.15625 158.375 338.660156 151.5625 342.503906 144.804688 C 342.503906 144.804688 342.503906 144.800781 342.503906 144.800781 C 342.503906 144.800781 342.507812 144.796875 342.507812 144.792969 C 342.519531 144.773438 342.527344 144.742188 342.539062 144.71875 C 342.578125 144.644531 342.617188 144.566406 342.644531 144.484375 C 342.660156 144.441406 342.667969 144.386719 342.679688 144.339844 C 342.6875 144.28125 342.707031 144.222656 342.714844 144.160156 C 342.722656 144.101562 342.722656 144.046875 342.722656 143.992188 C 342.722656 143.941406 342.730469 143.882812 342.726562 143.832031 C 342.722656 143.78125 342.707031 143.726562 342.695312 143.671875 C 342.6875 143.617188 342.683594 143.5625 342.667969 143.507812 C 342.652344 143.457031 342.636719 143.410156 342.617188 143.363281 C 342.597656 143.304688 342.578125 143.253906 342.554688 143.199219 C 342.527344 143.144531 342.492188 143.097656 342.460938 143.039062 C 342.429688 143 342.410156 142.953125 342.382812 142.914062 C 342.328125 142.84375 342.265625 142.78125 342.199219 142.714844 C 342.183594 142.703125 342.171875 142.683594 342.152344 142.667969 C 342.152344 142.667969 342.152344 142.667969 342.152344 142.664062 C 342.109375 142.625 342.054688 142.597656 342.003906 142.5625 C 341.960938 142.53125 341.914062 142.488281 341.867188 142.464844 C 341.859375 142.460938 341.859375 142.460938 341.859375 142.460938 C 341.835938 142.445312 341.820312 142.441406 341.792969 142.429688 C 341.714844 142.386719 341.632812 142.351562 341.550781 142.320312 C 341.511719 142.308594 341.460938 142.304688 341.414062 142.292969 C 341.351562 142.28125 341.292969 142.261719 341.230469 142.25 C 341.171875 142.242188 341.121094 142.246094 341.0625 142.246094 C 341.011719 142.242188 340.953125 142.238281 340.898438 142.242188 C 340.84375 142.246094 340.792969 142.253906 340.742188 142.265625 C 340.683594 142.273438 340.625 142.28125 340.574219 142.296875 C 340.523438 142.3125 340.476562 142.332031 340.425781 142.351562 C 340.371094 142.371094 340.316406 142.382812 340.265625 142.414062 C 340.207031 142.441406 340.15625 142.472656 340.105469 142.507812 C 340.066406 142.535156 340.019531 142.554688 339.980469 142.582031 C 339.910156 142.640625 339.847656 142.703125 339.78125 142.769531 C 339.765625 142.78125 339.75 142.796875 339.734375 142.8125 C 339.730469 142.816406 339.730469 142.816406 339.730469 142.816406 C 339.722656 142.820312 339.722656 142.820312 339.722656 142.820312 C 323.441406 161.152344 307.886719 170.308594 303.578125 167.351562 C 302.328125 166.496094 301.796875 164.15625 302.597656 159.972656 C 302.703125 159.921875 302.800781 159.863281 302.902344 159.789062 C 325.601562 142.664062 331.492188 127.082031 329.867188 121.289062 C 329.339844 119.40625 328.035156 118.226562 326.273438 118.042969 C 321.304688 117.546875 314.285156 125.113281 307.480469 138.300781 C 303.652344 145.726562 301.09375 151.929688 299.796875 156.886719 C 279.492188 169.382812 264.050781 170.84375 259.257812 165.789062 C 256.304688 162.671875 257.433594 156.847656 262.355469 149.800781 C 267.15625 142.929688 273.535156 136.457031 279.855469 132.042969 C 286.339844 127.507812 290.214844 126.921875 291.234375 127.636719 C 291.273438 127.664062 294.8125 130.460938 281.539062 149.472656 C 281 150.25 281.1875 151.320312 281.96875 151.859375 C 282.742188 152.402344 283.808594 152.210938 284.355469 151.433594 C 294.5625 136.808594 297.542969 127.855469 293.195312 124.828125 C 287.347656 120.746094 270.363281 132.359375 259.542969 147.835938 C 251.40625 159.476562 254.3125 165.554688 256.765625 168.148438 C 259.203125 170.714844 263.011719 171.960938 267.804688 171.960938 C 275.988281 171.960938 287.027344 168.308594 298.929688 161.394531 C 298.457031 165.683594 299.355469 168.621094 301.632812 170.179688 C 302.71875 170.921875 304.027344 171.265625 305.527344 171.265625 C 313 171.265625 325.101562 162.664062 336.152344 151.609375 C 335.070312 156.28125 335.433594 160.625 338.214844 162.703125 C 339.199219 163.433594 340.335938 163.796875 341.636719 163.796875 C 346.027344 163.796875 352.222656 159.652344 360.128906 151.414062 C 363.632812 147.769531 365.734375 145.832031 366.984375 144.808594 C 366.675781 145.882812 366.238281 147.171875 365.871094 148.246094 C 363.792969 154.398438 362.464844 158.949219 364.285156 161.492188 C 364.796875 162.199219 365.78125 163.046875 367.585938 163.046875 C 373.925781 163.046875 380.910156 157.289062 385.511719 152.644531 C 384.878906 155.777344 384.523438 158.707031 384.523438 161.234375 C 384.523438 164.492188 385.09375 167.085938 386.21875 168.9375 C 387.582031 171.183594 389.757812 172.367188 392.503906 172.367188 C 398.886719 172.367188 405.488281 165.355469 406.414062 159.609375 C 406.664062 158.042969 406.53125 156.617188 406.039062 155.378906 C 407.605469 155.554688 408.710938 155.640625 408.75 155.644531 C 415.644531 156.160156 426.789062 156.125 440.691406 153.039062 C 441.621094 152.820312 442.207031 151.902344 442 150.984375 Z M 310.53125 139.863281 C 318.371094 124.664062 324.085938 121.441406 325.808594 121.441406 C 325.851562 121.441406 325.886719 121.445312 325.925781 121.449219 C 326.09375 121.464844 326.371094 121.492188 326.566406 122.203125 C 327.746094 126.402344 322.203125 139.84375 304.097656 154.5 C 305.414062 150.609375 307.488281 145.769531 310.53125 139.863281 Z M 395.382812 133.921875 C 400.542969 122.679688 404.964844 118.484375 406.542969 118.484375 C 408.140625 118.484375 409.210938 118.789062 409.40625 119.304688 C 409.589844 119.816406 410.011719 122.898438 399.824219 133.519531 C 397.304688 136.144531 394.707031 138.625 392.609375 140.566406 C 393.441406 138.351562 394.367188 136.125 395.382812 133.921875 Z M 395.382812 133.921875 " fill-opacity="1" fill-rule="nonzero"/><path fill="#ffffff" d="M 85.796875 105.539062 L 85.796875 6.191406 L 128.921875 6.191406 L 128.921875 18.683594 L 103.808594 18.683594 L 103.808594 51.511719 L 126.308594 51.511719 L 126.308594 64.011719 L 103.808594 64.011719 L 103.808594 93.046875 L 130.023438 93.046875 L 130.023438 105.539062 Z M 85.796875 105.539062 " fill-opacity="1" fill-rule="nonzero"/><path fill="#ffffff" d="M 164.382812 105.539062 L 164.382812 6.191406 L 182.394531 6.191406 L 182.394531 91.804688 L 205.171875 91.804688 L 205.171875 105.539062 Z M 164.382812 105.539062 " fill-opacity="1" fill-rule="nonzero"/><path fill="#ffffff" d="M 235.117188 105.539062 L 235.117188 6.191406 L 253.125 6.191406 L 253.125 91.804688 L 275.902344 91.804688 L 275.902344 105.539062 Z M 235.117188 105.539062 " fill-opacity="1" fill-rule="nonzero"/><path fill="#ffffff" d="M 327.445312 47.558594 L 327.171875 47.558594 L 309.976562 105.539062 L 292.941406 105.539062 L 327.273438 1.324219 L 328.945312 1.324219 L 362.351562 105.539062 L 343.9375 105.539062 Z M 327.445312 47.558594 " fill-opacity="1" fill-rule="nonzero"/></svg>