<svg xmlns="http://www.w3.org/2000/svg" xmlns:xlink="http://www.w3.org/1999/xlink" width="595" zoomAndPan="magnify" viewBox="0 0 446.25 185.249993" height="247" preserveAspectRatio="xMidYMid meet" version="1.0"><path fill="#ffffff" d="M 371.085938 48.304688 C 371.085938 48.304688 357.675781 40.585938 358.5 30.574219 C 359.238281 20.558594 365.300781 17.070312 367.414062 12.84375 C 369.617188 8.617188 368.789062 1.726562 368.789062 1.726562 C 368.789062 1.726562 378.253906 5.585938 378.34375 19.917969 C 381.375 20.925781 382.9375 11.558594 382.9375 11.558594 C 382.9375 11.558594 387.53125 16.703125 386.886719 28.644531 C 386.246094 40.585938 376.78125 47.753906 376.78125 47.753906 C 376.78125 47.753906 381.46875 37.832031 380.183594 32.777344 C 378.621094 37.003906 374.671875 37.371094 374.671875 37.371094 C 374.671875 37.371094 379.355469 25.429688 370.261719 20.558594 C 369.984375 28.460938 369.160156 26.714844 366.679688 33.054688 C 364.382812 39.210938 371.085938 48.304688 371.085938 48.304688 Z M 371.085938 48.304688 " fill-opacity="1" fill-rule="nonzero"/><path fill="#ffffff" d="M 78.765625 116.746094 C 73.4375 118.675781 62.964844 121.796875 50.65625 121.796875 C 36.785156 121.796875 25.390625 118.304688 16.390625 109.671875 C 8.488281 102.046875 3.621094 89.828125 3.621094 75.589844 C 3.710938 48.304688 22.453125 28.367188 53.226562 28.367188 C 63.792969 28.367188 72.0625 30.664062 76.011719 32.59375 L 73.164062 42.242188 C 68.292969 40.035156 62.140625 38.289062 52.953125 38.289062 C 30.628906 38.199219 24.105469 49.867188 23.371094 72.925781 C 22.636719 96.167969 30.078125 112.058594 51.390625 112.058594 C 59.109375 112.058594 64.4375 110.957031 67.191406 109.578125 L 67.191406 82.292969 L 48.542969 82.292969 L 48.542969 72.742188 L 78.675781 72.742188 L 78.675781 116.746094 Z M 78.765625 116.746094 " fill-opacity="1" fill-rule="nonzero"/><path fill="#ffffff" d="M 105.960938 87.164062 C 106.234375 103.515625 116.707031 110.222656 128.742188 110.222656 C 137.378906 110.222656 142.613281 108.753906 147.207031 106.824219 L 149.230469 115.457031 C 145.003906 117.386719 137.652344 119.59375 127.089844 119.59375 C 106.601562 119.59375 94.382812 106.089844 94.382812 86.0625 C 94.382812 66.035156 106.234375 50.234375 125.617188 50.234375 C 147.300781 50.234375 153.085938 69.339844 153.085938 81.558594 C 153.085938 84.039062 152.8125 85.96875 152.71875 87.164062 Z M 141.421875 78.527344 C 141.605469 70.8125 138.296875 58.867188 124.699219 58.867188 C 112.480469 58.867188 107.0625 70.167969 106.144531 78.527344 Z M 141.421875 78.527344 " fill-opacity="1" fill-rule="nonzero"/><path fill="#ffffff" d="M 168.152344 69.707031 C 168.152344 62.820312 168.0625 57.214844 167.601562 51.703125 L 178.351562 51.703125 L 178.992188 62.726562 L 179.269531 62.726562 C 182.578125 56.386719 190.292969 50.234375 201.226562 50.234375 C 210.414062 50.234375 224.742188 55.746094 224.742188 78.527344 L 224.742188 118.214844 L 212.617188 118.214844 L 212.617188 79.90625 C 212.617188 69.15625 208.667969 60.246094 197.183594 60.246094 C 189.191406 60.246094 183.035156 65.851562 180.921875 72.648438 C 180.371094 74.117188 180.097656 76.230469 180.097656 78.253906 L 180.097656 118.214844 L 167.96875 118.214844 L 167.96875 69.707031 Z M 168.152344 69.707031 " fill-opacity="1" fill-rule="nonzero"/><path fill="#ffffff" d="M 251.109375 87.164062 C 251.386719 103.515625 261.859375 110.222656 273.890625 110.222656 C 282.527344 110.222656 287.765625 108.753906 292.265625 106.824219 L 294.285156 115.457031 C 290.0625 117.386719 282.710938 119.59375 272.148438 119.59375 C 251.660156 119.59375 239.441406 106.089844 239.441406 86.0625 C 239.441406 66.035156 251.292969 50.234375 270.675781 50.234375 C 292.359375 50.234375 298.144531 69.339844 298.144531 81.558594 C 298.144531 84.039062 297.871094 85.96875 297.777344 87.164062 Z M 286.570312 78.527344 C 286.660156 70.8125 283.445312 58.867188 269.757812 58.867188 C 257.539062 58.867188 252.210938 70.167969 251.199219 78.527344 Z M 286.570312 78.527344 " fill-opacity="1" fill-rule="nonzero"/><path fill="#ffffff" d="M 311.648438 105.90625 C 315.230469 108.199219 321.570312 110.679688 327.632812 110.679688 C 336.453125 110.679688 340.585938 106.273438 340.585938 100.761719 C 340.585938 94.972656 337.1875 91.847656 328.1875 88.542969 C 316.242188 84.316406 310.640625 77.703125 310.640625 69.707031 C 310.640625 58.960938 319.273438 50.234375 333.605469 50.234375 C 340.3125 50.234375 346.285156 52.164062 349.957031 54.367188 L 346.925781 63.1875 C 344.355469 61.53125 339.484375 59.328125 333.332031 59.328125 C 326.164062 59.328125 322.214844 63.460938 322.214844 68.421875 C 322.214844 73.933594 326.164062 76.414062 334.890625 79.722656 C 346.46875 84.132812 352.347656 89.917969 352.347656 99.75 C 352.347656 111.417969 343.25 119.683594 327.449219 119.683594 C 320.191406 119.683594 313.394531 117.9375 308.710938 115.183594 Z M 311.648438 105.90625 " fill-opacity="1" fill-rule="nonzero"/><path fill="#ffffff" d="M 367.6875 118.214844 L 367.6875 57.582031 L 379.816406 53.449219 L 379.816406 118.214844 Z M 367.6875 118.214844 " fill-opacity="1" fill-rule="nonzero"/><path fill="#ffffff" d="M 398.1875 105.90625 C 401.769531 108.199219 408.109375 110.679688 414.171875 110.679688 C 422.992188 110.679688 427.125 106.273438 427.125 100.761719 C 427.125 94.972656 423.726562 91.847656 414.722656 88.542969 C 402.78125 84.316406 397.085938 77.703125 397.085938 69.707031 C 397.085938 58.960938 405.722656 50.234375 420.050781 50.234375 C 426.757812 50.234375 432.730469 52.164062 436.40625 54.367188 L 433.375 63.1875 C 430.800781 61.53125 425.933594 59.328125 419.777344 59.328125 C 412.609375 59.328125 408.660156 63.460938 408.660156 68.421875 C 408.660156 73.933594 412.609375 76.414062 421.339844 79.722656 C 432.914062 84.132812 438.792969 89.917969 438.792969 99.75 C 438.792969 111.417969 429.699219 119.683594 413.898438 119.683594 C 406.640625 119.683594 399.839844 117.9375 395.15625 115.183594 Z M 398.1875 105.90625 " fill-opacity="1" fill-rule="nonzero"/><path fill="#ffffff" d="M 99.070312 136.128906 C 95.394531 136.128906 92.457031 137.230469 89.976562 139.34375 C 87.125 141.917969 85.65625 145.222656 85.65625 149.359375 C 85.65625 153.492188 87.125 156.796875 89.976562 159.371094 C 92.363281 161.484375 95.394531 162.585938 99.070312 162.585938 C 102.746094 162.585938 105.777344 161.484375 108.164062 159.371094 C 109.632812 158.085938 110.738281 156.523438 111.472656 154.6875 C 112.113281 153.03125 112.480469 151.285156 112.480469 149.542969 C 112.480469 145.222656 111.011719 141.824219 108.164062 139.34375 C 105.777344 137.230469 102.652344 136.128906 99.070312 136.128906 Z M 98.976562 129.699219 C 105.59375 129.699219 110.828125 131.445312 114.777344 135.117188 C 118.914062 138.882812 120.933594 143.753906 120.933594 149.632812 C 120.933594 153.308594 119.921875 156.707031 117.996094 159.832031 C 114.136719 165.984375 107.796875 169.109375 99.070312 169.109375 C 92.457031 169.109375 87.21875 167.363281 83.359375 163.78125 C 81.246094 161.851562 79.6875 159.554688 78.582031 156.890625 C 77.664062 154.503906 77.207031 152.023438 77.207031 149.449219 C 77.207031 145.683594 78.214844 142.191406 80.144531 138.976562 C 83.820312 132.914062 90.160156 129.789062 98.976562 129.699219 Z M 98.976562 129.699219 " fill-opacity="1" fill-rule="nonzero"/><path fill="#ffffff" d="M 68.570312 168.464844 L 60.210938 168.464844 L 60.210938 130.339844 L 68.476562 130.339844 Z M 68.570312 168.464844 " fill-opacity="1" fill-rule="nonzero"/><path fill="#ffffff" d="M 194.335938 153.492188 L 188.179688 139.894531 L 181.933594 153.492188 Z M 196.722656 158.726562 L 179.453125 158.726562 L 174.769531 168.464844 L 166.683594 168.464844 C 172.746094 155.789062 178.992188 143.109375 185.058594 130.339844 L 191.945312 130.339844 C 198.195312 143.019531 204.53125 155.695312 210.871094 168.464844 L 201.59375 168.464844 L 196.90625 158.910156 Z M 196.722656 158.726562 " fill-opacity="1" fill-rule="evenodd"/><path fill="#ffffff" d="M 314.222656 142.375 C 314.222656 151.101562 314.222656 159.738281 314.222656 168.464844 L 306.597656 168.464844 C 306.597656 155.789062 306.597656 143.109375 306.597656 130.433594 L 313.945312 130.433594 C 322.03125 138.882812 330.113281 147.429688 338.289062 155.878906 C 338.289062 147.429688 338.289062 138.882812 338.289062 130.433594 L 345.914062 130.433594 C 345.914062 143.109375 345.914062 155.789062 345.914062 168.464844 L 339.394531 168.464844 C 330.941406 159.738281 322.582031 151.011719 314.222656 142.375 Z M 314.222656 142.375 " fill-opacity="1" fill-rule="evenodd"/><path fill="#ffffff" d="M 407.097656 146.601562 L 419.960938 146.601562 C 421.890625 146.601562 423.175781 146.507812 424.003906 146.417969 C 424.828125 146.324219 425.472656 146.050781 426.117188 145.683594 C 427.492188 144.949219 428.230469 143.570312 428.230469 141.546875 C 428.230469 139.527344 427.492188 138.148438 426.117188 137.414062 C 425.472656 137.046875 424.738281 136.773438 424.003906 136.679688 C 423.269531 136.589844 421.890625 136.496094 419.960938 136.496094 L 407.097656 136.496094 Z M 407.097656 152.941406 C 407.097656 158.085938 407.097656 163.320312 407.097656 168.464844 L 398.738281 168.464844 L 398.738281 130.339844 L 420.789062 130.339844 C 423.726562 130.339844 426.023438 130.523438 427.675781 130.800781 C 429.421875 131.167969 430.894531 131.71875 432.179688 132.546875 C 433.648438 133.554688 434.75 134.84375 435.484375 136.496094 C 436.128906 138.058594 436.496094 139.804688 436.496094 141.640625 C 436.496094 147.886719 433.003906 151.46875 426.117188 152.574219 L 437.046875 168.375 L 427.859375 168.375 C 424.277344 163.230469 420.695312 157.992188 417.113281 152.847656 L 407.097656 152.847656 Z M 407.097656 152.941406 " fill-opacity="1" fill-rule="evenodd"/><path fill="#ffffff" d="M 363.460938 151.746094 L 363.460938 162.21875 L 390.195312 162.21875 L 390.195312 168.464844 L 355.195312 168.464844 L 355.195312 130.339844 C 366.863281 130.339844 378.527344 130.339844 390.195312 130.339844 L 390.195312 136.589844 L 363.460938 136.589844 L 363.460938 145.589844 C 369.617188 145.589844 375.679688 145.589844 381.835938 145.589844 L 381.835938 151.652344 C 375.679688 151.652344 369.617188 151.746094 363.460938 151.746094 Z M 363.460938 151.746094 " fill-opacity="1" fill-rule="evenodd"/><path fill="#ffffff" d="M 262.683594 130.339844 C 274.902344 130.339844 287.121094 130.339844 299.339844 130.339844 L 299.339844 136.679688 C 294.5625 136.679688 289.878906 136.679688 285.101562 136.679688 C 285.101562 147.246094 285.101562 157.902344 285.101562 168.464844 L 276.832031 168.464844 C 276.832031 157.902344 276.832031 147.246094 276.832031 136.679688 L 262.777344 136.679688 L 262.777344 130.339844 Z M 262.683594 130.339844 " fill-opacity="1" fill-rule="evenodd"/><path fill="#ffffff" d="M 226.855469 146.601562 L 239.71875 146.601562 C 241.648438 146.601562 242.933594 146.507812 243.761719 146.417969 C 244.585938 146.324219 245.230469 146.050781 245.871094 145.683594 C 247.34375 144.949219 247.984375 143.570312 247.984375 141.546875 C 247.984375 139.527344 247.25 138.148438 245.871094 137.414062 C 245.230469 137.046875 244.496094 136.773438 243.761719 136.679688 C 243.023438 136.589844 241.648438 136.496094 239.71875 136.496094 L 226.855469 136.496094 Z M 226.855469 152.941406 C 226.855469 158.085938 226.855469 163.320312 226.855469 168.464844 L 218.496094 168.464844 L 218.496094 130.339844 L 240.542969 130.339844 C 243.484375 130.339844 245.78125 130.523438 247.433594 130.800781 C 249.179688 131.167969 250.648438 131.71875 251.9375 132.546875 C 253.40625 133.554688 254.507812 134.84375 255.242188 136.496094 C 255.886719 138.058594 256.253906 139.804688 256.253906 141.640625 C 256.253906 147.886719 252.761719 151.46875 245.871094 152.574219 L 256.804688 168.375 L 247.617188 168.375 L 237.511719 153.582031 L 236.960938 152.847656 L 226.855469 152.847656 Z M 226.855469 152.941406 " fill-opacity="1" fill-rule="evenodd"/><path fill="#ffffff" d="M 138.386719 146.691406 L 151.066406 146.691406 C 153.636719 146.691406 155.382812 146.417969 156.394531 145.867188 C 157.039062 145.5 157.589844 144.949219 157.957031 144.214844 C 158.324219 143.476562 158.597656 142.558594 158.597656 141.640625 C 158.597656 140.722656 158.414062 139.894531 157.957031 139.070312 C 157.589844 138.332031 157.039062 137.691406 156.394531 137.414062 C 155.382812 136.863281 153.636719 136.589844 151.066406 136.589844 L 138.386719 136.589844 Z M 138.386719 153.03125 C 138.386719 158.175781 138.386719 163.320312 138.386719 168.464844 L 130.027344 168.464844 C 130.027344 156.707031 130.027344 145.039062 130.027344 133.28125 L 130.027344 130.433594 L 151.984375 130.433594 C 154.742188 130.433594 156.945312 130.617188 158.597656 130.984375 C 160.253906 131.351562 161.632812 131.996094 162.917969 132.914062 C 164.203125 133.832031 165.214844 135.117188 165.949219 136.679688 C 166.683594 138.242188 167.050781 139.988281 167.050781 141.734375 C 167.050781 144.304688 166.40625 146.507812 165.03125 148.53125 C 163.835938 150.183594 162.273438 151.378906 160.34375 152.023438 C 158.414062 152.757812 155.660156 153.03125 152.167969 153.03125 Z M 138.386719 153.03125 " fill-opacity="1" fill-rule="evenodd"/><path fill="#ffffff" d="M 11.335938 130.339844 L 35.863281 130.339844 C 38.4375 130.339844 40.457031 130.523438 42.019531 130.890625 C 43.582031 131.257812 44.867188 131.902344 46.0625 132.820312 C 48.359375 134.660156 49.554688 137.230469 49.554688 140.628906 C 49.554688 144.398438 47.808594 147.152344 44.226562 148.804688 C 48.632812 150.460938 50.839844 153.492188 50.839844 157.992188 C 50.839844 161.574219 49.554688 164.332031 46.980469 166.351562 C 45.695312 167.363281 44.226562 168.097656 42.480469 168.558594 C 40.734375 169.015625 38.714844 169.199219 36.140625 169.199219 L 11.335938 169.199219 Z M 19.878906 162.863281 L 34.304688 162.863281 C 36.96875 162.863281 38.898438 162.496094 40.089844 161.757812 C 41.46875 160.933594 42.113281 159.460938 42.113281 157.535156 C 42.113281 155.605469 41.46875 154.226562 40.089844 153.308594 C 38.898438 152.574219 36.96875 152.207031 34.304688 152.207031 L 19.878906 152.207031 Z M 19.878906 145.867188 L 34.855469 145.867188 C 37.152344 145.867188 38.714844 145.5 39.632812 144.855469 C 40.640625 144.121094 41.101562 142.925781 41.101562 141.273438 C 41.101562 139.621094 40.640625 138.425781 39.632812 137.78125 C 38.714844 137.046875 37.058594 136.773438 34.761719 136.773438 L 19.878906 136.773438 Z M 19.878906 145.867188 " fill-opacity="1" fill-rule="evenodd"/></svg>