<svg xmlns="http://www.w3.org/2000/svg" xmlns:xlink="http://www.w3.org/1999/xlink" width="595" zoomAndPan="magnify" viewBox="0 0 446.25 185.249993" height="247" preserveAspectRatio="xMidYMid meet" version="1.0"><defs><clipPath id="c2c0531f6f"><path d="M 7.984375 0 L 65 0 L 65 184.503906 L 7.984375 184.503906 Z M 7.984375 0 " clip-rule="nonzero"/></clipPath><clipPath id="478694c8b3"><path d="M 237 100 L 437.492188 100 L 437.492188 132 L 237 132 Z M 237 100 " clip-rule="nonzero"/></clipPath></defs><g clip-path="url(#c2c0531f6f)"><path fill="#ffffff" d="M 64.019531 17.710938 L 7.984375 0 L 7.984375 131.109375 L 64.019531 184.503906 Z M 64.019531 17.710938 " fill-opacity="1" fill-rule="nonzero"/></g><path fill="#ffffff" d="M 97.855469 131.109375 L 97.855469 79.828125 L 109.75 79.828125 L 122.964844 106.523438 C 129.574219 120.269531 138.296875 128.464844 149.398438 130.84375 L 97.855469 130.84375 Z M 136.710938 0 L 111.335938 50.75 L 97.855469 50.75 L 97.855469 0 Z M 136.710938 0 " fill-opacity="1" fill-rule="nonzero"/><path fill="#ffffff" d="M 208.078125 0 L 208.078125 131.109375 L 179.003906 131.109375 L 179.003906 106.523438 L 170.808594 106.523438 C 164.992188 106.523438 160.765625 103.351562 157.59375 97.007812 L 139.882812 62.648438 L 172.660156 0 L 208.34375 0 Z M 208.078125 0 " fill-opacity="1" fill-rule="nonzero"/><g clip-path="url(#478694c8b3)"><path fill="#ffffff" d="M 303.238281 106.523438 L 308.789062 106.523438 L 308.789062 127.40625 L 319.097656 127.40625 L 319.097656 131.371094 L 303.238281 131.371094 Z M 324.914062 106.523438 L 324.914062 110.488281 L 332.050781 110.488281 L 332.050781 131.371094 L 337.601562 131.371094 L 337.601562 110.488281 L 344.738281 110.488281 L 344.738281 106.523438 Z M 258.300781 127.144531 C 256.453125 127.9375 255.394531 127.40625 254.601562 126.085938 L 250.371094 118.421875 L 256.714844 106.523438 L 251.164062 106.523438 L 245.878906 116.835938 L 242.707031 116.835938 L 242.707031 106.523438 L 237.15625 106.523438 L 237.15625 131.109375 L 242.707031 131.109375 L 242.707031 121.0625 L 245.613281 121.0625 L 249.316406 127.671875 C 251.429688 131.371094 254.074219 132.429688 258.039062 130.578125 Z M 437.515625 127.144531 C 435.667969 127.9375 434.609375 127.40625 433.816406 126.085938 L 431.171875 121.328125 C 434.875 120.269531 436.195312 116.835938 435.929688 113.132812 C 435.667969 108.902344 432.757812 106.261719 424.828125 106.261719 L 416.636719 106.261719 L 416.636719 130.84375 L 422.1875 130.84375 L 422.1875 122.121094 L 425.359375 122.121094 L 428.53125 127.40625 C 430.644531 131.109375 433.289062 132.164062 437.253906 130.316406 L 437.515625 126.878906 Z M 426.152344 118.949219 L 422.449219 118.949219 L 422.449219 110.488281 L 425.09375 110.488281 C 428 110.488281 430.378906 111.28125 430.644531 114.457031 C 430.644531 117.363281 429.058594 118.949219 426.152344 118.949219 Z M 279.976562 131.636719 C 273.367188 131.636719 270.195312 128.464844 270.195312 122.386719 L 270.195312 106.789062 L 275.746094 106.789062 L 275.746094 122.121094 C 275.746094 127.40625 278.390625 127.40625 279.976562 127.40625 C 281.5625 127.40625 284.207031 127.40625 284.207031 122.121094 L 284.207031 106.789062 L 289.757812 106.789062 L 289.757812 122.386719 C 289.757812 128.464844 286.847656 131.636719 279.976562 131.636719 Z M 353.195312 106.523438 L 353.195312 110.488281 L 360.332031 110.488281 L 360.332031 131.371094 L 365.882812 131.371094 L 365.882812 110.488281 L 373.019531 110.488281 L 373.019531 106.523438 Z M 393.109375 131.636719 C 386.5 131.636719 383.328125 128.464844 383.328125 122.386719 L 383.328125 106.789062 L 388.878906 106.789062 L 388.878906 122.121094 C 388.878906 127.40625 391.523438 127.40625 393.109375 127.40625 C 394.695312 127.40625 397.339844 127.40625 397.339844 122.121094 L 397.339844 106.789062 L 402.890625 106.789062 L 402.890625 122.386719 C 402.890625 128.464844 399.980469 131.636719 393.109375 131.636719 Z M 399.1875 104.144531 L 394.695312 104.144531 L 394.695312 100.179688 L 399.1875 100.179688 Z M 391.257812 104.144531 L 386.765625 104.144531 L 386.765625 100.179688 L 391.257812 100.179688 Z M 391.257812 104.144531 " fill-opacity="1" fill-rule="nonzero"/></g></svg>