<svg xmlns="http://www.w3.org/2000/svg" xmlns:xlink="http://www.w3.org/1999/xlink" width="595" zoomAndPan="magnify" viewBox="0 0 446.25 185.249993" height="247" preserveAspectRatio="xMidYMid meet" version="1.0"><defs><clipPath id="b53c055674"><path d="M 1 76 L 29 76 L 29 123.863281 L 1 123.863281 Z M 1 76 " clip-rule="nonzero"/></clipPath><clipPath id="9bf1f65f1c"><path d="M 417 76 L 444 76 L 444 123.863281 L 417 123.863281 Z M 417 76 " clip-rule="nonzero"/></clipPath></defs><path fill="#ffffff" d="M 121.167969 76.863281 C 121.203125 76.863281 121.234375 76.855469 121.269531 76.84375 C 121.300781 76.832031 121.328125 76.8125 121.351562 76.785156 C 121.375 76.761719 121.394531 76.730469 121.40625 76.699219 C 121.417969 76.667969 121.421875 76.632812 121.421875 76.597656 C 121.347656 75.125 121.378906 73.742188 121.511719 72.449219 C 121.972656 67.949219 124.859375 64.261719 129.261719 62.882812 C 131.234375 62.261719 133.371094 62.027344 135.667969 62.175781 C 135.734375 62.179688 135.769531 62.214844 135.769531 62.285156 L 135.761719 65.003906 C 135.761719 65.027344 135.753906 65.050781 135.738281 65.066406 C 135.722656 65.082031 135.703125 65.09375 135.679688 65.09375 C 134.019531 65.242188 132.273438 65.253906 130.722656 65.714844 C 128.316406 66.429688 126.617188 68.035156 125.621094 70.539062 C 124.859375 72.453125 124.90625 74.652344 124.957031 76.730469 C 124.960938 76.765625 124.972656 76.800781 125 76.824219 C 125.023438 76.847656 125.058594 76.859375 125.089844 76.859375 L 135.6875 76.859375 C 135.710938 76.859375 135.730469 76.867188 135.746094 76.882812 C 135.761719 76.898438 135.769531 76.917969 135.769531 76.9375 L 135.765625 79.902344 C 135.765625 79.917969 135.761719 79.929688 135.757812 79.945312 C 135.75 79.957031 135.742188 79.96875 135.734375 79.980469 C 135.722656 79.988281 135.710938 79.996094 135.695312 80.003906 C 135.683594 80.007812 135.667969 80.011719 135.652344 80.011719 L 125.175781 80.015625 C 125.023438 80.015625 124.949219 80.089844 124.949219 80.242188 L 124.949219 108.789062 C 124.949219 108.933594 124.878906 109.003906 124.738281 109.003906 L 121.605469 108.992188 C 121.46875 108.992188 121.398438 108.925781 121.398438 108.789062 L 121.398438 80.316406 C 121.398438 80.117188 121.300781 80.019531 121.097656 80.019531 L 116.320312 80.011719 C 116.199219 80.007812 116.140625 79.949219 116.140625 79.828125 L 116.136719 77.082031 C 116.136719 76.929688 116.214844 76.855469 116.363281 76.855469 Z M 121.167969 76.863281 " fill-opacity="1" fill-rule="nonzero"/><path fill="#ffffff" d="M 153.1875 62.515625 L 149.976562 62.515625 C 149.882812 62.515625 149.804688 62.59375 149.804688 62.683594 L 149.804688 66.964844 C 149.804688 67.058594 149.882812 67.132812 149.976562 67.132812 L 153.1875 67.132812 C 153.28125 67.132812 153.355469 67.058594 153.355469 66.964844 L 153.355469 62.683594 C 153.355469 62.59375 153.28125 62.515625 153.1875 62.515625 Z M 153.1875 62.515625 " fill-opacity="1" fill-rule="nonzero"/><path fill="#ffffff" d="M 170.621094 79.996094 C 170.59375 79.996094 170.566406 80.007812 170.550781 80.023438 C 170.53125 80.042969 170.519531 80.066406 170.519531 80.09375 L 170.519531 108.789062 C 170.519531 108.84375 170.496094 108.898438 170.457031 108.9375 C 170.417969 108.976562 170.367188 108.996094 170.308594 108.996094 L 166.898438 109.003906 C 166.867188 109.003906 166.835938 108.988281 166.8125 108.96875 C 166.789062 108.945312 166.777344 108.914062 166.777344 108.882812 L 166.777344 62.566406 C 166.777344 62.527344 166.796875 62.507812 166.832031 62.507812 L 170.378906 62.519531 C 170.472656 62.523438 170.519531 62.570312 170.519531 62.660156 L 170.519531 76.722656 C 170.519531 76.820312 170.566406 76.867188 170.664062 76.867188 C 174.121094 76.84375 177.746094 76.851562 181.546875 76.886719 C 185.339844 76.925781 188.433594 78.25 190.824219 80.867188 C 192.796875 83.027344 193.328125 85.445312 193.320312 88.296875 C 193.300781 95.160156 193.296875 101.992188 193.3125 108.796875 C 193.3125 108.933594 193.242188 109.003906 193.105469 109.003906 L 189.753906 109 C 189.636719 109 189.578125 108.941406 189.578125 108.824219 C 189.574219 101.882812 189.574219 94.832031 189.582031 87.679688 C 189.582031 86.910156 189.511719 86.179688 189.375 85.488281 C 188.875 83.003906 186.507812 81.027344 184.222656 80.363281 C 183.367188 80.117188 182.339844 79.992188 181.132812 79.992188 C 177.527344 79.996094 174.023438 80 170.621094 79.996094 Z M 170.621094 79.996094 " fill-opacity="1" fill-rule="nonzero"/><path fill="#ffffff" d="M 250.011719 62.515625 L 246.554688 62.515625 C 246.492188 62.515625 246.441406 62.566406 246.441406 62.628906 L 246.441406 67.023438 C 246.441406 67.082031 246.492188 67.132812 246.554688 67.132812 L 250.011719 67.132812 C 250.070312 67.132812 250.121094 67.082031 250.121094 67.023438 L 250.121094 62.628906 C 250.121094 62.566406 250.070312 62.515625 250.011719 62.515625 Z M 250.011719 62.515625 " fill-opacity="1" fill-rule="nonzero"/><path fill="#ffffff" d="M 341.035156 80.183594 L 341.035156 108.800781 C 341.035156 108.9375 340.964844 109.003906 340.824219 109.003906 L 337.625 108.992188 C 337.488281 108.992188 337.421875 108.921875 337.421875 108.789062 L 337.421875 62.660156 C 337.421875 62.566406 337.46875 62.515625 337.566406 62.515625 L 340.859375 62.519531 C 340.976562 62.519531 341.035156 62.578125 341.035156 62.6875 L 341.035156 76.480469 C 341.035156 76.582031 341.074219 76.679688 341.144531 76.75 C 341.214844 76.820312 341.3125 76.859375 341.414062 76.859375 C 345.125 76.851562 348.730469 76.859375 352.238281 76.886719 C 355.851562 76.90625 358.882812 78.183594 361.328125 80.71875 C 362.492188 81.925781 363.234375 83.261719 363.5625 84.726562 C 363.757812 85.59375 363.855469 86.640625 363.851562 87.871094 C 363.851562 95.058594 363.847656 102.050781 363.847656 108.847656 C 363.847656 108.886719 363.832031 108.929688 363.804688 108.957031 C 363.773438 108.984375 363.734375 109.003906 363.691406 109.003906 L 360.363281 108.992188 C 360.261719 108.992188 360.214844 108.945312 360.214844 108.851562 C 360.195312 101.75 360.203125 94.964844 360.234375 88.488281 C 360.238281 87.71875 360.210938 86.960938 360.15625 86.214844 C 359.929688 83.238281 357.082031 80.78125 354.316406 80.226562 C 353.492188 80.058594 352.535156 79.980469 351.445312 79.984375 C 347.917969 80 344.511719 80.003906 341.226562 79.992188 C 341.199219 79.992188 341.175781 80 341.152344 80.007812 C 341.128906 80.019531 341.105469 80.03125 341.089844 80.050781 C 341.070312 80.066406 341.058594 80.089844 341.046875 80.113281 C 341.039062 80.136719 341.035156 80.160156 341.035156 80.183594 Z M 341.035156 80.183594 " fill-opacity="1" fill-rule="nonzero"/><g clip-path="url(#b53c055674)"><path fill="#ffffff" d="M 5.636719 109.515625 C 5.472656 109.511719 5.390625 109.59375 5.390625 109.757812 L 5.394531 123.449219 C 5.394531 123.507812 5.371094 123.5625 5.332031 123.605469 C 5.289062 123.644531 5.234375 123.667969 5.175781 123.667969 L 2.082031 123.660156 C 2.023438 123.660156 1.96875 123.640625 1.925781 123.597656 C 1.886719 123.558594 1.863281 123.5 1.863281 123.445312 L 1.855469 77.003906 C 1.855469 76.980469 1.863281 76.953125 1.882812 76.933594 C 1.902344 76.914062 1.929688 76.90625 1.953125 76.90625 C 6.800781 76.875 11.480469 76.882812 15.992188 76.925781 C 20.347656 76.96875 24.027344 78.390625 26.597656 81.882812 C 28.128906 83.972656 28.226562 86.011719 28.207031 88.671875 C 28.179688 92.398438 28.175781 96.070312 28.195312 99.6875 C 28.203125 101.480469 27.664062 103.125 26.578125 104.621094 C 24.128906 108.003906 20.386719 109.421875 16.210938 109.484375 C 12.710938 109.539062 9.183594 109.546875 5.636719 109.515625 Z M 5.429688 80.394531 L 5.339844 106.066406 C 5.339844 106.183594 5.386719 106.292969 5.46875 106.375 C 5.546875 106.457031 5.660156 106.503906 5.773438 106.503906 L 16.644531 106.542969 C 17.691406 106.546875 18.730469 106.355469 19.699219 105.988281 C 20.671875 105.621094 21.550781 105.078125 22.296875 104.394531 C 23.039062 103.710938 23.628906 102.894531 24.035156 102 C 24.4375 101.101562 24.648438 100.140625 24.652344 99.167969 L 24.691406 87.421875 C 24.699219 85.460938 23.867188 83.574219 22.375 82.183594 C 20.882812 80.789062 18.855469 80.003906 16.738281 79.996094 L 5.871094 79.957031 C 5.8125 79.957031 5.753906 79.96875 5.703125 79.992188 C 5.648438 80.011719 5.597656 80.042969 5.558594 80.085938 C 5.515625 80.125 5.484375 80.171875 5.460938 80.226562 C 5.441406 80.28125 5.429688 80.335938 5.429688 80.394531 Z M 5.429688 80.394531 " fill-opacity="1" fill-rule="nonzero"/></g><path fill="#ffffff" d="M 58.558594 80.074219 L 45.449219 80.070312 C 45.4375 80.070312 45.421875 80.074219 45.410156 80.078125 C 45.398438 80.082031 45.386719 80.089844 45.375 80.101562 C 45.367188 80.113281 45.359375 80.121094 45.351562 80.136719 C 45.347656 80.148438 45.34375 80.164062 45.34375 80.175781 L 45.34375 108.898438 C 45.34375 108.929688 45.332031 108.953125 45.3125 108.972656 C 45.292969 108.996094 45.265625 109.003906 45.238281 109.003906 L 41.652344 109 C 41.640625 109 41.625 108.996094 41.613281 108.992188 C 41.601562 108.984375 41.589844 108.976562 41.578125 108.96875 C 41.570312 108.957031 41.5625 108.949219 41.554688 108.933594 C 41.550781 108.921875 41.546875 108.90625 41.546875 108.894531 L 41.554688 77 C 41.554688 76.972656 41.566406 76.945312 41.585938 76.925781 C 41.605469 76.90625 41.632812 76.894531 41.660156 76.894531 L 62.34375 76.894531 C 62.375 76.894531 62.398438 76.90625 62.421875 76.925781 C 62.441406 76.945312 62.453125 76.972656 62.453125 77 L 62.453125 84.402344 C 62.453125 84.417969 62.449219 84.433594 62.441406 84.445312 C 62.4375 84.457031 62.429688 84.46875 62.421875 84.480469 C 62.410156 84.488281 62.398438 84.496094 62.386719 84.503906 C 62.371094 84.507812 62.359375 84.511719 62.34375 84.511719 L 58.777344 84.519531 C 58.765625 84.519531 58.75 84.515625 58.738281 84.511719 C 58.726562 84.503906 58.714844 84.496094 58.703125 84.488281 C 58.695312 84.476562 58.6875 84.464844 58.679688 84.453125 C 58.675781 84.441406 58.671875 84.425781 58.671875 84.414062 L 58.664062 80.179688 C 58.664062 80.152344 58.652344 80.125 58.632812 80.105469 C 58.613281 80.085938 58.585938 80.074219 58.558594 80.074219 Z M 58.558594 80.074219 " fill-opacity="1" fill-rule="nonzero"/><path fill="#ffffff" d="M 229.402344 91.429688 C 229.445312 89.921875 229.449219 88.507812 229.414062 87.1875 C 229.273438 82.148438 224.742188 80.019531 220.226562 80.050781 C 216.707031 80.070312 213.371094 80.078125 210.214844 80.074219 C 210.1875 80.074219 210.167969 80.070312 210.144531 80.058594 C 210.121094 80.050781 210.101562 80.035156 210.085938 80.019531 C 210.070312 80.003906 210.054688 79.984375 210.046875 79.960938 C 210.039062 79.9375 210.035156 79.914062 210.035156 79.890625 L 210.039062 77.074219 C 210.039062 76.953125 210.101562 76.894531 210.21875 76.894531 C 213.5625 76.875 216.769531 76.890625 219.839844 76.941406 C 224.925781 77.027344 231.496094 79.035156 232.714844 84.753906 C 232.898438 85.613281 232.984375 86.636719 232.980469 87.824219 C 232.945312 94.234375 232.9375 101.390625 232.964844 109.292969 C 232.964844 109.351562 232.941406 109.40625 232.898438 109.449219 C 232.859375 109.492188 232.800781 109.515625 232.742188 109.515625 C 228.503906 109.535156 224.261719 109.542969 220.015625 109.53125 C 217.269531 109.527344 214.527344 109.449219 211.902344 108.371094 C 207.902344 106.738281 206.015625 103.15625 206.785156 98.800781 C 207.429688 95.125 210.410156 92.894531 213.898438 92.128906 C 215.476562 91.78125 217.300781 91.675781 218.949219 91.671875 C 222.355469 91.65625 225.757812 91.652344 229.164062 91.660156 C 229.226562 91.660156 229.285156 91.632812 229.332031 91.59375 C 229.375 91.550781 229.398438 91.492188 229.402344 91.429688 Z M 229.355469 106.285156 L 229.476562 95.1875 C 229.476562 95.144531 229.46875 95.105469 229.453125 95.070312 C 229.441406 95.035156 229.417969 95 229.390625 94.972656 C 229.359375 94.945312 229.328125 94.921875 229.292969 94.90625 C 229.253906 94.890625 229.214844 94.882812 229.175781 94.882812 L 216.75 94.753906 C 215.058594 94.734375 213.429688 95.273438 212.222656 96.253906 C 211.015625 97.234375 210.324219 98.570312 210.3125 99.972656 L 210.300781 101.097656 C 210.292969 101.792969 210.449219 102.480469 210.761719 103.125 C 211.078125 103.773438 211.539062 104.359375 212.128906 104.855469 C 212.714844 105.355469 213.414062 105.75 214.1875 106.023438 C 214.960938 106.300781 215.789062 106.445312 216.625 106.453125 L 229.050781 106.582031 C 229.09375 106.582031 229.132812 106.574219 229.167969 106.5625 C 229.207031 106.546875 229.238281 106.523438 229.265625 106.496094 C 229.296875 106.46875 229.316406 106.4375 229.332031 106.398438 C 229.347656 106.363281 229.355469 106.324219 229.355469 106.285156 Z M 229.355469 106.285156 " fill-opacity="1" fill-rule="nonzero"/><path fill="#ffffff" d="M 280.464844 80.074219 L 267.1875 80.070312 C 267.152344 80.070312 267.117188 80.085938 267.089844 80.109375 C 267.0625 80.136719 267.046875 80.171875 267.046875 80.207031 L 267.050781 108.863281 C 267.050781 108.898438 267.035156 108.933594 267.011719 108.960938 C 266.984375 108.984375 266.949219 109 266.910156 109 L 263.578125 109.003906 C 263.542969 109.003906 263.507812 108.988281 263.480469 108.960938 C 263.457031 108.9375 263.441406 108.902344 263.441406 108.863281 L 263.441406 77.027344 C 263.441406 76.992188 263.457031 76.957031 263.480469 76.929688 C 263.507812 76.90625 263.542969 76.890625 263.578125 76.890625 L 284.011719 76.898438 C 284.046875 76.898438 284.082031 76.910156 284.109375 76.9375 C 284.136719 76.964844 284.148438 77 284.148438 77.035156 L 284.152344 84.371094 C 284.152344 84.410156 284.140625 84.445312 284.113281 84.46875 C 284.085938 84.496094 284.050781 84.511719 284.011719 84.511719 L 280.742188 84.511719 C 280.707031 84.511719 280.671875 84.5 280.644531 84.472656 C 280.621094 84.445312 280.605469 84.410156 280.605469 84.375 L 280.605469 80.210938 C 280.605469 80.175781 280.589844 80.140625 280.5625 80.113281 C 280.535156 80.085938 280.503906 80.074219 280.464844 80.074219 Z M 280.464844 80.074219 " fill-opacity="1" fill-rule="nonzero"/><g clip-path="url(#9bf1f65f1c)"><path fill="#ffffff" d="M 420.828125 109.527344 C 420.804688 109.527344 420.78125 109.535156 420.765625 109.554688 C 420.75 109.570312 420.738281 109.59375 420.738281 109.617188 L 420.734375 123.480469 C 420.734375 123.605469 420.671875 123.671875 420.546875 123.671875 L 417.25 123.671875 C 417.1875 123.671875 417.132812 123.648438 417.089844 123.605469 C 417.050781 123.566406 417.023438 123.507812 417.023438 123.449219 L 417.023438 77.074219 C 417.023438 76.957031 417.085938 76.898438 417.203125 76.898438 C 422.3125 76.878906 426.996094 76.886719 431.25 76.917969 C 432.855469 76.929688 434.398438 77.160156 435.886719 77.601562 C 439.042969 78.546875 442.273438 81.25 443.101562 84.464844 C 443.347656 85.429688 443.480469 86.558594 443.5 87.863281 C 443.570312 92.511719 443.558594 96.421875 443.464844 99.59375 C 443.414062 101.367188 442.945312 103.125 441.84375 104.59375 C 438.816406 108.644531 434.789062 109.519531 429.941406 109.523438 C 426.714844 109.523438 423.675781 109.523438 420.828125 109.527344 Z M 420.761719 80.21875 L 420.714844 106.253906 C 420.714844 106.289062 420.71875 106.320312 420.730469 106.351562 C 420.742188 106.382812 420.761719 106.410156 420.785156 106.433594 C 420.808594 106.457031 420.835938 106.476562 420.867188 106.488281 C 420.898438 106.503906 420.929688 106.507812 420.964844 106.507812 L 431.976562 106.527344 C 434.0625 106.53125 436.0625 105.769531 437.539062 104.410156 C 439.015625 103.050781 439.847656 101.207031 439.851562 99.28125 L 439.878906 87.261719 C 439.878906 86.308594 439.675781 85.363281 439.28125 84.484375 C 438.890625 83.601562 438.3125 82.800781 437.582031 82.125 C 436.851562 81.449219 435.988281 80.914062 435.03125 80.546875 C 434.078125 80.179688 433.054688 79.988281 432.023438 79.988281 L 421.011719 79.96875 C 420.945312 79.96875 420.882812 79.996094 420.835938 80.042969 C 420.789062 80.089844 420.761719 80.152344 420.761719 80.21875 Z M 420.761719 80.21875 " fill-opacity="1" fill-rule="nonzero"/></g><path fill="#ffffff" d="M 80.386719 106.75 C 77.421875 104.578125 75.847656 101.714844 75.832031 98.023438 C 75.824219 94.863281 75.820312 91.695312 75.828125 88.527344 C 75.828125 86.726562 76.132812 85.203125 76.734375 83.96875 C 77.800781 81.78125 79.828125 79.800781 81.921875 78.699219 C 84.808594 77.175781 87.917969 76.652344 91.25 77.128906 C 96.851562 77.929688 102.078125 82.015625 102.160156 88.015625 C 102.210938 91.769531 102.207031 95.300781 102.152344 98.617188 C 102.050781 104.707031 96.339844 108.800781 90.6875 109.375 C 86.757812 109.777344 83.324219 108.902344 80.386719 106.75 Z M 98.640625 88.863281 C 98.640625 86.519531 97.703125 84.273438 96.039062 82.617188 C 94.375 80.960938 92.113281 80.027344 89.761719 80.027344 L 88.25 80.027344 C 85.894531 80.027344 83.636719 80.960938 81.972656 82.617188 C 80.304688 84.273438 79.371094 86.519531 79.371094 88.863281 L 79.371094 97.597656 C 79.371094 99.941406 80.304688 102.1875 81.972656 103.84375 C 83.636719 105.5 85.894531 106.433594 88.25 106.433594 L 89.761719 106.433594 C 92.113281 106.433594 94.375 105.5 96.039062 103.84375 C 97.703125 102.1875 98.640625 99.941406 98.640625 97.597656 Z M 98.640625 88.863281 " fill-opacity="1" fill-rule="nonzero"/><path fill="#ffffff" d="M 297.683594 106.304688 L 298.957031 103.882812 C 299.007812 103.789062 299.082031 103.757812 299.183594 103.792969 C 300.546875 104.246094 301.898438 104.695312 303.234375 105.132812 C 307.132812 106.414062 311.082031 106.761719 315.074219 106.171875 C 317.785156 105.773438 320.6875 104.640625 320.34375 101.351562 C 320.070312 98.699219 317.417969 97.59375 315.152344 96.65625 C 312.253906 95.460938 309.359375 94.253906 306.472656 93.039062 C 302.835938 91.503906 297.945312 89.753906 297.695312 85.011719 C 297.460938 80.585938 300.238281 77.988281 304.375 77.304688 C 309.917969 76.382812 315.261719 77.535156 320.398438 79.910156 C 320.433594 79.925781 320.464844 79.949219 320.488281 79.976562 C 320.515625 80.007812 320.535156 80.042969 320.546875 80.078125 C 320.558594 80.113281 320.5625 80.152344 320.558594 80.191406 C 320.554688 80.230469 320.542969 80.265625 320.519531 80.300781 L 319.273438 82.445312 C 319.238281 82.503906 319.1875 82.550781 319.125 82.574219 C 319.0625 82.601562 318.992188 82.601562 318.929688 82.585938 C 316.613281 81.910156 314.375 81.292969 312.21875 80.722656 C 308.8125 79.828125 301.683594 79.027344 301.292969 84.242188 C 301.058594 87.441406 304.199219 88.671875 306.59375 89.652344 C 311.746094 91.757812 316.242188 93.734375 320.082031 95.582031 C 321.875 96.449219 323.429688 98.179688 323.871094 100.167969 C 324.882812 104.75 321.816406 107.753906 317.605469 108.742188 C 316.074219 109.101562 314.25 109.335938 312.128906 109.441406 C 307.296875 109.679688 302.351562 108.402344 297.78125 106.578125 C 297.648438 106.523438 297.613281 106.433594 297.683594 106.304688 Z M 297.683594 106.304688 " fill-opacity="1" fill-rule="nonzero"/><path fill="#ffffff" d="M 398.691406 107.0625 C 392.804688 111.039062 384.402344 110.105469 379.722656 104.738281 C 377.722656 102.445312 377.3125 100.085938 377.308594 97.109375 C 377.304688 93.617188 377.320312 90.46875 377.359375 87.667969 C 377.445312 81.675781 383.394531 77.597656 388.835938 77.058594 C 394 76.550781 399.363281 78.472656 402.160156 82.882812 C 403.53125 85.046875 403.699219 86.96875 403.703125 89.527344 C 403.707031 93.089844 403.6875 96.195312 403.640625 98.839844 C 403.582031 102.214844 401.492188 105.171875 398.691406 107.0625 Z M 400.140625 88.859375 C 400.140625 86.523438 399.214844 84.28125 397.558594 82.628906 C 395.898438 80.972656 393.648438 80.039062 391.300781 80.035156 L 389.742188 80.035156 C 387.394531 80.03125 385.144531 80.953125 383.480469 82.601562 C 381.816406 84.253906 380.878906 86.492188 380.875 88.828125 L 380.859375 97.601562 C 380.855469 99.9375 381.785156 102.179688 383.441406 103.835938 C 385.097656 105.488281 387.347656 106.421875 389.695312 106.425781 L 391.253906 106.429688 C 393.601562 106.433594 395.855469 105.507812 397.519531 103.859375 C 399.183594 102.210938 400.121094 99.96875 400.125 97.632812 Z M 400.140625 88.859375 " fill-opacity="1" fill-rule="nonzero"/><path fill="#ffffff" d="M 153.234375 77.453125 L 149.925781 77.453125 C 149.859375 77.453125 149.804688 77.507812 149.804688 77.574219 L 149.804688 108.886719 C 149.804688 108.953125 149.859375 109.007812 149.925781 109.007812 L 153.234375 109.007812 C 153.304688 109.007812 153.355469 108.953125 153.355469 108.886719 L 153.355469 77.574219 C 153.355469 77.507812 153.304688 77.453125 153.234375 77.453125 Z M 153.234375 77.453125 " fill-opacity="1" fill-rule="nonzero"/><path fill="#ffffff" d="M 250.035156 77.457031 L 246.53125 77.457031 C 246.480469 77.457031 246.441406 77.496094 246.441406 77.542969 L 246.441406 108.921875 C 246.441406 108.972656 246.480469 109.011719 246.53125 109.011719 L 250.035156 109.011719 C 250.082031 109.011719 250.121094 108.972656 250.121094 108.921875 L 250.121094 77.542969 C 250.121094 77.496094 250.082031 77.457031 250.035156 77.457031 Z M 250.035156 77.457031 " fill-opacity="1" fill-rule="nonzero"/></svg>