<svg xmlns="http://www.w3.org/2000/svg" xmlns:xlink="http://www.w3.org/1999/xlink" width="595" zoomAndPan="magnify" viewBox="0 0 446.25 185.249993" height="247" preserveAspectRatio="xMidYMid meet" version="1.0"><defs><clipPath id="3a53c6fb70"><path d="M 364 59 L 444.976562 59 L 444.976562 72 L 364 72 Z M 364 59 " clip-rule="nonzero"/></clipPath><clipPath id="7f778e1b23"><path d="M 364 114 L 444.976562 114 L 444.976562 128 L 364 128 Z M 364 114 " clip-rule="nonzero"/></clipPath><clipPath id="7d99714400"><path d="M 49 150 L 76 150 L 76 177.992188 L 49 177.992188 Z M 49 150 " clip-rule="nonzero"/></clipPath><clipPath id="7afc7449f5"><path d="M 257 150 L 282 150 L 282 177.992188 L 257 177.992188 Z M 257 150 " clip-rule="nonzero"/></clipPath><clipPath id="2321c15978"><path d="M 336 150 L 354 150 L 354 177.992188 L 336 177.992188 Z M 336 150 " clip-rule="nonzero"/></clipPath><clipPath id="c7035c9019"><path d="M 380 150 L 399 150 L 399 177.992188 L 380 177.992188 Z M 380 150 " clip-rule="nonzero"/></clipPath><clipPath id="a27e69ddb3"><path d="M 1 151 L 23 151 L 23 177.992188 L 1 177.992188 Z M 1 151 " clip-rule="nonzero"/></clipPath><clipPath id="b87abfc70e"><path d="M 97 151 L 119 151 L 119 177.992188 L 97 177.992188 Z M 97 151 " clip-rule="nonzero"/></clipPath><clipPath id="d43a9599a8"><path d="M 143 151 L 161 151 L 161 177.992188 L 143 177.992188 Z M 143 151 " clip-rule="nonzero"/></clipPath><clipPath id="81ff4e4a5e"><path d="M 186 151 L 203 151 L 203 177.992188 L 186 177.992188 Z M 186 151 " clip-rule="nonzero"/></clipPath><clipPath id="bde6a1a66c"><path d="M 419 150 L 443 150 L 443 177.992188 L 419 177.992188 Z M 419 150 " clip-rule="nonzero"/></clipPath></defs><path fill="#ffffff" d="M 132.191406 7.246094 C 132.980469 7.246094 133.796875 8.96875 134.652344 12.410156 C 134.746094 12.800781 134.898438 13.164062 135.117188 13.5 C 135.332031 13.835938 135.597656 14.128906 135.910156 14.375 C 136.226562 14.625 136.570312 14.8125 136.949219 14.945312 C 137.328125 15.074219 137.71875 15.140625 138.117188 15.140625 L 143.160156 15.140625 C 144.648438 15.140625 144.871094 15.664062 143.824219 16.714844 L 138.878906 21.65625 C 138.273438 22.261719 138.070312 22.976562 138.265625 23.796875 L 139.742188 29.917969 C 140.035156 31.179688 139.625 31.484375 138.511719 30.828125 C 136.773438 29.828125 134.773438 28.664062 132.511719 27.335938 C 132.460938 27.304688 132.378906 27.277344 132.265625 27.261719 C 132.199219 27.261719 132.132812 27.261719 132.070312 27.261719 C 132.035156 27.261719 131.988281 27.261719 131.921875 27.261719 C 131.808594 27.277344 131.726562 27.304688 131.675781 27.335938 C 129.414062 28.664062 127.414062 29.828125 125.675781 30.828125 C 124.5625 31.484375 124.152344 31.179688 124.445312 29.917969 L 125.921875 23.796875 C 126.117188 22.976562 125.914062 22.261719 125.308594 21.65625 L 120.363281 16.714844 C 119.332031 15.664062 119.5625 15.140625 121.054688 15.140625 L 126.09375 15.140625 C 126.496094 15.140625 126.882812 15.074219 127.261719 14.945312 C 127.640625 14.8125 127.984375 14.625 128.300781 14.375 C 128.613281 14.128906 128.878906 13.835938 129.097656 13.5 C 129.3125 13.164062 129.46875 12.800781 129.5625 12.410156 C 130.414062 8.96875 131.289062 7.246094 132.191406 7.246094 Z M 132.191406 7.246094 " fill-opacity="1" fill-rule="nonzero"/><path fill="#ffffff" d="M 170.035156 14.523438 C 170.050781 14.507812 170.089844 14.476562 170.15625 14.425781 C 170.238281 14.359375 170.289062 14.296875 170.304688 14.230469 C 171.335938 11.851562 172.253906 9.753906 173.058594 7.933594 C 173.582031 6.753906 174.089844 6.761719 174.582031 7.960938 L 176.96875 13.714844 C 177.296875 14.484375 177.878906 14.933594 178.714844 15.066406 L 185.574219 16.148438 C 187.015625 16.378906 187.140625 16.925781 185.941406 17.796875 L 181.910156 20.746094 C 181.589844 20.980469 181.320312 21.261719 181.09375 21.585938 C 180.867188 21.910156 180.703125 22.265625 180.59375 22.644531 C 180.488281 23.027344 180.445312 23.414062 180.46875 23.808594 C 180.492188 24.203125 180.578125 24.585938 180.730469 24.949219 C 182.058594 28.210938 182.351562 30.105469 181.613281 30.628906 C 180.992188 31.089844 179.328125 30.1875 176.625 27.925781 C 176.320312 27.671875 175.988281 27.472656 175.621094 27.328125 C 175.253906 27.1875 174.871094 27.105469 174.476562 27.089844 C 174.082031 27.074219 173.695312 27.125 173.320312 27.238281 C 172.941406 27.351562 172.589844 27.523438 172.269531 27.753906 L 168.238281 30.703125 C 167.042969 31.574219 166.558594 31.285156 166.789062 29.84375 L 167.84375 22.984375 C 167.976562 22.148438 167.722656 21.460938 167.082031 20.917969 L 162.335938 16.886719 C 161.371094 16.035156 161.519531 15.550781 162.78125 15.433594 C 164.761719 15.222656 167.050781 14.984375 169.640625 14.722656 C 169.691406 14.722656 169.761719 14.699219 169.863281 14.648438 C 169.925781 14.597656 169.984375 14.558594 170.035156 14.523438 Z M 170.035156 14.523438 " fill-opacity="1" fill-rule="nonzero"/><path fill="#ffffff" d="M 216.160156 27.238281 C 216.144531 27.238281 216.105469 27.246094 216.039062 27.261719 C 215.925781 27.277344 215.84375 27.304688 215.792969 27.335938 C 213.5625 28.648438 211.597656 29.804688 209.890625 30.804688 C 208.792969 31.441406 208.382812 31.140625 208.664062 29.894531 L 210.113281 23.84375 C 210.292969 23.042969 210.089844 22.335938 209.5 21.730469 L 204.582031 16.859375 C 203.546875 15.828125 203.769531 15.3125 205.246094 15.3125 L 210.234375 15.289062 C 210.628906 15.285156 211.011719 15.222656 211.386719 15.09375 C 211.757812 14.960938 212.097656 14.773438 212.410156 14.527344 C 212.71875 14.285156 212.980469 13.996094 213.191406 13.660156 C 213.40625 13.328125 213.558594 12.96875 213.652344 12.582031 C 214.472656 9.171875 215.332031 7.46875 216.234375 7.46875 C 217.007812 7.46875 217.816406 9.171875 218.667969 12.582031 C 218.765625 12.96875 218.921875 13.328125 219.140625 13.660156 C 219.355469 13.992188 219.617188 14.277344 219.929688 14.523438 C 220.242188 14.765625 220.585938 14.949219 220.960938 15.078125 C 221.332031 15.203125 221.71875 15.265625 222.113281 15.261719 L 227.105469 15.238281 C 228.578125 15.238281 228.800781 15.753906 227.765625 16.789062 L 222.898438 21.679688 C 222.292969 22.285156 222.085938 22.992188 222.285156 23.796875 L 223.757812 29.84375 C 224.054688 31.089844 223.652344 31.394531 222.554688 30.753906 C 220.832031 29.769531 218.859375 28.621094 216.628906 27.3125 C 216.578125 27.277344 216.496094 27.261719 216.382812 27.261719 C 216.316406 27.246094 216.242188 27.238281 216.160156 27.238281 Z M 216.160156 27.238281 " fill-opacity="1" fill-rule="nonzero"/><path fill="#ffffff" d="M 258.109375 27.3125 C 258.09375 27.3125 258.042969 27.3125 257.960938 27.3125 C 257.863281 27.328125 257.789062 27.351562 257.742188 27.386719 C 255.511719 28.695312 253.535156 29.84375 251.816406 30.828125 C 250.71875 31.484375 250.308594 31.1875 250.585938 29.941406 L 252.035156 23.894531 C 252.234375 23.074219 252.027344 22.367188 251.421875 21.777344 L 246.527344 16.886719 C 245.496094 15.851562 245.71875 15.335938 247.191406 15.335938 L 252.160156 15.335938 C 252.554688 15.335938 252.941406 15.273438 253.316406 15.140625 C 253.691406 15.011719 254.035156 14.824219 254.347656 14.578125 C 254.660156 14.335938 254.925781 14.046875 255.140625 13.710938 C 255.355469 13.378906 255.507812 13.019531 255.601562 12.632812 C 256.4375 9.222656 257.296875 7.515625 258.183594 7.515625 C 258.96875 7.515625 259.789062 9.214844 260.640625 12.605469 C 260.734375 12.992188 260.890625 13.347656 261.101562 13.679688 C 261.316406 14.015625 261.574219 14.304688 261.886719 14.546875 C 262.195312 14.792969 262.535156 14.980469 262.910156 15.113281 C 263.28125 15.242188 263.664062 15.308594 264.058594 15.3125 L 269.050781 15.289062 C 270.527344 15.289062 270.75 15.804688 269.714844 16.835938 L 264.847656 21.753906 C 264.242188 22.34375 264.035156 23.050781 264.230469 23.867188 L 265.707031 29.917969 C 266.003906 31.164062 265.601562 31.457031 264.503906 30.804688 C 262.78125 29.820312 260.796875 28.679688 258.550781 27.386719 C 258.503906 27.351562 258.429688 27.328125 258.332031 27.3125 C 258.25 27.3125 258.175781 27.3125 258.109375 27.3125 Z M 258.109375 27.3125 " fill-opacity="1" fill-rule="nonzero"/><path fill="#ffffff" d="M 300.277344 27.261719 C 300.261719 27.261719 300.214844 27.269531 300.132812 27.285156 C 300.03125 27.285156 299.960938 27.304688 299.910156 27.335938 C 297.664062 28.648438 295.679688 29.785156 293.960938 30.753906 C 292.863281 31.410156 292.460938 31.113281 292.753906 29.867188 L 294.230469 23.820312 C 294.425781 23.015625 294.230469 22.3125 293.640625 21.703125 L 288.773438 16.8125 C 287.738281 15.777344 287.960938 15.261719 289.433594 15.261719 L 294.425781 15.289062 C 294.820312 15.289062 295.203125 15.222656 295.574219 15.09375 C 295.949219 14.96875 296.289062 14.78125 296.597656 14.539062 C 296.910156 14.296875 297.171875 14.007812 297.382812 13.675781 C 297.597656 13.347656 297.75 12.988281 297.84375 12.605469 C 298.695312 9.214844 299.574219 7.515625 300.476562 7.515625 C 301.246094 7.515625 302.050781 9.222656 302.886719 12.632812 C 302.980469 13.015625 303.132812 13.371094 303.347656 13.703125 C 303.558594 14.03125 303.820312 14.320312 304.132812 14.5625 C 304.441406 14.804688 304.78125 14.992188 305.152344 15.121094 C 305.527344 15.25 305.910156 15.3125 306.304688 15.3125 L 311.269531 15.335938 C 312.746094 15.335938 312.964844 15.851562 311.933594 16.886719 L 307.039062 21.753906 C 306.433594 22.34375 306.230469 23.050781 306.425781 23.867188 L 307.851562 29.917969 C 308.148438 31.164062 307.746094 31.457031 306.648438 30.804688 C 304.925781 29.820312 302.949219 28.664062 300.722656 27.335938 C 300.671875 27.304688 300.597656 27.285156 300.5 27.285156 C 300.417969 27.269531 300.34375 27.261719 300.277344 27.261719 Z M 300.277344 27.261719 " fill-opacity="1" fill-rule="nonzero"/><path fill="#ebecec" d="M 1.453125 110.125 L 1.453125 104.175781 C 3.175781 103.8125 4.929688 103.757812 6.71875 104.003906 C 7.585938 104.117188 7.996094 104.617188 7.945312 105.503906 C 6.617188 130.609375 48.589844 129.746094 45.320312 108.085938 C 43.871094 98.496094 29.265625 96.847656 18.273438 94.09375 C -3.855469 88.535156 -0.488281 60.800781 21.222656 58.070312 C 38.46875 55.90625 48.222656 62.972656 50.484375 79.265625 C 50.515625 79.5 50.5 79.726562 50.433594 79.949219 C 50.367188 80.175781 50.257812 80.375 50.101562 80.550781 C 49.949219 80.726562 49.765625 80.863281 49.554688 80.960938 C 49.34375 81.058594 49.121094 81.109375 48.886719 81.109375 L 45.46875 81.109375 C 44.320312 81.109375 43.722656 80.539062 43.671875 79.390625 C 43.28125 69.585938 37.601562 64.367188 26.632812 63.726562 C 17.632812 63.1875 8.832031 67.882812 9.691406 77.816406 C 11.242188 95.25 47.878906 83.914062 51.738281 107.542969 C 54.171875 122.394531 40.625 131.074219 26.65625 130.433594 C 12.660156 129.78125 4.257812 123.007812 1.453125 110.125 Z M 1.453125 110.125 " fill-opacity="1" fill-rule="nonzero"/><path fill="#ebecec" d="M 100.867188 59.03125 L 106.765625 59.03125 C 107.160156 59.03125 107.429688 59.207031 107.585938 59.570312 C 107.738281 59.929688 107.679688 60.25 107.40625 60.53125 L 79.890625 88.042969 C 79.738281 88.203125 79.652344 88.390625 79.640625 88.609375 C 79.625 88.828125 79.6875 89.027344 79.820312 89.199219 L 109.203125 127.609375 C 109.429688 127.902344 109.457031 128.214844 109.292969 128.542969 C 109.128906 128.875 108.859375 129.039062 108.488281 129.035156 L 102.6875 129.035156 C 102.390625 129.039062 102.152344 128.921875 101.972656 128.691406 L 75.367188 93.921875 C 75.292969 93.820312 75.195312 93.738281 75.085938 93.675781 C 74.972656 93.617188 74.855469 93.582031 74.726562 93.570312 C 74.597656 93.5625 74.476562 93.578125 74.355469 93.625 C 74.238281 93.667969 74.132812 93.734375 74.039062 93.824219 L 63.613281 104.25 C 63.433594 104.421875 63.34375 104.636719 63.34375 104.886719 L 63.34375 128 C 63.34375 128.246094 63.257812 128.453125 63.085938 128.628906 C 62.910156 128.800781 62.703125 128.886719 62.460938 128.886719 L 58.007812 128.886719 C 57.765625 128.886719 57.554688 128.800781 57.382812 128.628906 C 57.210938 128.453125 57.125 128.246094 57.125 128 L 57.125 60.0625 C 57.125 59.820312 57.210938 59.609375 57.382812 59.4375 C 57.554688 59.265625 57.765625 59.179688 58.007812 59.179688 L 62.433594 59.179688 C 62.679688 59.179688 62.886719 59.265625 63.058594 59.4375 C 63.234375 59.609375 63.320312 59.820312 63.320312 60.0625 L 63.320312 94.070312 C 63.320312 94.460938 63.496094 94.730469 63.859375 94.886719 C 64.21875 95.039062 64.539062 94.980469 64.820312 94.707031 L 100.226562 59.300781 C 100.402344 59.121094 100.613281 59.03125 100.867188 59.03125 Z M 100.867188 59.03125 " fill-opacity="1" fill-rule="nonzero"/><path fill="#ebecec" d="M 139.714844 92.960938 C 139.832031 92.960938 139.914062 92.953125 139.960938 92.9375 C 140.109375 92.90625 140.234375 92.808594 140.332031 92.644531 L 160.417969 60.652344 C 161.074219 59.585938 162.035156 59.054688 163.296875 59.054688 L 166.714844 59.054688 C 168.109375 59.054688 168.425781 59.644531 167.671875 60.824219 L 143.332031 99.058594 C 142.953125 99.652344 142.765625 100.304688 142.765625 101.027344 L 142.765625 127.261719 C 142.765625 127.65625 142.636719 128 142.382812 128.304688 C 142.125 128.605469 141.804688 128.789062 141.414062 128.863281 C 141.085938 128.925781 140.503906 128.960938 139.667969 128.960938 C 138.832031 128.945312 138.242188 128.910156 137.898438 128.863281 C 137.511719 128.785156 137.191406 128.597656 136.941406 128.296875 C 136.691406 127.996094 136.566406 127.652344 136.570312 127.261719 L 136.640625 101.027344 C 136.640625 100.304688 136.453125 99.652344 136.078125 99.058594 L 111.832031 60.75 C 111.09375 59.570312 111.421875 58.980469 112.816406 58.980469 L 116.234375 58.980469 C 117.496094 58.996094 118.445312 59.539062 119.085938 60.605469 L 139.101562 92.644531 C 139.199219 92.808594 139.324219 92.90625 139.46875 92.9375 C 139.519531 92.953125 139.601562 92.960938 139.714844 92.960938 Z M 139.714844 92.960938 " fill-opacity="1" fill-rule="nonzero"/><path fill="#ebecec" d="M 205.316406 59.152344 L 215.203125 59.152344 C 215.445312 59.152344 215.65625 59.238281 215.828125 59.414062 C 216 59.585938 216.089844 59.792969 216.089844 60.039062 L 216.089844 128 C 216.089844 128.246094 216 128.453125 215.828125 128.628906 C 215.65625 128.800781 215.445312 128.886719 215.203125 128.886719 L 205.316406 128.886719 C 205.074219 128.886719 204.863281 128.800781 204.691406 128.628906 C 204.519531 128.453125 204.433594 128.246094 204.433594 128 L 204.433594 60.039062 C 204.433594 59.792969 204.519531 59.585938 204.691406 59.414062 C 204.863281 59.238281 205.074219 59.152344 205.316406 59.152344 Z M 205.316406 59.152344 " fill-opacity="1" fill-rule="nonzero"/><path fill="#ebecec" d="M 249.183594 92.839844 C 256.644531 97.871094 259.625 104.421875 258.132812 112.484375 C 255.109375 128.761719 240.355469 129.648438 225.851562 128.738281 C 225.664062 128.726562 225.484375 128.679688 225.316406 128.597656 C 225.144531 128.515625 224.996094 128.40625 224.867188 128.265625 C 224.742188 128.125 224.644531 127.96875 224.574219 127.792969 C 224.507812 127.613281 224.472656 127.429688 224.472656 127.238281 L 224.472656 124.117188 C 224.472656 122.902344 225.078125 122.347656 226.292969 122.445312 C 241.800781 123.671875 250.296875 120.59375 251.789062 113.199219 C 255.40625 95.273438 238.316406 95.570312 225.898438 96.011719 C 224.996094 96.042969 224.546875 95.609375 224.546875 94.707031 L 224.546875 90.554688 C 224.546875 89.71875 224.964844 89.316406 225.800781 89.347656 C 235.339844 89.71875 248.890625 90.871094 249.871094 78.75 C 251.101562 63.898438 237.085938 65.128906 225.996094 65.421875 C 225.011719 65.441406 224.523438 64.957031 224.523438 63.972656 L 224.523438 60.308594 C 224.523438 59.621094 224.875 59.269531 225.578125 59.25 C 238.390625 58.832031 252.355469 58.121094 255.796875 73.144531 C 257.503906 80.652344 255.289062 86.617188 249.160156 91.042969 C 248.324219 91.652344 248.332031 92.25 249.183594 92.839844 Z M 249.183594 92.839844 " fill-opacity="1" fill-rule="nonzero"/><path fill="#ebecec" d="M 305.394531 123.699219 L 305.394531 127.753906 C 305.394531 127.902344 305.367188 128.042969 305.308594 128.179688 C 305.253906 128.3125 305.171875 128.433594 305.070312 128.539062 C 304.964844 128.640625 304.847656 128.722656 304.710938 128.777344 C 304.574219 128.832031 304.433594 128.863281 304.285156 128.863281 L 264.894531 128.863281 C 264.75 128.863281 264.609375 128.832031 264.472656 128.777344 C 264.335938 128.722656 264.21875 128.640625 264.113281 128.539062 C 264.011719 128.433594 263.929688 128.3125 263.875 128.179688 C 263.816406 128.042969 263.789062 127.902344 263.789062 127.753906 L 263.789062 60.261719 C 263.789062 60.113281 263.816406 59.972656 263.875 59.835938 C 263.929688 59.699219 264.011719 59.582031 264.113281 59.476562 C 264.21875 59.375 264.335938 59.292969 264.472656 59.238281 C 264.609375 59.179688 264.75 59.152344 264.894531 59.152344 L 269.125 59.152344 C 269.273438 59.152344 269.414062 59.179688 269.546875 59.238281 C 269.683594 59.292969 269.804688 59.375 269.90625 59.476562 C 270.011719 59.582031 270.089844 59.699219 270.148438 59.835938 C 270.203125 59.972656 270.230469 60.113281 270.230469 60.261719 L 270.230469 121.484375 C 270.230469 121.632812 270.261719 121.773438 270.316406 121.910156 C 270.371094 122.042969 270.453125 122.164062 270.554688 122.269531 C 270.660156 122.371094 270.78125 122.453125 270.914062 122.507812 C 271.050781 122.5625 271.191406 122.589844 271.339844 122.589844 L 304.285156 122.589844 C 304.433594 122.589844 304.574219 122.621094 304.710938 122.675781 C 304.847656 122.730469 304.964844 122.8125 305.070312 122.914062 C 305.171875 123.019531 305.253906 123.140625 305.308594 123.273438 C 305.367188 123.410156 305.394531 123.550781 305.394531 123.699219 Z M 305.394531 123.699219 " fill-opacity="1" fill-rule="nonzero"/><path fill="#ebecec" d="M 332.242188 124.164062 C 344.757812 124.164062 350.5625 115.976562 350.710938 103.460938 C 350.824219 91.5625 350.808594 77.183594 350.660156 60.332031 C 350.660156 60.179688 350.691406 60.03125 350.746094 59.890625 C 350.804688 59.75 350.886719 59.625 350.992188 59.515625 C 351.097656 59.40625 351.21875 59.324219 351.359375 59.265625 C 351.496094 59.207031 351.640625 59.179688 351.792969 59.179688 L 356.019531 59.179688 C 356.726562 59.179688 357.078125 59.539062 357.078125 60.261719 C 357.09375 79.09375 356.996094 94.257812 356.785156 105.75 C 356.511719 120.5 347.242188 130.609375 332.242188 130.609375 C 317.269531 130.582031 308 120.476562 307.753906 105.699219 C 307.558594 94.226562 307.476562 79.070312 307.507812 60.234375 C 307.507812 59.515625 307.859375 59.152344 308.566406 59.152344 L 312.792969 59.152344 C 312.945312 59.152344 313.089844 59.183594 313.226562 59.242188 C 313.367188 59.300781 313.488281 59.382812 313.59375 59.492188 C 313.699219 59.601562 313.78125 59.726562 313.839844 59.867188 C 313.898438 60.007812 313.925781 60.15625 313.925781 60.308594 C 313.761719 77.160156 313.730469 91.535156 313.828125 103.4375 C 313.949219 115.953125 319.753906 124.164062 332.242188 124.164062 Z M 332.242188 124.164062 " fill-opacity="1" fill-rule="nonzero"/><g clip-path="url(#3a53c6fb70)"><path fill="#ebecec" d="M 444.046875 59.425781 L 444.046875 71.890625 L 365.464844 71.988281 C 364.9375 71.988281 364.675781 71.726562 364.675781 71.203125 L 364.675781 60.160156 C 364.675781 59.652344 364.921875 59.398438 365.414062 59.398438 Z M 444.046875 59.425781 " fill-opacity="1" fill-rule="nonzero"/></g><path fill="#ebecec" d="M 365.5625 86.890625 L 393.542969 86.890625 C 393.792969 86.890625 394.007812 86.976562 394.1875 87.15625 C 394.363281 87.332031 394.453125 87.546875 394.453125 87.800781 L 394.453125 99.109375 C 394.453125 99.359375 394.363281 99.574219 394.1875 99.753906 C 394.007812 99.929688 393.792969 100.019531 393.542969 100.019531 L 365.5625 100.019531 C 365.308594 100.019531 365.097656 99.929688 364.917969 99.753906 C 364.742188 99.574219 364.652344 99.359375 364.652344 99.109375 L 364.652344 87.800781 C 364.652344 87.546875 364.742188 87.332031 364.917969 87.15625 C 365.097656 86.976562 365.308594 86.890625 365.5625 86.890625 Z M 365.5625 86.890625 " fill-opacity="1" fill-rule="nonzero"/><g clip-path="url(#7f778e1b23)"><path fill="#ebecec" d="M 444.046875 114.921875 L 444.046875 127.484375 L 365.316406 127.558594 C 364.890625 127.558594 364.675781 127.34375 364.675781 126.917969 L 364.675781 115.535156 C 364.675781 115.109375 364.890625 114.894531 365.316406 114.894531 Z M 444.046875 114.921875 " fill-opacity="1" fill-rule="nonzero"/></g><g clip-path="url(#7d99714400)"><path fill="#ffffff" d="M 66.761719 178.308594 L 58.179688 178.308594 C 53 175.851562 50.027344 172.164062 49.253906 167.246094 C 46.304688 148.558594 74.113281 143.886719 75.566406 163.457031 C 76.039062 169.898438 73.105469 174.851562 66.761719 178.308594 Z M 62.316406 175.382812 C 62.917969 175.386719 63.515625 175.324219 64.105469 175.191406 C 64.699219 175.058594 65.273438 174.859375 65.832031 174.59375 C 66.390625 174.332031 66.921875 174.003906 67.425781 173.617188 C 67.929688 173.230469 68.398438 172.789062 68.828125 172.292969 C 69.257812 171.796875 69.644531 171.257812 69.984375 170.675781 C 70.324219 170.089844 70.609375 169.472656 70.847656 168.824219 C 71.082031 168.175781 71.261719 167.503906 71.386719 166.8125 C 71.511719 166.121094 71.574219 165.421875 71.582031 164.71875 C 71.585938 164.011719 71.535156 163.3125 71.421875 162.621094 C 71.3125 161.925781 71.144531 161.253906 70.917969 160.601562 C 70.695312 159.945312 70.417969 159.324219 70.085938 158.734375 C 69.757812 158.144531 69.382812 157.597656 68.960938 157.097656 C 68.539062 156.59375 68.082031 156.144531 67.582031 155.75 C 67.085938 155.351562 66.558594 155.015625 66.007812 154.742188 C 65.453125 154.46875 64.878906 154.257812 64.289062 154.117188 C 63.703125 153.972656 63.105469 153.898438 62.503906 153.894531 C 61.902344 153.886719 61.304688 153.953125 60.710938 154.085938 C 60.121094 154.214844 59.546875 154.414062 58.988281 154.679688 C 58.429688 154.945312 57.898438 155.273438 57.390625 155.660156 C 56.886719 156.046875 56.421875 156.488281 55.992188 156.984375 C 55.5625 157.480469 55.175781 158.019531 54.835938 158.601562 C 54.496094 159.1875 54.207031 159.800781 53.972656 160.453125 C 53.738281 161.101562 53.554688 161.773438 53.433594 162.464844 C 53.308594 163.15625 53.246094 163.851562 53.238281 164.558594 C 53.234375 165.261719 53.285156 165.960938 53.398438 166.65625 C 53.507812 167.347656 53.675781 168.023438 53.902344 168.675781 C 54.125 169.328125 54.402344 169.953125 54.730469 170.542969 C 55.0625 171.128906 55.4375 171.675781 55.859375 172.179688 C 56.28125 172.683594 56.738281 173.132812 57.238281 173.527344 C 57.734375 173.925781 58.257812 174.257812 58.8125 174.535156 C 59.367188 174.808594 59.9375 175.019531 60.527344 175.160156 C 61.117188 175.304688 61.714844 175.378906 62.316406 175.382812 Z M 62.316406 175.382812 " fill-opacity="1" fill-rule="nonzero"/></g><g clip-path="url(#7afc7449f5)"><path fill="#ffffff" d="M 280.289062 178.308594 L 277.902344 178.308594 C 275.871094 175.308594 273.320312 175.308594 270.257812 178.308594 L 269.148438 178.308594 C 267.902344 177.800781 267.28125 177.800781 267.28125 178.308594 L 262.855469 178.308594 C 258.921875 176.195312 257.011719 173.210938 257.125 169.359375 C 257.144531 168.703125 257.390625 168.136719 257.863281 167.664062 L 261.773438 163.753906 C 262.429688 163.097656 262.511719 162.367188 262.019531 161.566406 C 260.378906 158.957031 259.878906 157.089844 260.519531 155.957031 C 263.832031 150.222656 267.902344 149.132812 272.738281 152.6875 C 272.984375 152.867188 273.207031 153.070312 273.414062 153.296875 C 273.621094 153.519531 273.800781 153.761719 273.960938 154.019531 C 274.117188 154.277344 274.25 154.550781 274.359375 154.835938 C 274.464844 155.117188 274.542969 155.410156 274.59375 155.710938 C 274.640625 156.007812 274.664062 156.308594 274.65625 156.613281 C 274.648438 156.914062 274.609375 157.214844 274.542969 157.507812 C 274.476562 157.804688 274.382812 158.089844 274.261719 158.367188 C 274.140625 158.644531 273.996094 158.90625 273.820312 159.15625 C 272.722656 160.726562 271.222656 161.949219 269.320312 162.820312 C 268.222656 163.308594 268.101562 163.992188 268.953125 164.859375 L 274.117188 170.023438 C 274.230469 170.136719 274.363281 170.21875 274.515625 170.269531 C 274.667969 170.320312 274.824219 170.332031 274.984375 170.3125 C 275.140625 170.289062 275.289062 170.234375 275.421875 170.144531 C 275.554688 170.054688 275.660156 169.941406 275.738281 169.800781 C 276.511719 168.472656 276.984375 166.875 277.164062 165.007812 C 277.296875 163.726562 278 163.089844 279.28125 163.089844 L 280.265625 163.089844 C 280.441406 163.089844 280.609375 163.128906 280.769531 163.203125 C 280.925781 163.277344 281.0625 163.382812 281.175781 163.519531 C 281.289062 163.652344 281.371094 163.804688 281.417969 163.976562 C 281.464844 164.144531 281.472656 164.316406 281.445312 164.492188 C 281 166.964844 279.730469 169.480469 277.632812 172.039062 C 277.125 172.679688 277.191406 173.242188 277.828125 173.734375 C 279.863281 175.277344 280.683594 176.800781 280.289062 178.308594 Z M 266.121094 160.933594 C 266.503906 161.070312 266.910156 161.109375 267.332031 161.046875 C 267.753906 160.988281 268.164062 160.828125 268.5625 160.574219 C 268.960938 160.324219 269.316406 159.992188 269.628906 159.585938 C 269.941406 159.183594 270.1875 158.730469 270.367188 158.234375 C 270.546875 157.738281 270.648438 157.234375 270.667969 156.722656 C 270.6875 156.207031 270.625 155.726562 270.480469 155.277344 C 270.335938 154.828125 270.121094 154.445312 269.835938 154.128906 C 269.550781 153.808594 269.21875 153.582031 268.832031 153.441406 C 268.449219 153.304688 268.046875 153.265625 267.625 153.328125 C 267.203125 153.390625 266.792969 153.546875 266.394531 153.800781 C 265.996094 154.050781 265.640625 154.382812 265.328125 154.789062 C 265.015625 155.195312 264.769531 155.644531 264.585938 156.140625 C 264.40625 156.636719 264.308594 157.140625 264.289062 157.65625 C 264.269531 158.167969 264.332031 158.648438 264.476562 159.097656 C 264.621094 159.546875 264.835938 159.929688 265.121094 160.246094 C 265.40625 160.566406 265.738281 160.792969 266.121094 160.933594 Z M 271.65625 171.941406 L 265.339844 165.472656 C 265.214844 165.351562 265.074219 165.257812 264.914062 165.191406 C 264.757812 165.125 264.589844 165.09375 264.417969 165.09375 C 264.242188 165.09375 264.078125 165.125 263.917969 165.191406 C 263.757812 165.257812 263.617188 165.351562 263.496094 165.472656 L 263.152344 165.792969 C 262.882812 166.058594 262.640625 166.34375 262.425781 166.65625 C 262.210938 166.964844 262.03125 167.292969 261.878906 167.640625 C 261.730469 167.984375 261.613281 168.339844 261.535156 168.707031 C 261.453125 169.070312 261.410156 169.441406 261.402344 169.8125 C 261.394531 170.1875 261.421875 170.558594 261.488281 170.921875 C 261.550781 171.289062 261.652344 171.644531 261.785156 171.988281 C 261.921875 172.335938 262.089844 172.660156 262.289062 172.972656 C 262.492188 173.28125 262.71875 173.570312 262.976562 173.835938 L 263.25 174.128906 C 263.507812 174.394531 263.789062 174.632812 264.097656 174.839844 C 264.402344 175.046875 264.726562 175.222656 265.070312 175.367188 C 265.414062 175.511719 265.769531 175.621094 266.132812 175.695312 C 266.5 175.765625 266.871094 175.804688 267.246094 175.804688 C 267.621094 175.804688 267.992188 175.765625 268.359375 175.695312 C 268.730469 175.621094 269.089844 175.511719 269.4375 175.367188 C 269.785156 175.222656 270.121094 175.046875 270.433594 174.839844 C 270.75 174.632812 271.042969 174.394531 271.3125 174.128906 L 271.632812 173.785156 C 271.757812 173.664062 271.855469 173.523438 271.921875 173.367188 C 271.992188 173.207031 272.027344 173.039062 272.027344 172.867188 C 272.03125 172.695312 272 172.527344 271.933594 172.367188 C 271.871094 172.207031 271.777344 172.066406 271.65625 171.941406 Z M 271.65625 171.941406 " fill-opacity="1" fill-rule="nonzero"/></g><g clip-path="url(#2321c15978)"><path fill="#ffffff" d="M 348.105469 178.308594 L 338.414062 178.308594 C 337.414062 177.652344 336.84375 177.054688 336.695312 176.515625 C 335.957031 173.808594 336.890625 173.082031 339.496094 174.324219 C 342.792969 175.933594 345.816406 175.6875 348.570312 173.589844 C 349.121094 173.167969 349.523438 172.636719 349.777344 171.992188 C 350.035156 171.351562 350.105469 170.6875 349.992188 170.003906 C 349.878906 169.320312 349.597656 168.71875 349.148438 168.191406 C 348.699219 167.664062 348.144531 167.292969 347.488281 167.074219 C 342.308594 165.335938 338.742188 162.769531 336.792969 159.375 C 336.300781 158.523438 336.285156 157.65625 336.742188 156.769531 C 339.679688 151 344.726562 149.34375 351.890625 151.804688 C 352.058594 151.859375 352.203125 151.953125 352.328125 152.078125 C 352.457031 152.203125 352.546875 152.351562 352.605469 152.519531 C 352.660156 152.6875 352.679688 152.859375 352.660156 153.035156 C 352.636719 153.210938 352.578125 153.375 352.480469 153.523438 L 351.867188 154.507812 C 351.570312 154.984375 351.160156 155.113281 350.636719 154.902344 C 347.257812 153.507812 344.324219 153.722656 341.832031 155.539062 C 341.632812 155.6875 341.453125 155.859375 341.296875 156.054688 C 341.140625 156.25 341.007812 156.460938 340.90625 156.6875 C 340.800781 156.914062 340.730469 157.152344 340.6875 157.398438 C 340.644531 157.644531 340.632812 157.890625 340.65625 158.140625 C 340.675781 158.390625 340.726562 158.632812 340.8125 158.867188 C 340.894531 159.101562 341.003906 159.324219 341.144531 159.53125 C 341.285156 159.738281 341.449219 159.925781 341.636719 160.089844 C 341.824219 160.253906 342.027344 160.394531 342.25 160.507812 L 350.90625 164.910156 C 351.90625 165.417969 352.652344 166.171875 353.144531 167.171875 C 355.195312 171.417969 353.511719 175.128906 348.105469 178.308594 Z M 348.105469 178.308594 " fill-opacity="1" fill-rule="nonzero"/></g><g clip-path="url(#c7035c9019)"><path fill="#ffffff" d="M 384.765625 169.039062 L 384.765625 176.316406 C 384.765625 177.300781 384.273438 177.816406 383.289062 177.867188 C 382.816406 177.882812 382.511719 177.890625 382.378906 177.890625 C 381.003906 177.957031 380.316406 177.300781 380.316406 175.925781 L 380.316406 153.648438 C 380.316406 153.277344 380.421875 152.9375 380.632812 152.632812 C 380.84375 152.324219 381.125 152.105469 381.46875 151.976562 C 385.570312 150.484375 389.402344 150.441406 392.976562 151.851562 C 400.011719 154.628906 400.109375 161.984375 393.714844 166.136719 C 391.714844 167.449219 389.175781 168 386.09375 167.785156 C 385.207031 167.734375 384.765625 168.152344 384.765625 169.039062 Z M 384.8125 155.613281 L 384.667969 162.597656 C 384.664062 162.808594 384.699219 163.011719 384.777344 163.210938 C 384.855469 163.40625 384.96875 163.582031 385.117188 163.734375 C 385.265625 163.886719 385.4375 164.003906 385.628906 164.089844 C 385.824219 164.171875 386.027344 164.21875 386.242188 164.21875 L 387.003906 164.246094 C 387.492188 164.253906 387.980469 164.234375 388.464844 164.183594 C 388.945312 164.132812 389.414062 164.050781 389.871094 163.941406 C 390.328125 163.828125 390.761719 163.691406 391.171875 163.527344 C 391.585938 163.363281 391.964844 163.171875 392.316406 162.960938 C 392.667969 162.746094 392.984375 162.511719 393.261719 162.257812 C 393.539062 162.003906 393.777344 161.734375 393.96875 161.453125 C 394.164062 161.167969 394.3125 160.875 394.414062 160.570312 C 394.515625 160.265625 394.570312 159.957031 394.574219 159.648438 L 394.574219 158.957031 C 394.582031 158.648438 394.542969 158.335938 394.453125 158.03125 C 394.363281 157.722656 394.226562 157.421875 394.042969 157.128906 C 393.863281 156.839844 393.636719 156.5625 393.371094 156.296875 C 393.105469 156.03125 392.800781 155.785156 392.457031 155.558594 C 392.113281 155.332031 391.742188 155.128906 391.335938 154.945312 C 390.929688 154.765625 390.503906 154.609375 390.050781 154.484375 C 389.601562 154.355469 389.136719 154.253906 388.65625 154.183594 C 388.175781 154.113281 387.691406 154.074219 387.199219 154.066406 L 386.4375 154.039062 C 386.226562 154.039062 386.019531 154.074219 385.824219 154.152344 C 385.625 154.230469 385.453125 154.34375 385.300781 154.492188 C 385.148438 154.636719 385.03125 154.808594 384.945312 155.003906 C 384.859375 155.199219 384.816406 155.402344 384.8125 155.613281 Z M 384.8125 155.613281 " fill-opacity="1" fill-rule="nonzero"/></g><g clip-path="url(#a27e69ddb3)"><path fill="#ffffff" d="M 22.578125 178.308594 L 19.453125 178.308594 C 18.570312 174.324219 18.386719 170.636719 18.914062 167.246094 C 18.941406 167.058594 18.929688 166.871094 18.878906 166.691406 C 18.828125 166.507812 18.738281 166.347656 18.617188 166.203125 C 18.492188 166.058594 18.347656 165.945312 18.175781 165.867188 C 18.003906 165.785156 17.824219 165.746094 17.632812 165.746094 L 6.59375 165.746094 C 6.414062 165.746094 6.242188 165.785156 6.082031 165.859375 C 5.917969 165.933594 5.78125 166.039062 5.664062 166.175781 C 5.546875 166.308594 5.464844 166.460938 5.417969 166.632812 C 5.371094 166.800781 5.359375 166.972656 5.390625 167.144531 C 5.914062 170.554688 5.742188 174.277344 4.871094 178.308594 L 2.882812 178.308594 L 1.453125 177.351562 L 1.453125 152 C 4.390625 150.03125 5.816406 151.03125 5.734375 155 C 5.667969 157.375 5.578125 159.15625 5.460938 160.335938 C 5.363281 161.417969 5.863281 161.957031 6.960938 161.957031 L 17.316406 161.957031 C 18.316406 161.957031 18.8125 161.457031 18.8125 160.457031 L 18.8125 152.8125 C 18.8125 151.679688 19.386719 151.113281 20.535156 151.113281 L 21.273438 151.113281 C 22.355469 151.113281 22.886719 151.65625 22.871094 152.738281 Z M 22.578125 178.308594 " fill-opacity="1" fill-rule="nonzero"/></g><g clip-path="url(#b87abfc70e)"><path fill="#ffffff" d="M 108.316406 151.335938 C 111.265625 151.089844 114.285156 151.015625 117.363281 151.113281 C 118.382812 151.148438 118.890625 151.679688 118.890625 152.710938 L 118.890625 153.402344 C 118.890625 153.558594 118.859375 153.707031 118.800781 153.851562 C 118.738281 153.996094 118.65625 154.125 118.542969 154.234375 C 118.433594 154.347656 118.304688 154.429688 118.160156 154.492188 C 118.015625 154.550781 117.867188 154.582031 117.710938 154.582031 L 111.785156 154.582031 C 110.785156 154.582031 110.285156 155.082031 110.285156 156.082031 L 110.285156 176.390625 C 110.289062 176.742188 110.183594 177.054688 109.972656 177.332031 C 109.761719 177.609375 109.488281 177.785156 109.152344 177.867188 C 108.921875 177.914062 108.652344 177.941406 108.339844 177.941406 C 108.03125 177.941406 107.757812 177.914062 107.53125 177.867188 C 107.1875 177.792969 106.910156 177.613281 106.695312 177.339844 C 106.476562 177.0625 106.371094 176.746094 106.375 176.390625 L 106.347656 156.082031 C 106.347656 155.082031 105.847656 154.582031 104.847656 154.582031 L 98.921875 154.605469 C 98.765625 154.605469 98.617188 154.574219 98.472656 154.515625 C 98.328125 154.457031 98.199219 154.371094 98.089844 154.261719 C 97.980469 154.148438 97.894531 154.023438 97.832031 153.878906 C 97.773438 153.734375 97.742188 153.582031 97.742188 153.425781 L 97.742188 152.738281 C 97.742188 151.703125 98.242188 151.171875 99.242188 151.140625 C 102.324219 151.023438 105.347656 151.089844 108.316406 151.335938 Z M 108.316406 151.335938 " fill-opacity="1" fill-rule="nonzero"/></g><g clip-path="url(#d43a9599a8)"><path fill="#ffffff" d="M 159.289062 178.308594 L 148.050781 178.308594 L 145.25 177.671875 C 144.347656 177.472656 143.894531 176.914062 143.894531 175.996094 L 143.894531 152.589844 C 143.894531 151.640625 144.371094 151.164062 145.324219 151.164062 L 158.15625 151.164062 C 158.976562 151.164062 159.386719 151.574219 159.386719 152.394531 L 159.386719 153.351562 C 159.386719 154.140625 159 154.53125 158.230469 154.53125 L 149.574219 154.53125 C 149.351562 154.53125 149.132812 154.574219 148.925781 154.65625 C 148.71875 154.742188 148.535156 154.859375 148.375 155.015625 C 148.21875 155.167969 148.09375 155.347656 148.007812 155.550781 C 147.921875 155.75 147.878906 155.960938 147.878906 156.179688 L 147.878906 160.484375 C 147.878906 160.699219 147.921875 160.90625 148 161.105469 C 148.082031 161.300781 148.199219 161.476562 148.347656 161.628906 C 148.496094 161.78125 148.671875 161.898438 148.867188 161.980469 C 149.0625 162.0625 149.265625 162.105469 149.476562 162.105469 L 157.984375 162.105469 C 158.117188 162.105469 158.246094 162.132812 158.371094 162.183594 C 158.496094 162.238281 158.605469 162.3125 158.699219 162.40625 C 158.792969 162.503906 158.867188 162.617188 158.917969 162.742188 C 158.96875 162.871094 158.992188 163 158.992188 163.136719 L 158.992188 164.246094 C 158.992188 165.195312 158.519531 165.671875 157.566406 165.671875 L 150.019531 165.671875 C 148.558594 165.671875 147.832031 166.410156 147.832031 167.882812 L 147.832031 172.359375 C 147.832031 172.71875 147.90625 173.066406 148.054688 173.394531 C 148.203125 173.726562 148.410156 174.011719 148.679688 174.253906 C 148.949219 174.496094 149.257812 174.671875 149.601562 174.78125 C 149.945312 174.894531 150.296875 174.929688 150.65625 174.890625 C 159.164062 173.988281 162.042969 175.128906 159.289062 178.308594 Z M 159.289062 178.308594 " fill-opacity="1" fill-rule="nonzero"/></g><g clip-path="url(#81ff4e4a5e)"><path fill="#ffffff" d="M 201.902344 178.308594 L 190.8125 178.308594 L 187.589844 177.398438 C 186.851562 177.1875 186.484375 176.695312 186.484375 175.925781 L 186.484375 152.910156 C 186.484375 152.640625 186.539062 152.386719 186.652344 152.144531 C 186.765625 151.902344 186.921875 151.695312 187.125 151.523438 C 187.328125 151.351562 187.558594 151.226562 187.816406 151.15625 C 188.074219 151.085938 188.335938 151.070312 188.597656 151.113281 L 189.679688 151.285156 C 190.402344 151.402344 190.761719 151.828125 190.761719 152.566406 L 190.761719 173.269531 C 190.761719 174.070312 191.15625 174.457031 191.941406 174.425781 C 200.972656 174.078125 204.292969 175.375 201.902344 178.308594 Z M 201.902344 178.308594 " fill-opacity="1" fill-rule="nonzero"/></g><g clip-path="url(#bde6a1a66c)"><path fill="#ffffff" d="M 442.105469 178.308594 L 440.53125 178.308594 C 438.777344 176.621094 437.433594 174.203125 436.5 171.054688 C 436.394531 170.707031 436.199219 170.421875 435.90625 170.203125 C 435.617188 169.988281 435.289062 169.875 434.925781 169.875 L 427.5 169.875 C 426.714844 169.875 426.15625 170.234375 425.828125 170.957031 L 422.558594 178.308594 L 419.65625 178.308594 C 422.066406 169.179688 424.65625 161.492188 427.425781 155.246094 C 430.148438 149.132812 432.6875 149.203125 435.046875 155.464844 C 437.375 161.664062 439.902344 168.492188 442.621094 175.949219 C 442.964844 176.898438 442.792969 177.6875 442.105469 178.308594 Z M 430.328125 157.164062 C 429 159.230469 429.34375 162.992188 427.203125 164.957031 C 426.105469 165.957031 426.394531 166.457031 428.066406 166.457031 L 433.546875 166.457031 C 434.664062 166.457031 435.03125 165.933594 434.65625 164.882812 L 432.023438 157.382812 C 431.582031 156.15625 431.015625 156.082031 430.328125 157.164062 Z M 430.328125 157.164062 " fill-opacity="1" fill-rule="nonzero"/></g></svg>