<svg xmlns="http://www.w3.org/2000/svg" xmlns:xlink="http://www.w3.org/1999/xlink" width="595" zoomAndPan="magnify" viewBox="0 0 446.25 185.249993" height="247" preserveAspectRatio="xMidYMid meet" version="1.0"><defs><clipPath id="f1ddecf415"><path d="M 416 78 L 444.976562 78 L 444.976562 124 L 416 124 Z M 416 78 " clip-rule="nonzero"/></clipPath><clipPath id="2b94ebf7d8"><path d="M 35 51.289062 L 68 51.289062 L 68 74 L 35 74 Z M 35 51.289062 " clip-rule="nonzero"/></clipPath><clipPath id="bc4c5f1260"><path d="M 0.527344 67 L 23 67 L 23 100 L 0.527344 100 Z M 0.527344 67 " clip-rule="nonzero"/></clipPath><clipPath id="8630c46ab9"><path d="M 19 111 L 51 111 L 51 133.457031 L 19 133.457031 Z M 19 111 " clip-rule="nonzero"/></clipPath></defs><path fill="#ffffff" d="M 182.058594 69.890625 L 169.648438 69.867188 C 169.488281 69.867188 169.359375 69.996094 169.359375 70.160156 L 169.347656 76.648438 C 169.347656 76.808594 169.476562 76.941406 169.636719 76.941406 L 182.046875 76.960938 C 182.207031 76.960938 182.339844 76.832031 182.339844 76.671875 L 182.351562 70.179688 C 182.351562 70.019531 182.222656 69.890625 182.058594 69.890625 Z M 182.058594 69.890625 " fill-opacity="1" fill-rule="nonzero"/><path fill="#ffffff" d="M 367.574219 69.871094 L 356.347656 69.871094 C 356.160156 69.871094 356.011719 70.019531 356.011719 70.207031 L 356.011719 113.96875 C 356.011719 114.15625 356.160156 114.304688 356.347656 114.304688 L 367.574219 114.304688 C 367.761719 114.304688 367.910156 114.15625 367.910156 113.96875 L 367.910156 70.207031 C 367.910156 70.019531 367.761719 69.871094 367.574219 69.871094 Z M 367.574219 69.871094 " fill-opacity="1" fill-rule="nonzero"/><path fill="#ffffff" d="M 383.230469 69.878906 L 371.769531 69.878906 C 371.589844 69.878906 371.445312 70.023438 371.445312 70.207031 L 371.445312 76.625 C 371.445312 76.804688 371.589844 76.949219 371.769531 76.949219 L 383.230469 76.949219 C 383.410156 76.949219 383.554688 76.804688 383.554688 76.625 L 383.554688 70.207031 C 383.554688 70.023438 383.410156 69.878906 383.230469 69.878906 Z M 383.230469 69.878906 " fill-opacity="1" fill-rule="nonzero"/><path fill="#ffffff" d="M 149.382812 81.0625 C 154.371094 78.257812 162.667969 77.738281 164.949219 83.996094 C 165.367188 85.148438 165.582031 87.257812 165.59375 90.328125 C 165.628906 98.167969 165.628906 106.011719 165.59375 113.863281 C 165.59375 114.160156 165.445312 114.304688 165.152344 114.304688 L 153.050781 114.304688 C 152.757812 114.304688 152.609375 114.160156 152.609375 113.863281 L 152.609375 88.894531 C 152.609375 88.613281 152.523438 88.339844 152.363281 88.109375 C 151.855469 87.355469 151.132812 87.140625 150.183594 87.472656 C 149.925781 87.5625 149.703125 87.730469 149.546875 87.953125 C 149.386719 88.171875 149.304688 88.4375 149.304688 88.710938 L 149.304688 113.863281 C 149.304688 114.160156 149.15625 114.304688 148.863281 114.304688 L 136.742188 114.304688 C 136.449219 114.304688 136.300781 114.160156 136.300781 113.863281 L 136.300781 79.605469 C 136.300781 79.308594 136.449219 79.160156 136.742188 79.160156 L 148.429688 79.160156 C 148.722656 79.160156 148.867188 79.3125 148.863281 79.613281 L 148.84375 80.734375 C 148.832031 81.152344 149.011719 81.261719 149.382812 81.0625 Z M 149.382812 81.0625 " fill-opacity="1" fill-rule="nonzero"/><path fill="#ffffff" d="M 219.671875 80.921875 C 220.523438 80.585938 221.382812 79.949219 222.164062 79.710938 C 229.90625 77.296875 234.066406 81.621094 233.941406 88.992188 C 233.921875 90.285156 233.914062 91.570312 233.914062 92.855469 C 233.921875 93.15625 233.773438 93.308594 233.476562 93.308594 L 222.914062 93.308594 C 222.625 93.308594 222.484375 93.164062 222.484375 92.875 L 222.445312 88.488281 C 222.445312 88.214844 222.347656 87.953125 222.171875 87.746094 C 221.996094 87.539062 221.753906 87.402344 221.484375 87.355469 C 220.066406 87.109375 219.589844 88.089844 219.597656 89.300781 C 219.617188 97.484375 219.613281 105.667969 219.582031 113.855469 C 219.582031 114.15625 219.4375 114.304688 219.140625 114.304688 L 207.917969 114.304688 C 207.625 114.304688 207.480469 114.160156 207.480469 113.863281 L 207.480469 79.605469 C 207.480469 79.308594 207.625 79.160156 207.917969 79.160156 L 218.734375 79.160156 C 219.039062 79.160156 219.1875 79.316406 219.175781 79.621094 L 219.125 80.523438 C 219.101562 80.941406 219.28125 81.074219 219.671875 80.921875 Z M 219.671875 80.921875 " fill-opacity="1" fill-rule="nonzero"/><path fill="#ffffff" d="M 399.023438 81.019531 C 406.667969 76.828125 413.964844 79.074219 414.097656 88.894531 C 414.214844 97.210938 414.238281 105.539062 414.167969 113.871094 C 414.167969 114.160156 414.023438 114.304688 413.738281 114.304688 L 402.53125 114.304688 C 402.234375 114.304688 402.082031 114.15625 402.082031 113.855469 C 402.058594 105.738281 402.074219 97.640625 402.125 89.558594 C 402.136719 88.203125 401.601562 87.464844 400.515625 87.339844 C 400.320312 87.320312 400.128906 87.339844 399.941406 87.398438 C 399.757812 87.457031 399.589844 87.554688 399.445312 87.683594 C 399.300781 87.8125 399.1875 87.972656 399.109375 88.148438 C 399.03125 88.324219 398.988281 88.515625 398.988281 88.710938 L 398.988281 113.863281 C 398.988281 114.160156 398.839844 114.304688 398.546875 114.304688 L 387.308594 114.304688 C 387.015625 114.304688 386.867188 114.160156 386.867188 113.863281 L 386.867188 79.605469 C 386.867188 79.308594 387.015625 79.160156 387.308594 79.160156 L 398.011719 79.160156 C 398.378906 79.160156 398.5625 79.351562 398.554688 79.726562 L 398.539062 80.726562 C 398.527344 81.105469 398.691406 81.199219 399.023438 81.019531 Z M 399.023438 81.019531 " fill-opacity="1" fill-rule="nonzero"/><g clip-path="url(#f1ddecf415)"><path fill="#ffffff" d="M 431.625 112.742188 C 424.195312 116.394531 417.222656 114.457031 416.90625 105.023438 C 416.730469 99.578125 416.703125 94.128906 416.824219 88.683594 C 417.035156 79.53125 424.449219 76.554688 431.980469 81.027344 C 432.320312 81.226562 432.488281 81.128906 432.480469 80.734375 L 432.472656 79.613281 C 432.472656 79.3125 432.617188 79.160156 432.914062 79.160156 L 443.695312 79.160156 C 443.980469 79.160156 444.128906 79.308594 444.132812 79.605469 C 444.199219 98.476562 444.203125 110.78125 444.140625 116.515625 C 444.089844 120.949219 441.792969 123.210938 437.25 123.296875 C 431.03125 123.410156 424.816406 123.421875 418.597656 123.332031 C 418.308594 123.328125 418.164062 123.179688 418.164062 122.890625 L 418.15625 116.96875 C 418.15625 116.679688 418.300781 116.535156 418.589844 116.535156 L 430.207031 116.480469 C 431.445312 116.476562 432.0625 115.851562 432.046875 114.605469 L 432.039062 112.996094 C 432.039062 112.691406 431.902344 112.605469 431.625 112.742188 Z M 432.027344 88.742188 C 432.027344 88.558594 431.988281 88.378906 431.917969 88.207031 C 431.847656 88.039062 431.746094 87.886719 431.617188 87.757812 C 431.488281 87.625 431.332031 87.523438 431.164062 87.453125 C 430.992188 87.382812 430.8125 87.347656 430.632812 87.347656 L 430.558594 87.347656 C 430.378906 87.347656 430.195312 87.386719 430.027344 87.457031 C 429.859375 87.527344 429.707031 87.628906 429.578125 87.757812 C 429.449219 87.890625 429.34375 88.042969 429.277344 88.214844 C 429.207031 88.382812 429.167969 88.566406 429.167969 88.746094 L 429.199219 104.734375 C 429.199219 104.917969 429.234375 105.097656 429.304688 105.265625 C 429.375 105.4375 429.476562 105.589844 429.605469 105.71875 C 429.734375 105.851562 429.890625 105.953125 430.058594 106.023438 C 430.226562 106.09375 430.410156 106.128906 430.59375 106.128906 L 430.664062 106.128906 C 430.847656 106.128906 431.027344 106.089844 431.195312 106.019531 C 431.363281 105.949219 431.519531 105.847656 431.648438 105.71875 C 431.777344 105.585938 431.878906 105.433594 431.949219 105.261719 C 432.019531 105.09375 432.054688 104.910156 432.054688 104.726562 Z M 432.027344 88.742188 " fill-opacity="1" fill-rule="nonzero"/></g><path fill="#ffffff" d="M 119.519531 112.484375 C 114 115.003906 107.449219 116.046875 104.480469 110.28125 C 103.632812 108.640625 103.214844 105.964844 103.226562 102.265625 C 103.246094 94.703125 103.25 87.152344 103.246094 79.621094 C 103.246094 79.316406 103.398438 79.160156 103.703125 79.160156 L 115.808594 79.160156 C 116.101562 79.160156 116.25 79.308594 116.25 79.605469 L 116.25 104.589844 C 116.25 104.855469 116.316406 105.121094 116.445312 105.351562 C 116.578125 105.585938 116.765625 105.785156 116.992188 105.921875 C 117.21875 106.0625 117.476562 106.144531 117.746094 106.152344 C 118.011719 106.164062 118.277344 106.105469 118.511719 105.984375 C 119.253906 105.613281 119.621094 104.925781 119.617188 103.917969 C 119.558594 95.820312 119.535156 87.71875 119.554688 79.613281 C 119.558594 79.3125 119.710938 79.160156 120.011719 79.160156 L 132.113281 79.160156 C 132.410156 79.160156 132.554688 79.308594 132.554688 79.605469 L 132.554688 113.863281 C 132.554688 114.160156 132.410156 114.304688 132.113281 114.304688 L 120.433594 114.304688 C 120.140625 114.304688 119.996094 114.160156 119.996094 113.863281 L 119.984375 112.785156 C 119.984375 112.445312 119.832031 112.34375 119.519531 112.484375 Z M 119.519531 112.484375 " fill-opacity="1" fill-rule="nonzero"/><path fill="#ffffff" d="M 182.050781 79.171875 L 169.65625 79.171875 C 169.492188 79.171875 169.359375 79.304688 169.359375 79.472656 L 169.359375 114.003906 C 169.359375 114.171875 169.492188 114.304688 169.65625 114.304688 L 182.050781 114.304688 C 182.21875 114.304688 182.351562 114.171875 182.351562 114.003906 L 182.351562 79.472656 C 182.351562 79.304688 182.21875 79.171875 182.050781 79.171875 Z M 182.050781 79.171875 " fill-opacity="1" fill-rule="nonzero"/><path fill="#ffffff" d="M 248.070312 98.136719 C 247.988281 100.59375 247.972656 103.03125 248.019531 105.445312 C 248.042969 106.8125 248.589844 107.476562 249.660156 107.4375 C 250.046875 107.421875 250.417969 107.253906 250.6875 106.96875 C 250.960938 106.6875 251.109375 106.308594 251.113281 105.914062 L 251.113281 100.824219 C 251.113281 100.527344 251.261719 100.378906 251.554688 100.378906 L 263.003906 100.378906 C 263.308594 100.378906 263.460938 100.535156 263.460938 100.839844 C 263.476562 102.171875 263.425781 104.375 263.3125 107.445312 C 263.09375 113.625 259.761719 114.261719 254.25 114.296875 C 250.265625 114.328125 246.28125 114.304688 242.296875 114.234375 C 236.550781 114.136719 235.960938 110.496094 235.925781 105.457031 C 235.882812 99.53125 235.886719 93.609375 235.933594 87.695312 C 235.96875 83.035156 236.78125 79.257812 242.078125 79.207031 C 249.410156 79.128906 254.195312 79.113281 256.425781 79.160156 C 263.796875 79.328125 263.339844 84.464844 263.453125 90.65625 C 263.496094 92.867188 263.484375 95.085938 263.417969 97.3125 C 263.414062 97.589844 263.273438 97.726562 262.996094 97.726562 L 248.484375 97.726562 C 248.214844 97.726562 248.078125 97.863281 248.070312 98.136719 Z M 248.320312 91.355469 L 251.105469 91.28125 C 251.171875 91.28125 251.234375 91.253906 251.277344 91.203125 C 251.324219 91.15625 251.351562 91.09375 251.351562 91.027344 L 251.289062 88.101562 C 251.28125 87.796875 251.234375 87.496094 251.148438 87.214844 C 251.066406 86.9375 250.945312 86.683594 250.796875 86.472656 C 250.644531 86.261719 250.46875 86.09375 250.277344 85.980469 C 250.085938 85.871094 249.878906 85.8125 249.675781 85.820312 L 249.5 85.820312 C 249.292969 85.824219 249.09375 85.886719 248.90625 86.007812 C 248.722656 86.128906 248.554688 86.304688 248.410156 86.523438 C 248.273438 86.742188 248.164062 87 248.089844 87.28125 C 248.019531 87.566406 247.984375 87.867188 247.992188 88.171875 L 248.054688 91.097656 C 248.054688 91.132812 248.0625 91.164062 248.074219 91.199219 C 248.089844 91.230469 248.105469 91.257812 248.132812 91.28125 C 248.15625 91.304688 248.1875 91.324219 248.21875 91.335938 C 248.25 91.347656 248.285156 91.355469 248.320312 91.355469 Z M 248.320312 91.355469 " fill-opacity="1" fill-rule="nonzero"/><path fill="#ffffff" d="M 278.742188 86.480469 C 277.957031 87.164062 278.238281 88.320312 278.238281 89.207031 C 278.199219 94.945312 278.199219 100.5625 278.238281 106.046875 C 278.242188 106.347656 278.339844 106.636719 278.519531 106.875 C 278.699219 107.113281 278.949219 107.289062 279.234375 107.375 C 280.34375 107.703125 281.023438 106.851562 281.042969 105.78125 C 281.070312 103.695312 281.089844 101.605469 281.09375 99.503906 C 281.09375 99.203125 281.242188 99.054688 281.535156 99.054688 L 292.957031 99.054688 C 293.230469 99.054688 293.371094 99.191406 293.382812 99.460938 C 293.585938 104.605469 295.144531 113.722656 287.46875 114.039062 C 280.664062 114.316406 275.519531 114.386719 272.035156 114.242188 C 268.101562 114.085938 266.089844 111.933594 265.996094 107.789062 C 265.816406 100.410156 265.820312 93.03125 266.003906 85.652344 C 266.101562 81.691406 268.121094 79.617188 272.050781 79.425781 C 277.234375 79.179688 282.40625 79.144531 287.574219 79.320312 C 294.195312 79.542969 293.796875 86.78125 293.277344 92.21875 C 293.253906 92.503906 293.101562 92.644531 292.820312 92.644531 L 281.527344 92.644531 C 281.226562 92.644531 281.078125 92.496094 281.078125 92.195312 L 281.085938 87.5625 C 281.085938 87.289062 281.007812 87.023438 280.859375 86.792969 C 280.714844 86.5625 280.503906 86.382812 280.257812 86.265625 C 280.011719 86.152344 279.738281 86.113281 279.46875 86.152344 C 279.199219 86.191406 278.949219 86.304688 278.742188 86.480469 Z M 278.742188 86.480469 " fill-opacity="1" fill-rule="nonzero"/><path fill="#ffffff" d="M 309.464844 99.496094 L 311.660156 79.605469 C 311.6875 79.308594 311.851562 79.160156 312.144531 79.160156 L 323.597656 79.160156 C 323.914062 79.160156 324.039062 79.316406 323.972656 79.628906 C 321.371094 91.507812 318.703125 103.363281 315.980469 115.199219 C 313.785156 124.757812 304.441406 123.632812 295.546875 123.261719 C 295.304688 123.257812 295.183594 123.128906 295.183594 122.882812 L 295.183594 117.019531 C 295.183594 116.761719 295.3125 116.621094 295.570312 116.605469 L 300.585938 116.296875 C 300.75 116.285156 300.910156 116.234375 301.054688 116.148438 C 301.191406 116.066406 301.3125 115.949219 301.398438 115.808594 C 302.054688 114.742188 302.242188 113.582031 301.953125 112.324219 C 299.457031 101.410156 296.949219 90.496094 294.433594 79.585938 C 294.371094 79.304688 294.484375 79.160156 294.769531 79.160156 L 306.238281 79.160156 C 306.554688 79.160156 306.734375 79.324219 306.777344 79.648438 L 309.042969 99.496094 C 309.042969 99.554688 309.066406 99.605469 309.105469 99.648438 C 309.144531 99.6875 309.199219 99.707031 309.253906 99.707031 C 309.308594 99.707031 309.363281 99.6875 309.402344 99.648438 C 309.441406 99.605469 309.464844 99.554688 309.464844 99.496094 Z M 309.464844 99.496094 " fill-opacity="1" fill-rule="nonzero"/><path fill="#ffffff" d="M 340.582031 86.78125 C 340.574219 86.699219 340.546875 86.617188 340.496094 86.550781 C 340.441406 86.484375 340.371094 86.433594 340.289062 86.402344 C 339.261719 86.0625 338.535156 86.144531 338.105469 86.648438 C 337.867188 86.925781 337.746094 87.429688 337.742188 88.160156 C 337.707031 93.855469 337.65625 99.550781 337.582031 105.242188 C 337.570312 106.417969 338.039062 107.132812 338.984375 107.390625 C 339.191406 107.445312 339.410156 107.453125 339.621094 107.414062 C 339.828125 107.371094 340.027344 107.28125 340.195312 107.152344 C 340.371094 107.023438 340.507812 106.855469 340.605469 106.664062 C 340.699219 106.472656 340.753906 106.261719 340.757812 106.046875 L 340.835938 99.480469 C 340.84375 99.195312 340.984375 99.054688 341.269531 99.054688 L 352.464844 99.054688 C 352.746094 99.054688 352.890625 99.191406 352.894531 99.46875 C 352.972656 102.304688 352.976562 105.113281 352.914062 107.894531 C 352.773438 113.625 349.097656 114.242188 344.097656 114.296875 C 340.847656 114.328125 337.597656 114.328125 334.351562 114.296875 C 328.777344 114.234375 325.648438 113.429688 325.550781 107.242188 C 325.402344 97.871094 325.429688 90.6875 325.632812 85.695312 C 325.78125 81.707031 327.535156 79.390625 331.554688 79.285156 C 338.710938 79.101562 343.855469 79.082031 346.980469 79.222656 C 353.9375 79.53125 353.117188 86.765625 352.859375 92.265625 C 352.847656 92.519531 352.71875 92.644531 352.472656 92.644531 L 341.3125 92.644531 C 341.210938 92.644531 341.109375 92.605469 341.035156 92.53125 C 340.960938 92.460938 340.914062 92.359375 340.90625 92.253906 Z M 340.582031 86.78125 " fill-opacity="1" fill-rule="nonzero"/><path fill="#ffffff" d="M 383.230469 79.171875 L 371.769531 79.171875 C 371.589844 79.171875 371.445312 79.316406 371.445312 79.496094 L 371.445312 113.980469 C 371.445312 114.160156 371.589844 114.304688 371.769531 114.304688 L 383.230469 114.304688 C 383.410156 114.304688 383.554688 114.160156 383.554688 113.980469 L 383.554688 79.496094 C 383.554688 79.316406 383.410156 79.171875 383.230469 79.171875 Z M 383.230469 79.171875 " fill-opacity="1" fill-rule="nonzero"/><path fill="#ffffff" d="M 200.960938 92.875 L 188.671875 92.875 C 188.476562 92.875 188.320312 93.03125 188.320312 93.226562 L 188.320312 99.804688 C 188.320312 100 188.476562 100.160156 188.671875 100.160156 L 200.960938 100.160156 C 201.152344 100.160156 201.3125 100 201.3125 99.804688 L 201.3125 93.226562 C 201.3125 93.03125 201.152344 92.875 200.960938 92.875 Z M 200.960938 92.875 " fill-opacity="1" fill-rule="nonzero"/><g clip-path="url(#2b94ebf7d8)"><path fill="#ffffff" d="M 62.554688 57.382812 L 66.972656 52.957031 C 67.195312 52.734375 67.308594 52.78125 67.308594 53.097656 L 67.308594 72.722656 C 67.308594 72.917969 67.210938 73.015625 67.011719 73.015625 L 47.449219 73.015625 C 47.128906 73.015625 47.082031 72.902344 47.308594 72.675781 L 51.667969 68.300781 C 51.820312 68.148438 51.820312 67.996094 51.667969 67.839844 L 35.773438 51.71875 C 35.601562 51.542969 35.636719 51.453125 35.882812 51.449219 C 42.714844 51.242188 48.335938 51.234375 52.757812 51.429688 C 56.421875 51.597656 58.980469 54.09375 62 57.378906 C 62.179688 57.574219 62.363281 57.578125 62.554688 57.382812 Z M 62.554688 57.382812 " fill-opacity="1" fill-rule="nonzero"/></g><path fill="#ffffff" d="M 23.816406 65.648438 L 14.113281 65.648438 C 14.074219 65.648438 14.03125 65.636719 14 65.613281 C 13.964844 65.59375 13.9375 65.558594 13.921875 65.519531 C 13.90625 65.484375 13.902344 65.441406 13.910156 65.402344 C 13.917969 65.359375 13.9375 65.324219 13.96875 65.292969 C 17.238281 62.011719 20.539062 58.707031 23.863281 55.378906 C 25.5625 53.675781 28.253906 51.996094 30.820312 52.164062 C 34.34375 52.390625 38.515625 56.269531 40.699219 58.90625 C 40.84375 59.082031 40.835938 59.25 40.675781 59.40625 L 24.488281 75.644531 C 24.234375 75.898438 24.109375 75.847656 24.109375 75.492188 L 24.109375 65.941406 C 24.109375 65.746094 24.011719 65.648438 23.816406 65.648438 Z M 23.816406 65.648438 " fill-opacity="1" fill-rule="nonzero"/><path fill="#ffffff" d="M 69.511719 74.933594 L 69.511719 65.355469 C 69.511719 65.066406 69.613281 65.023438 69.820312 65.222656 C 73.363281 68.652344 76.820312 72.085938 80.1875 75.53125 C 86.03125 81.503906 81.011719 87.523438 76.117188 91.835938 C 75.976562 91.957031 75.84375 91.953125 75.714844 91.824219 L 59.542969 75.605469 C 59.292969 75.351562 59.34375 75.226562 59.695312 75.226562 L 69.214844 75.226562 C 69.414062 75.226562 69.511719 75.128906 69.511719 74.933594 Z M 69.511719 74.933594 " fill-opacity="1" fill-rule="nonzero"/><g clip-path="url(#bc4c5f1260)"><path fill="#ffffff" d="M 16.945312 83.214844 L 0.996094 99.210938 C 0.796875 99.410156 0.691406 99.371094 0.683594 99.085938 C 0.5 92.46875 0.488281 86.878906 0.652344 82.3125 C 0.796875 78.421875 3.308594 75.894531 6.660156 72.851562 C 6.691406 72.824219 6.71875 72.789062 6.734375 72.75 C 6.753906 72.710938 6.761719 72.667969 6.761719 72.625 C 6.765625 72.582031 6.757812 72.539062 6.742188 72.5 C 6.726562 72.457031 6.703125 72.421875 6.671875 72.390625 L 2.113281 67.816406 C 1.945312 67.648438 1.980469 67.5625 2.21875 67.5625 L 21.75 67.5625 C 21.945312 67.5625 22.046875 67.660156 22.046875 67.851562 L 22.246094 87.46875 C 22.25 87.828125 22.125 87.878906 21.875 87.628906 L 17.457031 83.214844 C 17.28125 83.039062 17.113281 83.039062 16.945312 83.214844 Z M 16.945312 83.214844 " fill-opacity="1" fill-rule="nonzero"/></g><path fill="#ffffff" d="M 70.214844 101.273438 L 86.074219 85.363281 C 86.25 85.191406 86.335938 85.226562 86.339844 85.472656 C 86.46875 90.769531 86.515625 96.046875 86.476562 101.304688 C 86.441406 106.105469 83.890625 108.363281 80.546875 111.671875 C 80.378906 111.835938 80.375 112 80.539062 112.164062 L 84.953125 116.585938 C 85.179688 116.816406 85.132812 116.929688 84.8125 116.929688 L 65.25 116.929688 C 65.054688 116.929688 64.957031 116.832031 64.957031 116.632812 L 64.957031 97.003906 C 64.957031 96.691406 65.066406 96.644531 65.289062 96.871094 L 69.6875 101.273438 C 69.863281 101.449219 70.039062 101.449219 70.214844 101.273438 Z M 70.214844 101.273438 " fill-opacity="1" fill-rule="nonzero"/><path fill="#ffffff" d="M 16.472656 109.589844 L 16.472656 119.273438 C 16.472656 119.585938 16.359375 119.632812 16.136719 119.414062 C 13.730469 117.078125 11.375 114.726562 9.066406 112.367188 C 4.292969 107.480469 0.714844 104.34375 4.871094 97.972656 C 5.761719 96.609375 7.394531 94.859375 9.777344 92.726562 C 9.917969 92.597656 10.054688 92.601562 10.1875 92.738281 L 26.445312 109.042969 C 26.722656 109.316406 26.667969 109.453125 26.28125 109.449219 L 16.734375 109.324219 C 16.558594 109.324219 16.472656 109.414062 16.472656 109.589844 Z M 16.472656 109.589844 " fill-opacity="1" fill-rule="nonzero"/><path fill="#ffffff" d="M 62.4375 119.140625 L 72.144531 119.140625 C 72.441406 119.140625 72.484375 119.246094 72.28125 119.464844 C 68.867188 123.007812 65.425781 126.453125 61.949219 129.796875 C 55.671875 135.832031 49.9375 130.867188 45.664062 125.851562 C 45.542969 125.707031 45.550781 125.570312 45.683594 125.441406 L 61.980469 109.09375 C 62.011719 109.066406 62.050781 109.042969 62.089844 109.035156 C 62.132812 109.027344 62.179688 109.03125 62.21875 109.050781 C 62.257812 109.066406 62.292969 109.09375 62.316406 109.132812 C 62.339844 109.167969 62.351562 109.210938 62.347656 109.253906 L 62.132812 118.828125 C 62.128906 119.035156 62.230469 119.140625 62.4375 119.140625 Z M 62.4375 119.140625 " fill-opacity="1" fill-rule="nonzero"/><g clip-path="url(#8630c46ab9)"><path fill="#ffffff" d="M 34.726562 117.011719 L 50.53125 133.050781 C 50.75 133.273438 50.703125 133.386719 50.394531 133.390625 C 44.953125 133.488281 39.523438 133.476562 34.105469 133.351562 C 29.667969 133.242188 27.324219 130.566406 24.28125 127.480469 C 24.113281 127.3125 23.949219 127.3125 23.785156 127.480469 L 19.367188 131.917969 C 19.199219 132.085938 19.113281 132.050781 19.113281 131.8125 L 19.113281 112.066406 C 19.113281 111.867188 19.210938 111.769531 19.40625 111.769531 L 38.972656 111.769531 C 39.285156 111.769531 39.332031 111.882812 39.113281 112.105469 L 34.726562 116.511719 C 34.5625 116.675781 34.5625 116.84375 34.726562 117.011719 Z M 34.726562 117.011719 " fill-opacity="1" fill-rule="nonzero"/></g></svg>