<svg width="1265" height="182" viewBox="0 0 1265 182" fill="none" xmlns="http://www.w3.org/2000/svg">
<path d="M265.893 4.49999V177H209.543V26.81L220.353 28.19L162.393 177H103.743L45.7834 28.88L56.5934 27.27V177H0.24336V4.49999H92.0134L143.533 145.03H123.063L174.123 4.49999H265.893ZM334.523 148.02V100.87H452.053V148.02H334.523ZM433.883 4.49999L509.553 177H446.303L386.733 30.72H401.913L342.343 177H279.093L354.763 4.49999H433.883ZM691.304 102.48C690.69 112.6 688.544 122.413 684.864 131.92C681.337 141.273 676.047 149.707 668.994 157.22C662.094 164.58 653.277 170.407 642.544 174.7C631.81 178.993 619.084 181.14 604.364 181.14C591.024 181.14 578.374 179.223 566.414 175.39C554.607 171.557 544.104 165.883 534.904 158.37C525.857 150.703 518.727 141.273 513.514 130.08C508.3 118.733 505.694 105.623 505.694 90.75C505.694 75.8767 508.3 62.8433 513.514 51.65C518.727 40.3033 526.01 30.8733 535.364 23.36C544.717 15.6933 555.527 9.94332 567.794 6.10999C580.06 2.27666 593.324 0.359998 607.584 0.359998C627.517 0.359998 644.537 3.35 658.644 9.32999C672.904 15.1567 684.327 23.2067 692.914 33.48C701.654 43.7533 707.404 55.6367 710.164 69.13H650.594C649.214 64.8367 646.454 61.2333 642.314 58.32C638.327 55.2533 633.42 52.9533 627.594 51.42C621.767 49.7333 615.25 48.89 608.044 48.89C599.15 48.89 591.484 50.4233 585.044 53.49C578.604 56.4033 573.62 60.9267 570.094 67.06C566.72 73.1933 565.034 81.09 565.034 90.75C565.034 100.563 566.95 108.69 570.784 115.13C574.77 121.57 580.367 126.323 587.574 129.39C594.934 132.457 603.597 133.99 613.564 133.99C623.224 133.99 631.81 132.917 639.324 130.77C646.837 128.47 652.894 125.02 657.494 120.42C662.247 115.667 665.16 109.687 666.234 102.48H691.304ZM617.244 118.35V84.77H711.544V177H670.374L661.634 110.99L671.984 118.35H617.244ZM736.288 4.49999H795.628V177H736.288V4.49999ZM1021.47 102.25C1019.63 118.043 1014.19 131.843 1005.14 143.65C996.249 155.457 984.442 164.657 969.722 171.25C955.002 177.843 938.135 181.14 919.122 181.14C898.575 181.14 880.635 177.383 865.302 169.87C849.969 162.357 838.009 151.853 829.422 138.36C820.989 124.713 816.772 108.843 816.772 90.75C816.772 72.6567 820.989 56.8633 829.422 43.37C838.009 29.7233 849.969 19.1433 865.302 11.63C880.635 4.11666 898.575 0.359998 919.122 0.359998C938.135 0.359998 955.002 3.65666 969.722 10.25C984.442 16.8433 996.249 26.0433 1005.14 37.85C1014.19 49.6567 1019.63 63.4567 1021.47 79.25H961.902C960.522 73.27 957.992 68.21 954.312 64.07C950.632 59.7767 945.802 56.5567 939.822 54.41C933.995 52.11 927.095 50.96 919.122 50.96C910.229 50.96 902.562 52.57 896.122 55.79C889.835 58.8567 885.005 63.38 881.632 69.36C878.259 75.34 876.572 82.47 876.572 90.75C876.572 99.03 878.259 106.16 881.632 112.14C885.005 117.967 889.835 122.49 896.122 125.71C902.562 128.93 910.229 130.54 919.122 130.54C927.095 130.54 933.995 129.543 939.822 127.55C945.802 125.403 950.632 122.26 954.312 118.12C957.992 113.827 960.522 108.537 961.902 102.25H1021.47Z" fill="white"/>
<path d="M1110.15 4.49999H1251.37V47.05H1127.17L1150.4 38.54L1140.97 93.51H1127.4C1130.62 87.53 1135.06 82.1633 1140.74 77.41C1146.41 72.6567 1153.46 68.9 1161.9 66.14C1170.48 63.2267 1180.6 61.77 1192.26 61.77C1206.82 61.77 1219.47 64.1467 1230.21 68.9C1241.09 73.5 1249.53 80.0167 1255.51 88.45C1261.64 96.73 1264.71 106.467 1264.71 117.66C1264.71 130.08 1261.26 141.043 1254.36 150.55C1247.61 160.057 1237.72 167.57 1224.69 173.09C1211.65 178.457 1195.86 181.14 1177.31 181.14C1159.67 181.14 1144.26 178.61 1131.08 173.55C1117.89 168.337 1107.54 161.36 1100.03 152.62C1092.67 143.727 1088.68 133.913 1088.07 123.18H1146.72C1147.64 127.013 1150.78 130.233 1156.15 132.84C1161.51 135.293 1168.57 136.52 1177.31 136.52C1183.44 136.52 1188.58 135.753 1192.72 134.22C1197.01 132.687 1200.23 130.54 1202.38 127.78C1204.68 124.867 1205.83 121.417 1205.83 117.43C1205.83 113.75 1204.68 110.453 1202.38 107.54C1200.23 104.627 1197.01 102.403 1192.72 100.87C1188.58 99.1833 1183.52 98.34 1177.54 98.34C1172.63 98.34 1168.11 98.8767 1163.97 99.95C1159.98 100.87 1156.45 102.173 1153.39 103.86C1150.47 105.393 1147.94 107.08 1145.8 108.92H1094.05L1110.15 4.49999Z" fill="#CE1C3F"/>
</svg>
